<?xml version="1.0" standalone="no"?>
<!DOCTYPE svg PUBLIC "-//W3C//DTD SVG 20010904//EN"
 "http://www.w3.org/TR/2001/REC-SVG-20010904/DTD/svg10.dtd">
<svg version="1.0" xmlns="http://www.w3.org/2000/svg"
 width="300.000000pt" height="300.000000pt" viewBox="0 0 300.000000 300.000000"
 preserveAspectRatio="xMidYMid meet">
<metadata>
Created by potrace 1.11, written by Peter Selinger 2001-2013
</metadata>
<g transform="translate(0.000000,300.000000) scale(0.100000,-0.100000)"
fill="#000000" stroke="none">
<path d="M354 2394 c-70 -41 -129 -74 -132 -74 -2 0 -17 -9 -33 -21 l-29 -20
0 -187 1 -187 160 -92 161 -92 102 58 c55 32 119 69 141 81 87 49 80 29 80
236 l0 186 -90 52 c-49 29 -122 72 -162 94 l-72 40 -127 -74z"/>
<path d="M1001 2380 c-85 -49 -157 -93 -160 -99 -4 -5 -6 -91 -6 -191 l0 -182
162 -92 161 -93 53 30 c56 30 261 148 268 154 3 2 5 255 2 349 -1 28 -11 36
-161 122 -88 51 -161 92 -162 92 -2 -1 -72 -41 -157 -90z"/>
<path d="M1670 2370 l-155 -90 0 -186 0 -187 35 -22 c19 -12 92 -54 162 -94
l127 -73 43 24 c265 151 278 159 279 186 5 198 0 345 -12 356 -24 22 -297 176
-311 176 -7 -1 -83 -41 -168 -90z"/>
<path d="M2485 2451 c-5 -5 -71 -44 -145 -86 -74 -43 -138 -82 -142 -88 -4 -6
-7 -92 -7 -192 l0 -180 112 -64 c62 -36 136 -78 164 -94 l53 -28 82 48 c46 27
90 52 98 56 8 4 24 13 35 20 11 7 39 23 63 36 l42 25 0 188 c0 184 0 188 -22
201 -118 72 -277 159 -298 163 -14 3 -29 1 -35 -5z"/>
<path d="M662 1791 c-85 -49 -156 -92 -159 -95 -7 -7 -9 -374 -2 -379 4 -3 89
-53 194 -112 22 -13 60 -34 84 -48 l44 -25 54 34 c29 19 55 34 57 34 3 0 51
27 108 60 l103 60 0 189 0 189 -35 18 c-19 11 -87 49 -152 87 -64 37 -123 69
-130 72 -7 2 -82 -35 -166 -84z"/>
<path d="M1357 1801 c-76 -44 -148 -86 -160 -94 -22 -14 -22 -19 -22 -201 l0
-186 162 -94 162 -94 67 39 c36 21 69 39 72 39 3 0 13 6 21 14 9 7 43 28 76
45 93 50 88 36 88 242 l0 183 -159 93 c-87 51 -161 93 -164 93 -3 0 -67 -36
-143 -79z"/>
<path d="M2031 1799 c-73 -43 -137 -79 -141 -79 -4 0 -14 -8 -24 -18 -14 -17
-16 -42 -14 -201 l3 -182 162 -93 162 -94 82 49 c45 27 84 49 86 49 2 0 28 15
57 33 28 17 61 37 72 43 18 10 19 25 22 200 l2 189 -52 31 c-29 18 -75 44
-103 59 -27 15 -75 43 -106 61 -31 19 -61 34 -65 33 -5 0 -69 -36 -143 -80z"/>
<path d="M325 1200 c-82 -49 -154 -90 -158 -92 -9 -4 -12 -362 -3 -377 6 -9
84 -56 211 -127 28 -15 63 -35 79 -45 27 -16 30 -16 60 1 17 9 90 51 161 93
l130 75 1 185 c2 209 9 186 -78 236 -18 10 -77 44 -131 75 -53 31 -103 58
-110 60 -6 3 -79 -36 -162 -84z"/>
<path d="M1075 1243 c-44 -25 -98 -56 -120 -69 -22 -13 -59 -33 -82 -45 l-42
-22 2 -190 2 -190 160 -93 160 -93 55 31 c106 60 118 67 185 107 37 23 71 41
76 41 5 0 9 86 9 193 l0 192 -131 75 c-72 41 -142 83 -157 92 -15 9 -29 17
-32 17 -3 0 -41 -20 -85 -46z"/>
<path d="M1740 1233 c-52 -30 -115 -67 -140 -81 -92 -51 -84 -30 -85 -237 l-1
-185 49 -30 c27 -16 50 -30 52 -30 2 0 49 -27 104 -60 56 -32 107 -60 114 -62
6 -2 83 37 170 87 137 78 157 92 158 115 1 38 1 270 0 315 l-1 41 -159 92
c-88 51 -161 92 -163 92 -2 -1 -46 -26 -98 -57z"/>
<path d="M2355 1197 l-160 -93 -2 -186 -3 -186 50 -31 c28 -17 52 -31 54 -31
2 0 53 -29 112 -64 l109 -64 65 35 c36 20 72 42 81 50 8 7 18 13 21 13 4 0 39
19 80 43 l73 44 2 189 3 189 -157 90 c-86 50 -159 91 -162 92 -3 2 -78 -39
-166 -90z"/>
</g>
</svg>
