<?xml version="1.0" standalone="no"?>
<!DOCTYPE svg PUBLIC "-//W3C//DTD SVG 20010904//EN"
 "http://www.w3.org/TR/2001/REC-SVG-20010904/DTD/svg10.dtd">
<svg version="1.0" xmlns="http://www.w3.org/2000/svg"
 width="1116.000000pt" height="1116.000000pt" viewBox="0 0 1116.000000 1116.000000"
 preserveAspectRatio="xMidYMid meet">
<metadata>
Created by potrace 1.11, written by Peter Selinger 2001-2013
</metadata>
<g transform="translate(0.000000,1116.000000) scale(0.100000,-0.100000)"
fill="#000000" stroke="none">
<path d="M4129 9571 c-13 -10 -28 -20 -34 -21 -5 -2 -19 -8 -30 -15 -17 -11
-112 -66 -250 -145 -74 -42 -351 -202 -365 -211 -15 -9 -268 -154 -502 -289
l-128 -73 -1 -141 c-2 -622 1 -1408 6 -1415 3 -6 29 -23 58 -39 28 -16 151
-86 272 -156 121 -71 238 -138 260 -151 63 -35 488 -281 609 -352 60 -35 118
-66 130 -69 19 -4 41 6 204 101 9 6 60 35 112 65 52 30 104 60 115 67 11 7 27
16 35 20 8 4 49 27 90 51 41 25 95 56 120 70 43 24 471 271 613 354 l67 39 0
777 0 778 -216 124 c-119 69 -235 136 -258 149 -22 13 -70 40 -106 61 -36 21
-82 47 -102 59 -46 26 -62 34 -263 151 -88 51 -176 102 -195 113 -19 11 -48
28 -65 38 -16 11 -37 22 -45 26 -8 3 -32 17 -52 30 -45 28 -49 28 -79 4z"/>
<path d="M1134 9459 c-115 -66 -216 -124 -224 -130 -8 -5 -130 -75 -270 -155
-140 -81 -271 -156 -292 -168 -20 -11 -106 -61 -192 -110 l-156 -90 0 -773 0
-773 38 -24 c31 -21 511 -298 595 -345 16 -9 36 -20 46 -26 51 -30 228 -133
259 -151 21 -11 121 -69 224 -128 136 -78 191 -106 200 -98 12 9 400 234 518
300 25 14 57 33 72 43 14 11 28 19 31 19 3 0 81 44 174 98 92 54 249 145 349
202 l181 104 0 777 1 776 -157 90 c-86 50 -291 168 -456 263 -165 96 -313 181
-330 189 -16 9 -31 19 -33 24 -2 4 -7 7 -12 7 -7 0 -184 100 -230 130 -8 6
-22 13 -30 17 -8 4 -32 17 -52 30 -21 13 -39 23 -41 23 -2 0 -97 -54 -213
-121z"/>
<path d="M6890 9513 c-105 -61 -613 -355 -672 -387 -20 -12 -114 -66 -208
-121 -202 -118 -205 -119 -292 -169 l-68 -38 0 -777 0 -778 218 -125 c119 -69
240 -138 267 -153 28 -15 62 -36 77 -46 14 -11 29 -19 32 -19 4 0 23 -11 44
-24 35 -22 485 -283 534 -309 13 -7 56 -32 97 -57 l74 -44 61 34 c34 18 171
97 306 175 135 78 276 160 313 181 38 21 83 47 100 57 18 11 111 64 207 120
96 55 217 125 269 156 l95 56 -1 745 c-1 410 -2 759 -2 777 -1 32 -4 34 -106
93 -16 9 -65 38 -108 64 -43 25 -81 46 -83 46 -2 0 -21 11 -42 23 -20 13 -57
35 -82 49 -25 14 -85 49 -135 78 -49 29 -109 63 -132 76 -41 23 -270 155 -448
259 -145 84 -202 115 -211 115 -5 -1 -52 -26 -104 -57z"/>
<path d="M9750 9536 c-72 -43 -247 -144 -285 -166 -91 -52 -457 -263 -560
-324 -66 -38 -133 -77 -150 -86 -16 -9 -87 -49 -156 -89 l-126 -73 -1 -778 0
-777 275 -159 c152 -87 297 -171 322 -185 25 -14 89 -51 141 -81 418 -243 585
-338 600 -343 11 -4 78 30 189 95 95 55 174 100 176 100 3 0 29 16 59 35 30
19 58 35 61 35 3 0 22 11 43 24 40 25 663 385 747 431 28 15 56 32 63 38 9 7
12 173 10 790 l-3 780 -72 43 c-39 23 -102 59 -140 79 -37 21 -72 41 -78 45
-5 4 -84 50 -175 103 -91 52 -181 104 -200 116 -19 11 -42 24 -50 28 -8 4 -60
33 -115 66 -55 33 -122 72 -150 87 -27 15 -117 66 -199 114 -82 47 -154 86
-160 85 -6 0 -36 -15 -66 -33z"/>
<path d="M7945 6873 c-253 -146 -545 -315 -650 -375 -104 -61 -200 -116 -212
-122 -13 -6 -23 -20 -24 -31 -2 -72 -1 -1537 2 -1539 2 -2 48 -29 102 -60 53
-31 141 -81 195 -113 53 -31 111 -64 127 -73 17 -9 72 -41 123 -71 52 -30 110
-63 130 -75 20 -11 125 -71 232 -134 107 -62 209 -120 225 -129 17 -9 58 -33
91 -54 34 -20 65 -37 70 -37 4 0 15 -7 25 -15 15 -14 21 -14 63 7 25 12 46 26
46 30 0 4 4 8 9 8 9 0 211 113 251 140 8 6 22 13 30 17 8 4 33 17 54 31 22 13
58 34 80 46 56 31 618 356 736 426 l95 57 0 778 0 779 -175 101 c-326 190
-1015 588 -1050 608 -19 10 -53 30 -75 43 l-40 23 -460 -266z"/>
<path d="M2475 6979 c-469 -272 -587 -340 -825 -477 -129 -74 -237 -136 -239
-138 -3 -3 -5 -1504 -2 -1550 1 -6 94 -65 208 -130 113 -66 224 -130 247 -142
167 -98 308 -179 346 -200 25 -13 50 -28 55 -32 6 -4 30 -19 55 -32 70 -39
273 -157 290 -168 8 -6 22 -13 30 -17 8 -4 31 -17 51 -29 51 -32 68 -32 124 1
28 16 88 51 135 78 47 28 110 63 140 80 30 16 62 36 71 43 8 8 18 14 22 14 3
0 32 15 64 34 178 104 505 293 548 317 28 15 107 61 176 101 l126 74 0 769 c1
447 -3 777 -9 788 -5 9 -14 17 -20 17 -6 0 -19 6 -27 14 -9 7 -44 29 -79 47
-35 19 -71 39 -80 44 -9 6 -64 37 -122 70 -123 71 -116 67 -222 129 -46 26
-108 62 -138 79 -30 17 -82 48 -116 69 -34 21 -63 38 -66 38 -2 0 -105 59
-227 130 -123 72 -230 130 -239 130 -10 -1 -134 -69 -277 -151z"/>
<path d="M5510 7097 c-30 -18 -86 -50 -125 -71 -38 -21 -74 -42 -80 -46 -5 -4
-26 -17 -45 -27 -19 -11 -197 -114 -395 -228 -198 -114 -418 -242 -490 -283
-71 -41 -132 -78 -135 -83 -3 -4 -5 -355 -5 -780 l0 -773 85 -49 c47 -27 99
-57 115 -67 17 -9 202 -117 412 -239 211 -121 387 -221 393 -221 5 0 10 -4 10
-10 0 -5 4 -10 8 -10 5 0 79 -41 166 -91 l157 -90 107 62 c59 34 121 69 137
79 17 9 74 43 128 74 53 31 141 81 195 112 215 125 359 208 402 232 25 14 79
45 120 70 41 24 99 57 128 73 28 16 69 39 90 52 l37 24 0 777 0 776 -30 18
c-17 10 -50 30 -75 44 -25 14 -132 76 -238 137 -106 61 -207 120 -225 130 -17
10 -56 32 -85 50 -29 17 -57 31 -62 31 -6 0 -10 5 -10 10 0 6 -4 10 -10 10 -5
0 -114 61 -241 135 -127 74 -233 135 -236 135 -2 0 -29 16 -59 35 -30 19 -62
35 -72 35 -9 0 -42 -15 -72 -33z"/>
<path d="M1295 4647 c-55 -33 -420 -244 -472 -273 -58 -33 -443 -255 -651
-376 l-172 -100 2 -780 3 -780 225 -130 c124 -72 241 -140 260 -151 19 -10
214 -123 433 -249 220 -127 406 -232 415 -235 10 -2 166 82 347 187 182 106
353 204 380 220 28 15 178 102 335 193 l285 165 3 780 2 780 -67 39 c-38 22
-88 51 -113 65 -25 14 -101 58 -170 98 -68 40 -138 81 -155 90 -66 38 -304
175 -555 320 -146 84 -272 155 -280 157 -8 2 -33 -7 -55 -20z"/>
<path d="M4140 4662 c-8 -2 -56 -29 -106 -58 -167 -97 -199 -115 -216 -121
-10 -3 -18 -9 -18 -14 0 -5 -5 -9 -10 -9 -6 0 -43 -20 -83 -44 -64 -38 -545
-317 -637 -368 -19 -11 -86 -49 -147 -85 l-113 -65 -1 -106 c0 -87 0 -1336 1
-1434 0 -16 4 -28 9 -28 4 0 219 -122 477 -271 258 -150 487 -282 509 -294 22
-13 106 -61 187 -108 85 -50 156 -84 167 -82 15 3 173 91 456 255 17 10 73 42
125 72 52 31 244 141 425 245 l330 191 1 775 c1 427 -2 780 -5 784 -3 5 -57
38 -120 74 -63 35 -132 74 -153 87 -22 12 -157 90 -301 174 -144 83 -331 191
-414 240 -84 48 -174 100 -200 115 -27 14 -64 36 -83 48 -45 28 -61 33 -80 27z"/>
<path d="M6685 4491 c-170 -98 -360 -207 -421 -243 -61 -35 -117 -68 -125 -71
-8 -4 -30 -17 -49 -28 -67 -41 -365 -213 -391 -226 -15 -7 -31 -19 -37 -26 -6
-8 -10 -282 -10 -784 l0 -773 197 -113 c108 -63 329 -191 491 -284 162 -94
316 -183 342 -197 27 -15 105 -60 175 -101 70 -41 133 -75 139 -75 13 0 67 30
399 222 110 64 283 164 385 223 102 59 268 154 370 213 102 58 187 107 189
109 9 6 3 1555 -5 1563 -5 4 -139 83 -299 175 -159 91 -297 170 -305 175 -118
70 -153 90 -156 90 -2 0 -37 20 -77 44 -39 24 -103 61 -142 83 -38 22 -130 75
-203 117 -73 42 -139 79 -145 81 -7 3 -151 -76 -322 -174z"/>
<path d="M9756 4635 c-32 -19 -59 -35 -61 -35 -1 0 -65 -37 -141 -82 -76 -44
-164 -95 -194 -111 -30 -16 -59 -33 -65 -37 -5 -4 -30 -19 -55 -32 -25 -14
-144 -83 -265 -153 -121 -70 -272 -156 -335 -193 -63 -36 -127 -73 -141 -83
l-26 -18 0 -775 0 -774 36 -20 c20 -10 140 -79 266 -152 127 -73 244 -141 260
-150 17 -10 199 -115 405 -234 206 -119 380 -214 387 -212 11 5 222 125 573
328 52 30 201 116 330 190 129 75 278 160 330 191 l95 55 3 780 2 780 -42 25
c-24 14 -59 34 -78 45 -19 10 -75 43 -125 72 -49 29 -109 63 -133 77 -23 13
-93 53 -154 89 -61 35 -112 64 -114 64 -2 0 -44 25 -94 55 -50 30 -92 55 -94
55 -2 0 -76 43 -165 95 -90 52 -164 95 -165 95 -2 0 -41 22 -87 50 -46 27 -87
50 -90 50 -3 0 -31 -16 -63 -35z"/>
</g>
</svg>
