<?xml version="1.0" standalone="no"?>
<!DOCTYPE svg PUBLIC "-//W3C//DTD SVG 20010904//EN"
 "http://www.w3.org/TR/2001/REC-SVG-20010904/DTD/svg10.dtd">
<svg version="1.0" xmlns="http://www.w3.org/2000/svg"
 width="2000.000000pt" height="2000.000000pt" viewBox="0 0 2000.000000 2000.000000"
 preserveAspectRatio="xMidYMid meet">
<metadata>
Created by potrace 1.11, written by Peter Selinger 2001-2013
</metadata>
<g transform="translate(0.000000,2000.000000) scale(0.100000,-0.100000)"
fill="#000000" stroke="none">
<path d="M7230 17246 l-1335 -772 0 -1558 0 -1558 155 -90 c85 -50 621 -359
1190 -688 569 -329 1098 -634 1175 -679 77 -44 148 -81 158 -81 14 0 1003 567
2620 1502 l67 39 0 1553 0 1554 -67 40 c-200 117 -2606 1504 -2616 1507 -7 1
-613 -345 -1347 -769z m2350 -171 c542 -312 1072 -618 1177 -679 l193 -111 0
-1370 0 -1370 -1178 -680 c-647 -373 -1186 -679 -1197 -680 -11 0 -550 306
-1197 679 l-1178 680 0 1371 0 1371 1178 682 c705 408 1185 680 1197 678 12
-1 464 -258 1005 -571z"/>
<path d="M8425 16724 c-345 -49 -573 -146 -805 -340 -210 -176 -363 -433 -417
-701 -27 -135 -24 -507 6 -616 29 -111 81 -208 205 -387 191 -274 247 -374
298 -523 41 -120 40 -142 -16 -561 -25 -186 -46 -345 -46 -352 0 -12 102 -14
613 -14 336 0 649 3 695 7 l82 6 1 121 c1 157 11 272 27 288 20 20 120 21 303
3 224 -22 468 -23 527 -1 62 22 105 59 135 115 33 60 34 88 2 181 -40 119 -35
150 43 232 35 37 36 38 20 70 -9 18 -34 54 -57 80 l-41 46 79 44 80 43 -46 75
-45 75 35 30 c19 17 65 48 102 69 78 46 105 77 105 121 0 53 -55 145 -149 248
-142 157 -175 237 -192 457 -18 246 -56 396 -140 560 -160 312 -482 528 -895
601 -114 19 -432 34 -509 23z m-291 -416 c3 -13 7 -31 8 -41 2 -12 24 -28 60
-43 l57 -24 33 20 32 19 28 -26 27 -26 -25 -30 c-17 -20 -23 -36 -18 -51 18
-58 24 -66 49 -66 37 0 63 -30 57 -68 -4 -29 -7 -32 -42 -32 -35 0 -38 -3 -58
-51 l-22 -50 22 -30 c18 -24 20 -32 10 -54 -16 -36 -37 -40 -68 -16 -32 25
-38 26 -91 4 -35 -15 -44 -24 -50 -53 -8 -32 -12 -35 -50 -38 -41 -3 -41 -3
-48 36 -6 35 -11 41 -46 52 -38 13 -41 12 -67 -13 l-28 -27 -27 28 c-32 34
-33 39 -6 68 l20 22 -30 61 c-29 57 -33 61 -66 61 -41 0 -53 18 -39 59 7 19
20 29 46 35 31 8 40 16 56 56 l20 48 -25 25 -26 25 22 31 c27 37 30 37 66 10
27 -22 27 -22 73 -3 39 17 48 25 55 56 9 36 20 45 64 47 16 1 24 -6 27 -21z
m755 -154 c11 -14 23 -34 26 -45 6 -17 17 -19 105 -19 88 0 99 2 105 19 22 70
85 92 132 45 20 -20 24 -32 19 -55 -3 -16 -9 -41 -12 -56 -4 -23 2 -35 39 -72
l45 -43 48 16 c43 14 50 15 71 0 56 -36 50 -101 -12 -131 l-35 -17 0 -86 0
-86 42 -19 c23 -11 46 -27 51 -36 12 -20 3 -60 -21 -89 -18 -22 -21 -22 -71
-10 l-53 13 -56 -56 -55 -55 13 -46 c7 -25 10 -56 6 -69 -6 -24 -42 -47 -75
-47 -19 0 -51 31 -70 68 -10 20 -19 22 -80 22 -67 0 -69 -1 -81 -30 -22 -54
-49 -80 -81 -80 -34 0 -84 43 -75 65 2 7 8 30 12 49 5 32 3 39 -22 59 -16 12
-48 39 -71 61 l-43 38 -40 -16 c-53 -21 -56 -20 -85 9 -17 16 -25 35 -25 59 0
31 5 38 46 62 l46 27 -6 60 c-3 33 -6 70 -6 82 0 16 -11 27 -41 40 -52 24 -64
46 -49 91 15 45 46 58 106 43 26 -7 49 -8 53 -3 4 5 29 32 55 61 l47 51 -15
37 c-22 52 -20 70 10 94 37 29 78 27 103 -5z m-695 -637 c10 -8 21 -30 25 -50
6 -34 12 -39 79 -72 l72 -34 33 29 c32 28 35 28 58 13 27 -18 49 -43 49 -55 0
-4 -14 -23 -31 -43 l-31 -35 19 -47 c17 -43 24 -48 63 -58 52 -13 86 -51 76
-88 -6 -24 -19 -32 -90 -53 -23 -7 -34 -21 -49 -57 l-20 -48 22 -38 c26 -48
26 -66 1 -91 -27 -27 -52 -25 -88 5 l-29 24 -67 -26 c-64 -26 -66 -27 -66 -62
0 -20 -4 -41 -8 -47 -11 -18 -51 -26 -87 -20 -30 6 -33 10 -39 55 -6 46 -8 50
-54 69 l-47 21 -30 -30 c-39 -37 -57 -37 -89 2 l-26 31 28 36 29 35 -31 68
c-29 63 -32 67 -69 72 -51 7 -77 32 -77 73 0 36 29 64 66 64 40 0 52 11 74 70
l22 59 -26 31 c-30 37 -32 47 -10 78 20 29 56 28 90 -1 l28 -24 58 25 c46 20
58 30 58 48 0 36 17 72 37 77 34 9 59 7 77 -6z"/>
<path d="M8023 16110 c-40 -24 -66 -73 -66 -125 0 -143 163 -196 257 -85 21
25 26 42 26 85 0 43 -5 60 -26 85 -52 61 -130 78 -191 40z"/>
<path d="M8919 15882 c-68 -36 -109 -105 -109 -187 0 -67 13 -101 53 -144 68
-72 162 -89 253 -47 61 28 98 73 115 139 23 95 -17 187 -104 237 -70 40 -134
41 -208 2z"/>
<path d="M8103 15269 c-45 -13 -100 -70 -114 -118 -17 -58 -4 -125 33 -167 42
-48 77 -64 139 -64 176 0 247 221 103 322 -44 31 -111 43 -161 27z"/>
<path d="M2785 17911 c-82 -48 -687 -396 -1342 -775 l-1193 -688 0 -1544 0
-1543 27 -19 c76 -53 2641 -1526 2658 -1527 11 0 620 346 1353 770 l1332 769
-2 1549 -3 1548 -1325 765 c-729 421 -1332 769 -1340 774 -10 6 -61 -19 -165
-79z m1123 -820 c532 -307 1067 -615 1190 -686 l222 -127 0 -1377 -1 -1376
-272 -157 c-150 -86 -686 -395 -1191 -687 l-920 -531 -40 24 c-883 508 -2219
1279 -2271 1311 l-70 41 -3 1375 -2 1374 1187 687 c654 378 1192 687 1196 687
4 1 443 -250 975 -558z"/>
<path d="M2360 16775 c-507 -85 -921 -440 -1079 -923 -51 -155 -65 -249 -65
-432 0 -131 5 -186 22 -267 60 -278 182 -504 377 -698 114 -114 211 -184 352
-254 300 -149 621 -185 942 -105 524 130 903 530 1018 1074 25 119 25 392 0
509 -70 326 -223 587 -463 789 -196 165 -416 266 -669 307 -108 18 -330 18
-435 0z m513 -208 c371 -98 678 -376 814 -737 84 -221 94 -498 26 -730 -155
-536 -677 -897 -1229 -849 -437 38 -820 316 -990 719 -215 512 -43 1102 417
1423 82 58 233 131 324 159 132 39 202 47 375 44 139 -3 181 -7 263 -29z"/>
<path d="M2826 16452 c-3 -3 -6 -25 -6 -49 l0 -43 -348 0 c-325 0 -350 -1
-365 -18 -22 -24 -21 -65 1 -85 17 -15 56 -17 355 -17 382 0 355 7 320 -82
-40 -103 -136 -221 -250 -308 l-63 -48 116 -67 116 -67 39 27 c57 38 159 145
197 209 77 127 132 299 132 414 l0 49 -62 28 c-75 34 -175 65 -182 57z"/>
<path d="M1819 16163 c-36 -37 -78 -85 -94 -106 l-28 -38 24 -52 c50 -108 182
-247 327 -346 31 -21 145 -89 252 -151 220 -127 294 -177 363 -246 80 -79 128
-160 151 -256 l6 -28 -330 0 c-328 0 -362 -3 -382 -34 -14 -20 -8 -63 10 -79
17 -15 56 -17 360 -17 195 0 342 -4 342 -9 0 -31 -45 -144 -75 -188 -46 -69
-91 -113 -187 -184 -61 -45 -76 -60 -63 -65 9 -4 70 -4 134 -1 124 7 254 33
295 60 34 23 113 186 131 272 8 39 15 114 15 168 0 297 -123 502 -415 690 -38
24 -142 85 -230 135 -193 110 -268 161 -347 238 l-60 59 262 5 c247 5 262 6
276 25 22 30 14 77 -16 92 -18 9 -103 13 -318 13 l-293 0 -15 38 c-8 20 -18
45 -22 55 -6 16 -17 8 -73 -50z"/>
<path d="M1920 15467 c-159 -125 -265 -295 -285 -460 -8 -62 7 -99 80 -202 46
-64 193 -212 235 -236 21 -12 75 -14 316 -9 319 6 324 6 324 65 0 64 -1 64
-361 67 l-324 3 -14 40 c-17 51 -18 195 -2 262 l13 52 325 3 c308 3 325 4 339
22 19 27 18 70 -4 89 -16 15 -51 17 -273 18 -140 0 -262 4 -272 8 -17 6 -14
11 22 44 22 20 72 59 111 88 l71 51 -115 69 c-63 38 -118 69 -123 69 -4 0 -33
-19 -63 -43z"/>
<path d="M3577 14422 c-51 -52 -87 -96 -87 -107 0 -35 28 -65 62 -65 24 0 45
15 105 73 90 86 109 117 92 150 -15 29 -28 37 -59 37 -19 0 -49 -23 -113 -88z"/>
<path d="M3786 14346 c-115 -43 -174 -193 -118 -302 26 -48 654 -675 702 -700
22 -11 57 -18 95 -18 114 -1 204 79 213 189 9 108 3 116 -347 468 -174 175
-335 330 -358 343 -52 31 -133 40 -187 20z"/>
<path d="M1872 13973 c-103 -103 -158 -190 -201 -318 -26 -78 -51 -231 -51
-310 l0 -25 125 0 125 0 0 28 c0 53 -8 52 350 54 l334 3 16 28 c13 24 13 30 0
55 l-16 27 -327 3 c-377 3 -350 -7 -292 108 57 114 152 215 284 303 l54 36
-34 9 c-19 5 -86 26 -150 47 -64 22 -119 39 -123 39 -3 0 -46 -39 -94 -87z"/>
<path d="M2606 13940 l-140 -5 45 -29 c24 -16 70 -55 103 -85 l58 -56 -255 -5
c-233 -5 -257 -7 -276 -24 -26 -24 -27 -67 -3 -89 16 -15 50 -17 264 -17 135
0 272 -3 306 -6 53 -6 62 -10 71 -33 20 -51 34 -117 40 -191 l6 -75 124 -3
124 -3 -6 108 c-9 179 -76 360 -173 471 -45 51 -46 52 -97 50 -29 -1 -115 -5
-191 -8z"/>
<path d="M13085 17319 c-627 -363 -1228 -710 -1335 -772 l-195 -113 0 -1554 0
-1555 250 -144 c138 -79 740 -427 1340 -773 924 -534 1092 -628 1110 -620 12
6 316 180 676 388 1007 582 1867 1077 1936 1115 l63 34 -3 1555 -2 1554 -1339
773 c-737 425 -1344 773 -1350 772 -6 0 -524 -297 -1151 -660z m2197 -296
c568 -328 1101 -635 1183 -683 l150 -86 0 -1373 0 -1374 -190 -109 c-104 -61
-626 -362 -1160 -670 -533 -308 -982 -567 -996 -576 -26 -15 -42 -6 -1211 668
l-1185 684 -6 848 c-3 467 -3 1087 0 1378 l6 530 56 31 c93 52 1283 737 1811
1043 272 157 498 286 502 286 4 0 472 -268 1040 -597z"/>
<path d="M15444 16508 c35 -116 23 -150 -92 -271 -121 -127 -137 -158 -137
-257 0 -88 23 -145 83 -204 65 -66 104 -81 212 -81 73 0 103 4 128 18 55 30
112 88 140 141 38 72 38 192 0 284 -52 126 -152 260 -258 347 -61 50 -86 58
-76 23z"/>
<path d="M13855 16466 c-330 -54 -605 -191 -842 -420 -440 -423 -591 -1041
-397 -1625 251 -755 1054 -1199 1837 -1015 76 18 97 38 97 94 0 57 -42 131
-135 236 -170 192 -242 314 -252 423 -7 76 10 124 64 182 56 60 128 93 208 93
89 1 126 -22 212 -135 87 -115 200 -221 268 -254 52 -25 149 -41 182 -31 18 6
18 12 10 89 -6 45 -10 224 -11 398 l-1 315 -39 -28 c-82 -59 -210 -75 -313
-37 -88 32 -174 124 -202 214 -12 37 -21 84 -21 105 0 21 9 68 21 105 28 90
114 182 202 214 123 45 254 19 351 -70 61 -55 56 -58 76 46 7 33 28 108 47
167 l35 108 -50 55 c-94 102 -136 237 -113 356 l13 63 -29 24 c-15 13 -72 53
-125 88 -158 105 -330 178 -533 225 -116 27 -437 35 -560 15z m503 -442 c194
-97 184 -372 -18 -463 -67 -31 -134 -27 -209 10 -95 47 -141 122 -141 226 1
145 110 253 256 253 45 0 73 -7 112 -26z m-909 -419 c66 -23 108 -62 142 -131
28 -56 31 -71 26 -122 -23 -260 -359 -332 -479 -103 -49 94 -33 217 40 295 63
67 179 94 271 61z m-3 -973 c60 -31 111 -92 130 -158 48 -165 -73 -326 -246
-326 -68 0 -115 19 -168 67 -142 128 -97 363 83 430 53 20 149 14 201 -13z"/>
<path d="M15605 15573 c-33 -9 -74 -12 -120 -8 -38 3 -83 6 -99 8 -27 2 -30
-2 -48 -53 -127 -366 -165 -1064 -88 -1602 51 -351 151 -582 252 -582 52 0 91
34 136 122 181 348 234 1279 106 1883 -27 131 -63 241 -79 244 -5 2 -32 -4
-60 -12z"/>
<path d="M10064 12337 l-1339 -773 -3 -1556 -2 -1556 277 -160 c153 -88 755
-436 1338 -772 583 -337 1065 -613 1070 -613 6 0 494 279 1085 620 591 341
1192 688 1335 770 l260 150 0 1559 0 1559 -495 286 c-1320 762 -2181 1259
-2183 1259 -2 0 -606 -348 -1343 -773z m2321 -154 c534 -308 1066 -615 1183
-682 l212 -123 0 -1372 0 -1371 -172 -100 c-95 -54 -620 -357 -1166 -672 -547
-316 -1004 -579 -1017 -585 -21 -9 -135 54 -1037 575 -557 321 -1089 629
-1183 683 l-170 99 -3 1371 -2 1370 937 541 c516 298 1051 607 1188 686 138
80 252 143 255 142 3 -1 442 -254 975 -562z"/>
<path d="M11566 11473 c-130 -27 -268 -100 -362 -189 -34 -33 -1215 -1436
-1383 -1644 -63 -77 -110 -168 -143 -270 -19 -63 -23 -96 -23 -210 0 -114 4
-147 23 -210 81 -259 278 -449 537 -521 102 -28 266 -30 370 -4 106 26 240 94
312 159 34 31 223 249 420 484 198 235 489 582 648 772 373 443 388 463 429
540 102 195 113 444 29 644 -139 330 -509 524 -857 449z m364 -235 c35 -15 34
-15 -70 -21 -58 -3 -132 -13 -165 -21 -83 -22 -231 -97 -288 -146 -26 -23
-163 -180 -305 -348 -350 -418 -384 -460 -380 -470 2 -7 473 -405 698 -590 30
-25 59 -49 64 -54 12 -10 13 -9 -366 -459 -169 -202 -326 -383 -350 -404 -62
-54 -185 -111 -270 -125 -335 -57 -658 218 -658 560 0 183 36 250 317 585 929
1108 1107 1316 1154 1359 64 58 166 111 263 137 88 24 298 22 356 -3z"/>
<path d="M11114 9447 c-222 -268 -442 -523 -487 -564 -92 -85 -223 -132 -397
-142 l-105 -7 73 -23 c63 -20 87 -23 185 -19 158 6 271 52 367 148 27 28 492
580 548 651 10 14 6 22 -31 52 l-44 36 -109 -132z"/>
<path d="M12159 9911 c-17 -23 -735 -878 -876 -1043 -17 -20 -10 -36 50 -115
81 -108 225 -203 372 -245 104 -29 296 -32 395 -5 210 56 388 201 480 392 60
124 74 190 74 340 0 119 -3 138 -31 220 -55 162 -148 288 -277 380 -52 36
-156 95 -169 95 -3 0 -11 -9 -18 -19z m101 -224 c0 -2 -10 -12 -22 -23 l-23
-19 19 23 c18 21 26 27 26 19z m-40 -50 c0 -2 -12 -14 -27 -28 l-28 -24 24 28
c23 25 31 32 31 24z m40 -51 c0 -2 -8 -10 -17 -17 -16 -13 -17 -12 -4 4 13 16
21 21 21 13z m-90 -9 c0 -2 -12 -14 -27 -28 l-28 -24 24 28 c23 25 31 32 31
24z m50 -40 c0 -2 -12 -14 -27 -28 l-28 -24 24 28 c23 25 31 32 31 24z m-100
-20 c0 -2 -12 -14 -27 -28 l-28 -24 24 28 c23 25 31 32 31 24z m50 -40 c0 -2
-12 -14 -27 -28 l-28 -24 24 28 c23 25 31 32 31 24z m-100 -20 c0 -2 -12 -14
-27 -28 l-28 -24 24 28 c23 25 31 32 31 24z m50 -40 c0 -2 -15 -16 -32 -33
l-33 -29 29 33 c28 30 36 37 36 29z m-110 -30 c0 -2 -10 -12 -22 -23 l-23 -19
19 23 c18 21 26 27 26 19z m50 -40 c0 -2 -12 -14 -27 -28 l-28 -24 24 28 c23
25 31 32 31 24z m-100 -20 c0 -2 -10 -12 -22 -23 l-23 -19 19 23 c18 21 26 27
26 19z m40 -50 c0 -2 -10 -12 -22 -23 l-23 -19 19 23 c18 21 26 27 26 19z
m-90 -10 c0 -2 -12 -14 -27 -28 l-28 -24 24 28 c23 25 31 32 31 24z m40 -50
c0 -2 -12 -14 -27 -28 l-28 -24 24 28 c23 25 31 32 31 24z m-100 -20 c0 -2
-12 -14 -27 -28 l-28 -24 24 28 c23 25 31 32 31 24z m724 -93 c-32 -158 -90
-261 -209 -372 -47 -44 -100 -82 -147 -105 -104 -50 -137 -56 -48 -8 203 110
346 290 395 499 23 97 30 86 9 -14z m-674 53 c0 -2 -12 -14 -27 -28 l-28 -24
24 28 c23 25 31 32 31 24z m-100 -20 c0 -2 -12 -14 -27 -28 l-28 -24 24 28
c23 25 31 32 31 24z m50 -40 c0 -2 -12 -14 -27 -28 l-28 -24 24 28 c23 25 31
32 31 24z m-171 -102 c-39 -47 -74 -85 -77 -85 -3 0 3 10 14 23 11 12 44 50
73 85 29 34 55 62 57 62 3 0 -27 -38 -67 -85z m111 32 c0 -2 -10 -12 -22 -23
l-23 -19 19 23 c18 21 26 27 26 19z m-40 -50 c0 -2 -12 -14 -27 -28 l-28 -24
24 28 c23 25 31 32 31 24z m-50 -60 c0 -2 -10 -12 -22 -23 l-23 -19 19 23 c18
21 26 27 26 19z m-100 -20 c0 -2 -10 -12 -22 -23 l-23 -19 19 23 c18 21 26 27
26 19z m50 -40 c0 -2 -10 -12 -22 -23 l-23 -19 19 23 c18 21 26 27 26 19z
m-100 -21 c0 -2 -8 -10 -17 -17 -16 -13 -17 -12 -4 4 13 16 21 21 21 13z"/>
<path d="M15810 12394 c-679 -393 -1281 -740 -1337 -772 l-103 -57 0 -1555 0
-1556 88 -51 c526 -305 2562 -1478 2579 -1486 19 -8 165 73 1085 604 585 337
1187 685 1338 774 l275 160 3 1553 2 1552 -42 26 c-169 100 -2641 1524 -2646
1523 -4 0 -563 -322 -1242 -715z m1794 39 c610 -352 1586 -915 1726 -995 l95
-54 3 -1375 2 -1374 -52 -29 c-29 -16 -152 -86 -273 -156 -121 -70 -230 -132
-242 -139 -21 -10 -23 -8 -34 31 -23 85 -38 176 -59 338 -56 448 -146 739
-263 854 -83 80 -270 171 -467 225 l-65 18 -1 -151 c-1 -90 -7 -180 -16 -223
l-15 -72 81 -61 c172 -128 194 -198 167 -520 -6 -74 -16 -191 -22 -260 -26
-316 -104 -450 -264 -450 -93 0 -144 33 -131 86 8 30 32 41 108 49 74 8 98 35
127 143 35 132 72 625 52 699 -36 133 -196 225 -335 194 -111 -25 -194 -109
-236 -238 -12 -38 -49 -137 -82 -222 -68 -177 -98 -283 -98 -353 0 -64 13 -85
63 -107 56 -24 69 -42 65 -88 -2 -30 -8 -39 -29 -47 -59 -20 -161 29 -209 100
-36 54 -39 150 -7 274 34 131 191 553 230 619 67 111 169 177 301 194 44 6 83
12 85 14 23 18 40 305 25 415 l-6 45 -127 38 c-69 21 -131 40 -137 42 -6 2
-16 -15 -23 -39 -22 -72 -81 -228 -128 -333 -47 -105 -203 -395 -213 -395 -8
0 -48 215 -56 297 -5 46 -1 69 15 112 12 29 20 54 19 55 -2 1 -37 32 -79 69
l-77 67 -49 -37 c-28 -21 -67 -53 -87 -70 -35 -32 -36 -34 -22 -60 37 -73 37
-99 3 -278 l-33 -170 -71 125 c-132 233 -224 441 -259 585 -9 39 -18 71 -18
72 -5 6 -151 -38 -178 -54 -104 -60 -167 -516 -124 -894 16 -139 42 -259 84
-378 18 -53 19 -54 73 -68 103 -26 174 -113 166 -204 -13 -150 -170 -232 -300
-156 -86 51 -115 139 -78 237 28 73 27 99 -9 214 -108 351 -119 766 -30 1110
12 43 19 80 17 82 -6 6 -122 -25 -212 -56 -49 -18 -137 -54 -195 -82 -86 -42
-117 -63 -176 -122 -64 -65 -74 -80 -112 -176 -22 -58 -50 -141 -61 -185 -51
-202 -111 -612 -111 -761 0 -46 -3 -84 -6 -84 -4 0 -129 71 -280 158 l-273
157 2 1374 2 1373 325 188 c1570 908 2028 1170 2044 1170 11 0 258 -138 550
-307z"/>
<path d="M16836 11979 c-207 -28 -347 -88 -452 -193 -155 -156 -202 -360 -159
-690 49 -372 201 -702 413 -896 122 -112 220 -152 372 -153 112 0 193 19 292
68 166 84 299 224 400 422 99 192 118 292 125 640 6 306 -2 369 -59 485 -45
90 -152 195 -248 241 -129 63 -208 79 -425 82 -104 2 -221 -1 -259 -6z"/>
<path d="M8499 8147 c-24 -13 -260 -148 -524 -301 -433 -252 -1281 -741 -1875
-1083 l-225 -129 -3 -1555 -2 -1555 442 -255 c244 -141 843 -487 1333 -769
489 -283 897 -514 906 -514 9 -1 617 346 1352 769 l1336 770 1 1551 0 1552
-642 370 c-354 203 -917 528 -1253 722 -809 468 -778 450 -790 450 -7 0 -31
-10 -56 -23z m276 -453 c110 -63 639 -368 1175 -677 l975 -563 3 -1376 2
-1375 -347 -200 c-192 -111 -723 -418 -1182 -683 -572 -330 -842 -480 -856
-478 -19 4 -481 269 -2045 1173 l-315 182 -6 224 c-9 314 -10 1665 -2 2139 l6
396 1181 682 c688 397 1187 680 1196 677 8 -3 105 -57 215 -121z"/>
<path d="M8360 6919 c-550 -62 -1036 -355 -1341 -808 -225 -334 -331 -706
-316 -1106 10 -266 71 -509 186 -742 222 -451 610 -790 1081 -946 723 -240
1516 -13 2005 574 409 490 536 1154 338 1762 -47 144 -164 376 -250 496 -130
181 -317 359 -508 483 -345 225 -793 332 -1195 287z m455 -134 c125 -19 271
-58 352 -95 62 -28 177 -101 223 -140 l25 -22 -30 -24 c-99 -79 -176 -94 -265
-52 -83 39 -93 49 -99 104 -6 46 -8 49 -37 52 -19 2 -70 -13 -132 -37 -55 -23
-107 -41 -115 -41 -8 0 -36 9 -62 21 -54 24 -83 20 -133 -17 -54 -42 -72 -90
-69 -186 2 -80 0 -87 -42 -178 -25 -52 -48 -99 -52 -103 -3 -5 -30 11 -60 35
-42 34 -55 52 -64 88 -7 25 -19 60 -29 78 l-17 32 -32 -16 c-104 -53 -166
-123 -181 -207 l-7 -38 43 6 c36 5 47 3 68 -15 14 -13 40 -29 59 -37 l34 -14
-39 -40 c-54 -56 -66 -61 -116 -50 -31 7 -46 7 -55 -2 -6 -7 -13 -55 -15 -111
l-3 -99 46 -13 c50 -15 65 -34 49 -64 -9 -17 -71 -45 -115 -52 -12 -2 -30 -22
-45 -49 -14 -26 -43 -67 -66 -91 -32 -34 -43 -56 -49 -94 -4 -27 -14 -62 -22
-78 -17 -33 -23 -158 -11 -230 7 -40 5 -54 -11 -80 -23 -38 -16 -61 33 -104
40 -35 97 -54 234 -77 86 -15 101 -15 171 -1 110 23 147 21 176 -8 27 -27 66
-100 96 -183 15 -37 41 -77 80 -119 83 -89 106 -179 78 -301 -10 -44 -9 -57
15 -125 14 -42 26 -94 26 -115 1 -77 54 -175 119 -219 41 -28 51 -30 51 -10 0
8 11 28 25 45 20 23 39 32 83 41 95 18 130 32 173 68 45 39 126 170 135 220 8
43 22 37 58 -26 41 -72 109 -95 139 -48 9 14 30 26 50 30 19 4 40 13 46 20 11
13 36 110 48 189 l6 37 -66 0 c-38 0 -84 7 -107 16 l-40 16 0 63 c0 87 14 122
60 145 40 20 70 53 110 119 13 23 50 62 81 87 32 25 64 60 73 77 13 28 13 34
-1 57 -14 24 -14 30 1 58 31 60 -4 82 -129 82 -54 0 -99 6 -124 16 -36 14 -45
25 -86 109 -49 100 -63 175 -51 259 8 53 21 53 30 -1 17 -92 38 -135 101 -199
35 -35 68 -78 75 -95 11 -25 17 -29 39 -25 14 3 49 8 76 12 66 8 140 49 166
91 12 18 27 61 35 94 8 33 21 73 29 90 15 28 17 29 43 15 15 -7 47 -17 72 -21
63 -10 77 -20 102 -68 17 -33 23 -64 26 -144 4 -96 6 -103 33 -129 22 -21 29
-37 29 -64 0 -23 7 -43 19 -54 18 -16 20 -15 42 20 21 34 22 41 11 94 -15 68
0 153 31 185 19 20 19 19 14 -135 -10 -295 -71 -509 -150 -525 -73 -16 -101
-69 -99 -190 0 -51 -4 -101 -11 -116 -23 -50 -114 -117 -182 -133 -38 -10 -55
-24 -55 -46 0 -10 -11 -42 -25 -71 -13 -30 -27 -72 -31 -95 -5 -36 -15 -48
-87 -106 -211 -170 -475 -294 -745 -349 -127 -26 -422 -36 -559 -19 -285 35
-574 151 -803 320 -57 43 -80 66 -80 82 0 12 -15 36 -35 54 -46 42 -45 66 9
148 l44 68 -19 56 c-18 50 -19 73 -14 192 6 121 5 139 -12 170 -23 41 -140
123 -163 114 -8 -3 -32 -8 -53 -11 -36 -5 -41 -3 -98 58 -64 67 -79 93 -79
138 0 38 -28 60 -89 70 -28 4 -60 16 -71 26 -74 67 -59 447 30 745 27 90 57
122 149 159 52 21 71 35 96 71 l31 45 92 10 c112 12 123 21 134 112 9 81 25
99 93 112 28 5 64 17 80 25 35 18 59 20 85 6 43 -23 34 78 -12 143 -21 29 -20
47 3 105 12 28 11 39 -4 80 -10 26 -21 54 -23 63 -4 11 20 29 88 66 173 95
349 157 548 193 135 24 412 26 555 5z m733 -375 c34 -22 62 -41 62 -42 0 -2
-42 -3 -94 -3 -88 0 -98 -2 -165 -37 -39 -20 -71 -34 -71 -31 0 3 9 16 20 30
11 14 20 35 20 47 0 15 14 28 53 48 73 37 102 35 175 -12z m-790 -56 c63 -36
74 -55 50 -86 -17 -20 -105 -49 -132 -43 -11 3 -46 -1 -76 -9 -30 -8 -57 -13
-58 -11 -2 2 21 15 51 30 81 38 101 80 72 149 -10 24 3 20 93 -30z m-176 -528
c32 -14 68 -40 86 -62 24 -28 36 -35 53 -31 12 3 55 -5 96 -18 41 -14 116 -32
166 -40 93 -16 153 -39 195 -75 21 -17 23 -25 17 -60 -16 -97 -99 -132 -164
-68 -18 18 -41 49 -52 70 -30 58 -73 67 -202 40 -99 -21 -103 -21 -127 -4 -14
11 -42 43 -63 73 -44 64 -72 78 -150 79 -32 0 -74 7 -94 15 l-36 15 23 25 c18
19 34 25 69 25 35 0 96 19 127 39 1 1 26 -10 56 -23z"/>
</g>
</svg>
