<?xml version="1.0" encoding="utf-8"?>
<!-- Generator: Adobe Illustrator 18.1.1, SVG Export Plug-In . SVG Version: 6.00 Build 0)  -->
<svg version="1.1" id="Layer_1" xmlns="http://www.w3.org/2000/svg" xmlns:xlink="http://www.w3.org/1999/xlink" x="0px" y="0px"
	 viewBox="0 0 1359.5 770" enable-background="new 0 0 1359.5 770" xml:space="preserve">
<g>
	<g>
		<path fill="#005A51" d="M270.5,74.5c43-24.8,86-49.7,129-74.5c43,24.9,86,49.6,129,74.5c0,49.7,0,99.4,0,149.1
			c-42.6,24.5-85.1,49.1-127.6,73.7c-1.2,1.1-2.6,0.1-3.8-0.5c-42.2-24.5-84.5-48.7-126.6-73.2C270.5,173.8,270.5,124.2,270.5,74.5z
			 M285.5,83.2c0,43.9,0,87.8,0,131.7c38,21.9,76,43.9,114,65.8c38-21.9,76-43.9,114-65.8c0-43.9,0-87.8,0-131.7
			c-38-21.9-76-43.8-114-65.8C361.5,39.3,323.5,61.3,285.5,83.2z"/>
	</g>
	<g>
		<path fill="#005A51" d="M360.2,73.6c13-8.7,28.9-12.6,44.5-11.6C421,62.7,438,67.5,450,79c10.4,9.8,15.7,24,16.3,38.1
			c0.2,6.2,0.7,12.8,4.6,18c3.4,5.8,9.9,9.4,11.8,16.2c0.9,2.3-0.5,4.9-2.6,6c-3.1,1.8-6.1,3.7-8.9,6c1.4,2.5,2.8,4.9,4.3,7.3
			c-2.5,1.5-5.2,2.8-7.7,4.4c2.3,2,4.3,4.4,5.6,7.2c-1.7,2-3.6,3.8-4.9,6.1c-1.3,4.8,3.5,9,2.1,13.9c-1.3,4.2-5.4,7.4-9.7,8
			c-10.7,1.2-21.4-0.7-32.1-1.5c-2.2,0-6.2-0.3-6.3,2.8c-0.5,6-0.1,12.1-0.4,18.1c-22.3,0.3-44.6,0.3-66.9,0.4
			c1.5-12.6,3.6-25.2,4.8-37.9c-2.1-13.4-10.8-24.1-18.1-35c-4.9-6.3-8.3-13.9-8.8-21.9c-0.5-9-0.7-18.3,1.7-27.1
			C338.6,94,348.1,81.7,360.2,73.6z M374.4,81.8c-0.3,1.1-0.5,2.2-0.6,3.2c-1.5,0.7-3,1.3-4.5,2c-1-0.8-2-1.6-3-2.4
			c-1,1-1.9,2.1-2.6,3.3c0.6,0.6,1.8,1.7,2.4,2.3c-0.6,1.5-1.3,3-1.9,4.6c-1.3,0.4-2.6,0.4-3.8,1.1c-0.3,1.2-0.3,2.4-0.3,3.7
			c1.3,0.2,2.6,0.3,3.9,0.5c0.9,1.9,1.7,3.8,2.6,5.6c-0.8,0.9-1.6,1.9-2.4,2.8c0.9,1.1,2.1,2.1,3.3,2.9c0.8-0.9,1.6-1.8,2.3-2.7
			c1.4,0.5,2.7,1,4.1,1.5c0.1,1.2,0.3,2.3,0.4,3.5c1.4,0.1,2.7,0.3,4.1,0.1c0.3-1.2,0.6-2.4,0.8-3.5c1.6-0.7,3.1-1.3,4.7-2
			c1,0.8,2,1.6,3,2.4c2.8-1.2,2.7-4.1,0.5-5.9c0.6-1.6,1.3-3.2,1.9-4.8c0.9,0,2.7-0.1,3.6-0.1c0.1-1.1,0.5-2.2,0.4-3.3
			c-0.6-1.8-2.8-1.3-4.3-1.8c-0.3-1.3-1.1-2.6-1.1-4c0.7-1,1.5-1.9,2.2-2.9c-0.8-0.9-1.6-1.7-2.6-2.4c-1.1,0.5-2.2,1.2-3.2,1.9
			c-1.8-0.8-3.6-1.6-5.5-2.4c-0.2-1.3-0.4-2.5-0.6-3.8C377.1,81.3,375.7,81.1,374.4,81.8z M409.4,89.5c-2.1,1.8,0,4.2,0.5,6.3
			c-1.9,1.8-3.6,3.7-5.3,5.7c-2.5-1.1-6.6-2.1-7.2,1.7c-1.2,3.2,2.4,4.2,4.6,5.1c0,2.6,0.1,5.3,0.3,7.9c-1.7,1.1-4.3,1.5-4.6,3.8
			c0.2,1.3,0.6,2.7,1.7,3.6c1.8,1.7,4-0.3,5.9-0.8c2.1,2.2,4.4,4.2,6.8,5.9c-0.4,1.4-0.9,2.8-1,4.3c0.3,2.5,4,3.9,5.9,2.3
			c1.1-1.3,1.5-2.9,2.2-4.4c2.2-0.1,4.3-0.2,6.5-0.4c1,2.3,2.6,5.9,5.8,4.2c3.5-1.1,2-4.8,0.9-7.2c1.9-1.8,3.6-3.7,5.3-5.7
			c1.7,0.4,3.3,1.3,5.1,1.1c1.7-0.9,2.4-2.9,2.4-4.7c-0.8-2-3.1-2.4-4.8-3.3c0-2.6,0-5.2-0.3-7.8c1.4-0.8,3.1-1.4,4.2-2.6
			c0.6-1.6,0.1-3.4-1.1-4.6c-1.7-1.9-4.3,0.1-6.2,0.5c-1.5-1.5-3-3-4.5-4.4c0.6-2.4,2.4-6.1-0.9-7.3c-3.1-1.9-5,1.6-5.8,4.1
			c-3-0.2-6.1-0.2-9.1,0c-0.9-1.5-1.4-3.4-2.9-4.4C412.1,87.9,410.4,88.4,409.4,89.5z M376.3,120.6c-0.3,1.3-0.4,2.6-0.5,3.9
			c-1.8,0.8-3.6,1.7-5.5,2.5c-1.4-1.7-4.1-3.9-5.8-1.1c-1.9,2,0.6,3.8,1.8,5.3c-0.8,1.9-1.6,3.8-2.3,5.7c-2.1,0.2-5.5,0.2-5.6,3.2
			c-0.5,3.3,3.1,3.9,5.6,3.9c0.9,2.2,1.9,4.3,3,6.4c-0.9,1.2-1.9,2.4-2.8,3.6c0.9,0.9,1.5,2.2,2.7,2.8c2,0.7,3.1-1.5,4.5-2.6
			c1.5,0.6,3,1.3,4.6,1.9c0.1,1.5,0.2,3,0.3,4.5c1.9,0.5,4.2,1.1,5.9-0.3c0.5-1.4,0.5-2.9,0.7-4.3c2-0.8,4-1.6,6-2.4
			c1.5,1.4,4.1,3.7,5.9,1.3c2.1-1.9-0.3-4.2-1.2-6c0.7-1.7,1.4-3.4,2.1-5.2c2.4-0.1,6.1-0.3,5.6-3.7c-0.2-3-3.4-3.1-5.6-3.3
			c-0.6-1.6-1.3-3.2-1.9-4.8c0.9-1.3,2.6-2.3,2.7-3.9c-0.3-1.8-2.1-2.5-3.3-3.4c-1.1,0.9-2.3,1.8-3.4,2.8c-2.2-1.3-4.5-2.3-7-3.2
			c-0.4-1.6,0.3-4.1-1.8-4.7C379.3,119.5,377.5,119.4,376.3,120.6z"/>
	</g>
	<path fill="#005A51" d="M374,91.3c4.5-2.2,10.3,2,9.7,7c-0.2,5.1-7.1,8.3-11.1,5C368.4,100.3,369.1,93.1,374,91.3z"/>
	<path fill="#005A51" d="M418.1,101.7c7.3-2.5,15.1,5,12.9,12.4c-1.5,7.2-11.3,10.4-16.7,5.4C408.2,114.7,410.5,103.5,418.1,101.7z"
		/>
	<path fill="#005A51" d="M376.1,132.5c5-2.6,11.7,1.1,12.2,6.7c0.9,5.4-4.3,10.6-9.7,9.7c-4.3-0.4-7.7-4.5-7.5-8.7
		C371.1,137,373.2,133.9,376.1,132.5z"/>
</g>
<g>
	<g>
		<path fill="#EEB422" d="M256.5,239.9c2.6-1.3,4.9-3.5,7.9-3.9c3.5,1.4,6.5,3.6,9.7,5.3c39.6,22.8,79.2,45.8,118.9,68.5
			c0.1,49.8,0.1,99.5,0,149.3c-42.5,24.5-85,49.1-127.5,73.6c-0.9,0.7-2,0.7-2.8,0c-42.5-24.6-85.1-49.1-127.6-73.7
			c0-49.8-0.1-99.6,0.1-149.3C175.6,286.8,216,263.3,256.5,239.9z M257.4,256.8c-35.8,20.7-71.6,41.3-107.4,62
			c0,43.9,0,87.8,0,131.7c37,21.4,74,42.7,110.9,64.1c1.4,0.8,3.2,2,4.8,0.7c37.4-21.6,74.9-43.2,112.3-64.8c0-43.9,0-87.8,0-131.6
			C342,298,306,277.3,270,256.5c-2.1-1.1-4-2.6-6.3-3.2C261.5,254.2,259.5,255.6,257.4,256.8z"/>
	</g>
	<g>
		<path fill="#EEB422" d="M249,296.7c18.8-2.9,38.5,0.5,55.2,9.6c16.9,9.2,30.6,24.1,38.3,41.7c7.5,17.1,9.4,36.7,5.1,54.9
			c-4.3,18.8-15,36-30,48.1c-15.4,12.6-35.2,19.7-55.1,19.6c-19.7,0.2-39.3-6.6-54.7-19c-14.8-11.7-25.6-28.4-30.2-46.7
			c-5.1-19.4-3.1-40.5,5.3-58.7C194.9,320.1,220.6,301,249,296.7z M254,312.8c-18.2,2.2-35.3,11.7-46.8,25.9
			c-10,12.4-15.9,28.3-15.6,44.3c-0.3,17,6.2,33.8,17.3,46.6c11.2,13.1,27.4,21.8,44.5,23.9c16.1,2.2,32.8-1.6,46.5-10.2
			c12.8-8,23-20.2,28.5-34.3c6.3-15.8,6.5-34,0.7-49.9c-4.8-13.1-13.4-24.8-24.6-33C290.1,315.5,271.7,310.6,254,312.8z"/>
	</g>
	<g>
		<path fill="#EEB422" d="M252,316.7c15.9-2.5,32.6,1,46.2,9.6c13.2,8.2,23.2,21.1,28,35.8c4.8,14.1,4.5,29.9-0.6,43.9
			c-4.9,13.9-14.7,26.1-27.2,33.9c-13.4,8.6-30,12.2-45.7,9.8c-15-2.1-29.1-9.5-39.4-20.6c-11.9-12.6-18.6-29.9-18.2-47.2
			c0.4-13.3,4.4-26.5,12.1-37.4C217.6,329.8,234.1,319.5,252,316.7z M264.7,341.7c2.1,2.4,5.3,1.6,7.9,0.5c0.5-1.1,1-2.1,1.4-3.2
			c1.5,1.8,2.8,4.2,5.4,4.2c1.4-0.3,2.9-0.8,4.3-1.3c0.7,3.3,2.9,5.7,6.2,6.4c-0.1,2.4-1.1,5.4,1,7.2c1.8,2.1,4.7,1.1,7,0.9
			c-0.2,4.1,3,7.3,7.1,7.3c-0.2,3,0.8,5.8,3.1,7.7c-2.2,1.5-3.9,3.5-4.6,6.1c-2-0.8-4.2-1.2-6.4-1.3c-0.1-2.4,0.4-5.4-2-6.9
			c-1.8-1.5-4.2-0.6-6.2-0.4c-0.1-3.5-2.4-7.6-6.4-7c-4.9,0.4-6,7.9-2,10.2c1.8,0.7,3.8,0.3,5.7,0.2c0.5,1.7,0.4,3.8,1.8,5.1
			c1.5,1.6,4,1.4,6,1.8c-0.5,3.4,1.2,7.9,5.3,7.6c3.4,0.3,4.8-3.1,5.8-5.7c1.4,0.4,2.8,0.9,4.2,1.2c3.2,0.1,6-3.3,5.2-6.5
			c-0.7-1.7-2-3-3.1-4.3c2.8-1.2,5.5-4.3,3.8-7.5c-1-2.8-4.1-3.2-6.6-3.5c0.1-2.4,0.3-5.3-1.8-6.9c-1.9-1.6-4.4-0.8-6.6-0.4
			c0.3-3.9-2.5-6.7-6.1-7.7c0.6-2.4,1.1-5.4-1.2-7.1c-2.2-2.1-5.3-1-7.7,0c-0.8-2.5-1.8-5.7-4.9-6c-2.7-0.7-4.5,1.8-6.3,3.4
			c-2-1.5-4.1-4-6.9-3.1C263.6,333.6,261.8,338.9,264.7,341.7z M231.1,349.6c-4.9,6.1-8.4,13.6-9,21.5c-0.3,2.9,0.5,5.8,0,8.6
			c-1.7,2.2-4.1,4-5.1,6.6c-1.6,4.6,0.8,9.9-2.1,14.2c-0.6,1.2-2.1,2.7-0.5,3.9c2.9,0.6,4.7-2.8,5.4-5.2c0.8-5.3-0.9-11.4,3.3-15.6
			c-0.4,2.1-0.9,4.2-1,6.4c0.1,3.1,1.6,6,1.9,9c-0.2,2.3-1.1,4.5-1.3,6.8c0.5,1.2,2,0.5,3,0.8c4.6-6.3-0.7-13.5,0.3-20.3
			c0.7,2.1,1.1,4.2,1.9,6.2c1.5,3,4.4,5.1,5.8,8.3c0.6,2.1,0.6,4.3,0.8,6.5c1.1-0.8,3.5-0.3,3.4-2.1c1.1-5.1-2.8-9.1-5.7-12.7
			c-2.2-2.3-1.4-5.6-1.2-8.4c4.6-2.3,8.6-5.8,11.3-10.2c4.5-7.1,7.3-15.8,5.8-24.2c-0.5-3.4-3.6-6.8-7.3-6.2
			C236.8,344.1,233.6,346.7,231.1,349.6z M266.7,368c-0.3,2.4,1.6,4.1,2.7,6c-2.3,1.8-4.8,4.4-3.4,7.6c1.1,3.5,5.2,3.6,8.1,2.8
			c0.4,2.5,0.5,5.9,3.4,6.9c4.2,2,9.2-3,7.1-7.2c-1.3-3.3-5.2-3.5-8.1-2.6c-0.1-2.7-1.2-5.1-2.8-7.1c1.5-1.5,3-3.2,4.3-4.9
			c-1-1.9-1.3-4.5-3.4-5.5C271.5,362.2,266.9,364.3,266.7,368z M252,399.4c-1.7,2.6-1.2,5.9-2.6,8.6c-2,2.7-5.2,4.6-6.3,8
			c-1,4.9,2.5,10.4,7.4,11.4c3.9-0.4,7.8-2.5,11.8-1.1c4,0.8,6.8,3.7,9.5,6.5c4.6,5.2,16.1,1.8,15.3-5.7c0.1-3.1-0.9-6.6,1.3-9.2
			c1.9-2.6,5.5-2.3,8.3-2c2.4,0.3,3.9,3.5,6.3,2.6c0.4-1.4,0.4-2.9-0.8-3.9c-3-3-7.6-2.2-11.4-3c2-1.5,3.9-3.2,6.3-3.9
			c2.4-0.5,4.8-0.2,7.2-0.1c-0.3-1.1,0.5-2.8-0.8-3.3c-4.4-2.4-9,0.9-13.1,2.5c-2.3,0.1-4.3-2-6.7-1.4c-3.3,0.8-6.8,3-10.2,1.1
			c-4.2-1.4-4.6-6.8-8.4-8.7C260.8,395.4,255,395.8,252,399.4z"/>
	</g>
	<path fill="#EEB422" d="M232.7,366.1c3.6-1.8,8.2,1.7,7.7,5.6c0,4.8-7,6.8-9.8,3.1C228.2,372.2,229.4,367.5,232.7,366.1z"/>
	<path fill="#EEB422" d="M256.8,405.5c3.7-2.5,9.3,1.3,8.3,5.6c-0.3,4.3-6.2,6.1-9.2,3.4C253.2,412.1,253.7,407.2,256.8,405.5z"/>
</g>
<g>
	<g>
		<path fill="#DC3546" d="M406.5,310.1c43-24.8,86-49.7,129-74.5c43,24.9,86,49.6,129,74.5c0,49.7,0.1,99.5,0,149.2
			c-43,24.7-85.9,49.6-128.9,74.3c-43-24.8-86-49.6-129-74.5C406.5,409.5,406.5,359.8,406.5,310.1z M421.5,318.8
			c0,43.9,0.1,87.7,0,131.6c38,22.1,76,43.9,114,65.9c38-21.9,75.9-43.9,113.9-65.8c0.1-43.9,0.1-87.9,0-131.8
			c-38-21.8-75.9-43.8-113.9-65.7C497.5,274.9,459.5,296.9,421.5,318.8z"/>
	</g>
	<g>
		<path fill="#DC3546" d="M541.2,314.7c15.7-4.5,33.6,3.3,41.4,17.5c5.8,10.4,6.1,23.6,0.5,34.1c-2.1,4-5.1,7.5-8,10.9
			c-20.3,24.1-40.4,48.3-60.7,72.3c-10.4,12.1-29.2,15.4-43.3,8c-8.8-4.6-15.8-12.8-18.5-22.4c-3.3-11.1-0.8-23.9,6.7-32.8
			c21.1-25.2,42.2-50.4,63.3-75.6C527.4,321,533.9,316.7,541.2,314.7z M527.7,335c-20.4,24.3-40.8,48.6-61.2,72.9
			c-6.1,7.1-8.1,17.4-4.8,26.3c3.9,11.4,16,19.4,28,18.4c7.3-0.6,14.2-4.2,18.8-9.9c10.4-12.5,21-24.9,31.3-37.5
			c-12.6-10.4-25-21-37.5-31.4c9.7-12,19.8-23.7,29.7-35.6c7.6-9,19.9-12.6,31.4-11.8C551.2,321.8,536.3,324.9,527.7,335z"/>
	</g>
	<g>
		<path fill="#DC3546" d="M528.8,440.2c14.8-17.1,29-34.6,43.6-51.7c10.6,4.1,19.2,13.4,22,24.5c3.9,14.2-2,30.4-14.2,38.6
			c-13.1,9.4-32.5,8.3-44.4-2.6C533,446.4,530.7,443.4,528.8,440.2z M570.4,406.7c-10.8,13.2-22.3,26-32.8,39.5
			c3.4-3.6,6.4-7.6,9.7-11.3c10.8-13.1,22-25.8,32.6-39.1C576.4,399.1,573.5,403,570.4,406.7z M581.9,398
			c-14,16.3-27.8,32.8-41.4,49.4c6.3-6.6,11.8-13.9,17.8-20.8C566,417,574.4,407.9,581.9,398z M592.4,421.7c-1,4.1-1.7,8.3-3.5,12.2
			c-4.5,9.6-13.2,17-23.3,20.1c8.1-1.4,15.6-6.1,20.4-12.8C590.2,435.6,592,428.6,592.4,421.7z"/>
	</g>
	<path fill="#DC3546" d="M500.4,436.6c9-10.3,17.6-20.9,26.4-31.3c1.4,1.1,2.8,2.3,4.1,3.4c-8.5,10.3-17.1,20.5-25.7,30.7
		c-7.5,8.6-21,11.1-31.2,6.1C483.4,446,493.8,444,500.4,436.6z"/>
</g>
<g>
	<g>
		<path fill="#007AFF" d="M677.5,310.1c43-24.9,86.1-49.7,129.1-74.6c43,24.8,86,49.7,129,74.5c0,46.7,0,93.4,0,140
			c-0.3,3,0.8,6.7-0.6,9.3c-42.7,24.9-85.7,49.5-128.4,74.3c-43.1-24.8-86.1-49.7-129.1-74.5C677.5,409.4,677.5,359.7,677.5,310.1z
			 M804.6,254.1c-37.3,21.6-74.7,43.1-112.1,64.8c0,43.8,0,87.6,0,131.5c8.9,5.3,18,10.3,26.9,15.6c-0.3-8.4,1.3-16.6,2.3-24.9
			c1.5-9.4,3.3-19,7.3-27.7c2.4-5.4,7.4-9,12.6-11.4c6.4-3,13-5.6,20-6.8c-5.5,16.9-5.2,35.3-1.2,52.4c0.9,4.2,2.9,8.1,3.1,12.4
			c-1.2,2.5-2.8,5.2-1.9,8.1c0.8,5.8,7.8,9.1,13,6.8c5.4-1.8,7.8-9.3,4.2-13.9c-1.9-3.1-5.5-4.2-8.9-4.6c-2.3-6.6-4.6-13.3-4.9-20.3
			c-1.7-13.2-1.2-27,3-39.7c1.3-5.1,7.2-5.4,11.4-6.5c3,13.6,10,25.8,16.8,37.8c0.8-4.9,1.8-9.8,2.7-14.6c0.8-3-0.9-5.8-2-8.4
			c2.7-2.3,5.3-4.7,8.3-6.6c2.4,2.3,4.9,4.5,7.5,6.6c-0.8,2.4-2.4,4.8-1.8,7.5c0.5,5.1,1.9,10.2,2.5,15.3
			c7.3-11.7,13.3-24.3,17.3-37.6c4.4,1,8.6,2.7,13,3.8c1.6,7.5,1.1,15.2-0.6,22.6c-3.2,0.2-6.6,0.2-9.6,1.5
			c-5.6,2.6-9.7,7.6-11.6,13.5c-2.7,8.1-6.2,15.9-8.5,24.2c-1,4.2-2.1,8.9,0.1,12.9c2.1,3.4,6.2,6,10.2,5.3c2.2-0.5,1.9-3.1,1.2-4.7
			c-1.4-2.2-5.8-1.7-5.9-5c-0.5-7.1,2.6-13.8,5.1-20.3c1.7-3.9,2.8-8,4.3-12c2.3-5.5,8.1-9.7,14.2-9.2c5.9,0.3,11.4,4.8,12.5,10.7
			c0.9,4.9-0.2,9.9-0.6,14.9c-0.7,7.4-0.4,15.3-3.7,22.2c-1.8,3.8-6.8,1.3-9.5,3.6c-0.2,1.5-0.7,3.6,1.1,4.4
			c4.4,1.3,10.6,1.4,13.2-3.2c4.8-8.1,4.5-18,5.2-27.1c0.2-6.4,2.2-13-0.1-19.2c-2-5.3-6.8-8.7-11.5-11.4c1.4-7.1,2.3-14.5,1.2-21.8
			c7.7,1.8,15.2,4.6,22,8.7c4.4,2.6,7.5,6.8,9.3,11.5c2.6,6.9,4.3,14.1,5.6,21.4c1.8,9.8,2,19.9,5,29.5c9.4-5.4,18.7-10.9,28.1-16.1
			c0.1-2.8,0.2-5.7,0.2-8.5c-0.2-41.2,0.1-82.3-0.2-123.5c-37.6-21.5-75-43.3-112.5-64.8C806.8,252.7,805.6,253.4,804.6,254.1z"/>
	</g>
	<path fill="#007AFF" d="M788.1,291.6c7.8-2.5,20.6-2.6,27.4-1.9c16.9,1.6,28,12.1,28.5,28.2c0.1,12.7,0.6,25.9-4.5,37.8
		c-4.5,10.3-12,19.9-22.5,24.5c-8.7,3.9-19.6,3.6-27.3-2.3c-7.1-5.5-12.4-13-16-21.1c-4.8-10.6-7.2-22.3-7.6-33.9
		c-0.3-7.1,1.3-14.4,5.4-20.3C775.2,297,781.4,293.2,788.1,291.6z"/>
</g>
<g>
	<g>
		<path fill="#FF9A66" d="M542.5,546.9c43.1-24.8,86.1-49.9,129.3-74.5c42.9,24.9,85.8,49.6,128.8,74.3c0.2,49.8,0,99.5,0.1,149.3
			c-40.3,23.3-80.7,46.6-121,69.9c-2.6,1.4-5,3.2-7.8,4.2c-3.3-0.9-6.1-3.2-9.2-4.8c-40-23.1-80-46.3-120.1-69.3
			C542.4,646.3,542.5,596.6,542.5,546.9z M665.9,493c-36.1,20.9-72.3,41.7-108.4,62.7c0.1,43.8,0,87.6,0,131.5
			c38.1,21.9,76.1,44,114.2,65.9c37.9-22,75.8-43.9,113.8-65.7c0.1-43.9,0.1-87.9,0-131.8c-37.5-21.5-74.8-43.2-112.3-64.8
			C670.7,489.1,668.2,492,665.9,493z"/>
	</g>
	<g>
		<path fill="#FF9A66" d="M636.3,538.6c30.2-0.5,60.5-0.2,90.7-0.3c5.1-0.2,10,2.8,12.3,7.3c2.2,4,1.8,8.9,0.4,13.2
			c-9.4,31.1-18.8,62.1-28.2,93.2c-1.7,5.1-3.3,10.6-7.1,14.6c-4.3,3.6-10.3,3.3-15.5,3.4c-28.3-0.1-56.7,0-85-0.1
			c-2.4,0-5.9,0-6.4,3.1c0,3.4,2.2,6.7,5.4,8.1c3.4,1.7,7.3,1.8,11,1.8c31,0,62,0,93,0c4.3,0.3,9.2-2,10.2-6.5
			c9.7-31.8,19.3-63.6,29-95.3c1.3-3.6,2.1-7.4,2.4-11.2c6.8,2.5,10.3,10.4,7.9,17.2c-9.2,30.6-18.5,61.2-27.8,91.8
			c-2.1,9.8-11.5,17.8-21.7,17.5c-31,0-62,0-93.1,0c-12.8,0.4-24.9-9.7-27.6-22.1c-1.5-5.7,1.6-11.3,1.2-17.1c0-2.2-0.8-4.8,0.9-6.6
			c4.7-6.3,7.9-13.5,10.2-21c1.2-3.5-0.5-7.8,2.1-10.7c3.9-5.1,6.1-11.2,7.9-17.2c1.1-3.3,0.4-6.9,0.6-10.3c1.6-2.9,4.5-4.9,6-7.8
			c2.1-4.1,3.8-8.4,5-12.8c0.8-3,0-6.1,0.3-9.1c2-3.5,5.2-6.3,6.6-10.2C629.1,546.5,630.8,540.5,636.3,538.6z M645.3,577.5
			c20.5,0.3,41.1,0,61.6,0.1c2.2,0,5.2,0.3,6.4-2c1.6-3,2.6-6.3,3.1-9.7c-1.1-1.4-3-1.3-4.5-1.3c-19.6,0-39.3,0-58.9,0
			C646.4,564.2,645.3,572.7,645.3,577.5z M639.6,592.7c-1.6,2.9-2.5,6.2-3.2,9.5c0.3,2.2,2.9,1.6,4.5,1.8c19.3,0,38.7-0.1,58,0.1
			c2.1-0.1,4.8,0,6-2.2c1.7-3.3,2.7-6.9,2.9-10.6c-5.3-0.8-10.6-0.4-15.8-0.5c-15.3,0-30.7,0-46,0C643.7,591,641,590.7,639.6,592.7z
			"/>
	</g>
</g>
<g>
	<g>
		<path fill="#3677A2" d="M0,75.4C42.9,50.6,85.9,25.8,128.9,1c42.9,24.8,85.9,49.6,128.8,74.4c0,49.6,0,99.1,0,148.7
			c-42.9,24.8-85.9,49.6-128.8,74.4c-42.1-24.3-84.2-48.6-126.3-72.9c-0.9-0.5-1.8-1.1-2.6-1.7V75.4z M14.5,83.7
			c0,44-0.1,88.1,0,132.1c38.1,22,76.2,44,114.4,66c38.2-22.1,76.4-44,114.5-66.1c-0.1-44,0.1-88-0.1-132
			c-38.2-21.9-76.3-44-114.4-66C90.8,39.6,52.7,61.6,14.5,83.7z"/>
	</g>
	<g>
		<path fill="#3677A2" d="M104.6,59.3c13.2-1.5,26.9,1.1,38.5,7.5c13.7,7.3,24.6,19.7,30.1,34.2c5.5,14.1,5.8,30.1,1,44.5
			c-4.1,12.5-12.1,23.6-22.6,31.5c-10.2,7.8-22.7,12.4-35.5,13.2c-17.6,1.3-35.5-5.1-48.5-16.9c-9.9-9-17-21.1-19.9-34.2
			c-3.3-14.7-1.4-30.5,5.3-44C62.7,75.5,82.8,61.5,104.6,59.3z M102.9,68.7C87.7,71.1,73.7,80,65.1,92.8
			c-7.1,10.4-10.6,23.3-9.7,35.9c1,13.5,7,26.7,16.7,36.1c10.6,10.7,25.8,16.7,40.8,16.4c10.7-0.3,21.3-3.6,30.2-9.5
			c11.2-7.4,19.5-18.9,23.1-31.8c3.8-13.2,2.5-27.9-3.6-40.2c-5.4-11.2-14.7-20.5-25.9-25.9C126.4,68.6,114.4,66.8,102.9,68.7z"/>
	</g>
	<path fill="#3677A2" d="M123.4,79.6c0.2-1.5,0-3.1,0.3-4.6c4.1,1,8.1,2.5,11.8,4.4c0,13.1-6.4,26.4-17.7,33.4
		c-3.9-1.9-7.5-4.3-11.2-6.4c7.4-5,14.3-11.7,16.1-20.8c-10.7-0.2-21.3,0.1-32-0.1c-3.2-0.2-3.2-5.7,0-5.8
		C101.6,79.5,112.5,79.7,123.4,79.6z"/>
	<path fill="#3677A2" d="M71,94c2.2-2.9,4.8-5.6,7.5-8c0.7,1.7,1.4,3.5,2,5.3c9.2,0.3,18.5,0,27.7,0.1c1.3-0.1,2.3,0.8,3.3,1.5
		c-0.2,1.7-0.3,4.3-2.6,4.4c-8,0.3-16.1-0.3-24.2,0.4c7.5,8.9,18.5,13.3,28.1,19.3c8.9,5.3,17.7,12.5,20.9,22.8
		c2.9,10,2.2,21.5-3.4,30.4c-0.9,1.4-2,3-3.8,3.4c-6.4,1.9-13.3,2.5-20,1.9c4.7-3.3,9.6-6.5,12.9-11.4c2.1-2.9,3.3-6.3,3.8-9.8
		c-10.4-0.2-20.7,0-31.1-0.1c-1.8,0.3-3.6-1.3-3.5-3.1c0-1.8,1.8-3.2,3.6-3c10.3,0,20.7,0.1,31,0c-1-8.3-7.1-14.6-13.8-19
		c-10.2-6.8-21.8-11.5-30.8-20c-3.6-3.5-7-7.5-8.9-12.2C69.3,95.7,70.6,94.9,71,94z"/>
	<path fill="#3677A2" d="M66.2,147.1c0.4-11.2,7.9-21.1,17.2-26.8c3.7,2.4,7.5,4.5,11.3,6.8c-3.9,2.6-7.9,5.3-11,8.9
		c7.6,0.5,15.2,0.3,22.9,0.2c1.6,0.1,3.7-0.4,4.8,1.2c1.6,1.8,0.1,5.2-2.4,5c-9.8,0.3-19.6,0-29.4,0.1c-2.1,5.5-2.2,11.7-0.1,17.3
		c10.1,0.1,20.2-0.2,30.3,0.1c3.2,0.1,3.8,5.3,0.6,6c-6,0.3-12.1,0-18.1,0.1c-3.1,0.1-6.4-0.4-9.4,0.8
		C75.9,161.7,69.6,155.1,66.2,147.1z"/>
	<path fill="#3677A2" d="M163.4,168.9c2.2-1.9,5.8,0.9,4.6,3.5c-1.4,2.3-3.6,4-5.4,6c-1.3,1.1-2.5,2.8-4.4,2.6c-2.4-0.1-3.7-3.3-2-5
		C158.6,173.6,160.9,171.2,163.4,168.9z"/>
	<path fill="#3677A2" d="M170.6,176.1c3.7-1.1,7.9,0.2,10.5,3c9.4,9.4,18.8,18.8,28.2,28.2c2.8,2.6,4.2,6.8,3.1,10.5
		c-1.2,5.1-6.8,8.6-11.9,7.5c-2.5-0.4-4.7-1.8-6.4-3.6c-9.5-9.6-19.1-19-28.5-28.6C160.4,187.8,163.3,177.8,170.6,176.1z"/>
	<path fill="#3677A2" d="M75.3,196.9c2.2-2.6,4.7-4.9,7.4-6.9c4.7,1.9,9.5,3.6,14.5,4.6c-8,5.1-15.8,11.7-18.2,21.3
		c10.2,0.2,20.3-0.1,30.5,0.1c3.4,0.4,2.9,6-0.5,6c-10.3,0.2-20.6,0-30.9,0.1c0,1.2-0.1,2.3-0.2,3.5c-3.9,0.1-7.9,0.3-11.8,0.3
		C65.5,215.4,68.3,204.7,75.3,196.9z"/>
	<path fill="#3677A2" d="M106.4,195.9c4.9,0,9.7,0.3,14.5-0.5c1.2-0.1,2.5-0.5,3.7-0.1c7.9,7.9,11.3,19.4,10.7,30.5
		c-4,0-7.9-0.1-11.9-0.3c-0.1-4.8-0.8-9.7-2.7-14.2c-9.5-1-19.1,0-28.7-0.5c-2.4,0-3.5-3.5-1.7-5c0.8-1,2.2-1,3.3-1
		c7.5,0,15,0.1,22.6,0C113.8,201,110,198.6,106.4,195.9z"/>
</g>
<g>
	<g>
		<g>
			<path fill="#00CC99" d="M369.2,537.2c14.2-5,29.7-6.2,44.6-3.6c13.1,2.2,25.6,7.5,36.4,15.2c15,10.6,26.6,26.1,32.6,43.5
				c5.2,14.9,6.2,31.3,3.1,46.8c-2.4,12.1-7.4,23.7-14.6,33.8c-7.5,10.6-17.3,19.5-28.5,25.9c-13,7.5-27.8,11.5-42.8,11.7h-2.9
				c-14.9-0.3-29.7-4.2-42.6-11.6c-18.8-10.6-33.4-28.2-40.3-48.6c-3-8.8-4.6-18.1-4.8-27.4v-2.9c0.2-6,0.8-12,2.1-17.9
				c3.1-14.4,10-27.9,19.6-39C341.3,551.3,354.5,542.3,369.2,537.2z M394.2,538.6c-14.3,0.7-28.4,5.2-40.4,13
				c0.8,1.8,1.8,3.5,2.2,5.5c0.2,1.8-1.5,3.1-1.8,4.9c0.6,1.4,1.7,2.5,2.2,3.9c0.7,1.7,1.3,3.9,0.2,5.5c-0.9-0.4-1.8-1-2.9-0.9
				c-1.9,0.2-3.3,1.8-5.2,1.9c-1.5,0.1-3.4,0.2-4.3,1.6c-1.1,2-0.3,4.5-1.1,6.6c-0.4,1.1-1.4,2.2-2.6,2.3c-2.5,0.2-5.1,0.1-7.6,0.7
				c-1.6,0.9-1.8,3-3,4.2c-2.1,1.4-4.8,1.3-6.8,3c-1,0.9-2.2,1.9-2.7,3.2c-3.6,10.2-5.1,21-4.5,31.8c0.1,1.5,0.4,2.9,0.8,4.3
				c0.6,2.2,2.8,3.8,5.1,3.6c1.4-0.2,2.9,0.5,3.6,1.7c1.2,1.4,0,3.4,1,4.8c0.6,1.2,1.9,1.8,2.9,2.7c1,1.3,1.6,3.1,3.3,3.6
				c1.6,0.4,2.9-0.8,4.5-1c1.1,0.3,2,1,3,1.6c2,1.2,4.2,2.7,4.9,5.1c1.3,4.5-0.4,9.1,0,13.6c0.1,1.7,1.1,3.2,1.5,4.9
				c0.3,1.1-0.4,2-1,2.8c-0.9,1-1.5,2.2-2.2,3.4c-0.5,0.9-1.1,2.1-0.6,3.2c0.5,1.4,2.1,1.9,3.1,2.9c0.3,0.7,0.1,1.5,0.1,2.3
				c6.6,5.4,14,9.8,21.9,13c16.5,6.7,35.2,7.8,52.4,3.1c12.8-3.4,24.8-10,34.6-19c0.1-1.4,0.1-2.8,0.7-4.1c0.5-1.4,1.4-2.6,1.8-4
				c0.3-0.9,0.2-2,0.7-2.8c0.6-0.7,1.7-0.7,2.5-0.9c1.8-0.3,3.4-1.1,4.7-2.4c1.3-1.4,3.3-2.2,4-4.1c0.8-2.5,0-5.1,0.2-7.7
				c0.1-2.5,1.2-5.1,3.4-6.4c0.9-0.6,2.2-0.2,3.1-0.8c0.8-0.9,0.8-2.4,2-3c3-9.3,4.2-19.2,3.7-29c-0.7,0.9-1.7,1.6-1.7,2.9
				c-0.1,1.3-0.7,2.5-0.8,3.8c-0.1,1.7,0.8,3.2,0.9,4.9c0,1.7-1.1,3.1-2.1,4.4c-0.7-0.4-1.7-0.8-1.9-1.8c-0.2-1.1,0.3-2.2,0.1-3.3
				c-1-1-2.5-1.7-3-3.2c-0.4-1.5-0.1-3-0.1-4.5c0.2-3-0.7-6-2.4-8.5c-1-1.4-2.8-1.4-4.3-1.6c-1.5-0.2-2.9-0.8-4.2-1.6
				c-1.5,2.4-1.9,5.3-2.6,8c-0.8,3.2-3.9,5.2-6.8,6.1c-2.4,0.6-4.9,0.4-7.3,1.2c-1-2.4-2.4-4.7-4.6-6.2c-2.9-2.1-3.9-5.7-4.5-9.1
				c-0.3-0.9-0.1-2.1-1-2.7c-0.5,3.7-0.7,7.6,0.6,11.2c0.7,2.2,2.5,3.9,3,6.2c0.5,2.1,2.9,2.6,4.7,3.1c3,0.9,6.1-0.6,9.1,0.5
				c1,0.3,1.8,1.3,1.7,2.4c-0.1,1-1,1.8-1.3,2.8c0.3,1.1,1.6,1.9,1.1,3.1c-1.1,3.4-4.8,4.8-7,7.5c-1.7,1.9-2.4,4.7-4.6,6.2
				c-1.1,0.8-2.8,1.1-3.5,2.4c-1.4,2.5-1.2,5.5-0.7,8.2c1.9,1.1,4,1.9,6.2,1.6c1.1,0,2.3-0.5,3.4,0c0.6,1.4-0.2,2.8-0.4,4.2
				c-0.7,2.4-0.5,5.1-2,7.2c-1.1,0.8-2.7,0.3-3.8,1.1c-0.7,0.4-0.9,1.2-1.3,1.9c-1.7,0.1-3.8,0.3-5-1.1c-1.4-1.6-1.8-3.8-3.4-5.3
				c-0.4,3.8-2.7,7-4.7,10.1c-1.8,2.6-4.5,4.5-7.6,5.1c-2.1,0.5-4.4,0.4-6.2,1.6c-1.3,0.8-1.7,2.4-2.2,3.8c-3.6-1.1-6-4.4-7.3-7.7
				c-1.1-2.6-0.6-5.6-1.6-8.2c-0.5-1.7-1.5-3.3-1.7-5.1c0.2-1.9,0.9-3.7,1-5.6c0.3-3.1-0.7-6.1-2-8.8c-0.7-1.4-2.1-2.1-3.1-3.2
				c-1.4-1.3-2.3-3-2.9-4.8c-1-3-2.3-6.1-4.3-8.6c-1.1-1.4-3.1-1.8-4.8-1.5c-2.1,0.4-4.1,1.2-6.3,1.3c-4.3,0.3-8.4-0.9-12.6-1.9
				c-2.2-0.4-4.2-1.5-5.6-3.3c-0.7-0.8-1.3-1.8-1.3-2.8c0.3-1.2,1.5-1.9,1.6-3.1c0.1-2-1.1-4-0.4-5.9c0.6-1.7-0.4-3.5-0.1-5.2
				c0.2-1.1,0.9-2.1,1.4-3.1c0.6-1.8,0.5-3.9,1.3-5.6c0.8-1.6,2.7-2.2,3.6-3.8c1-1.4,1.1-3.4,2.6-4.4c2-0.4,4.3-0.7,5.9-2.1
				c0.6-0.6,1-1.6,0.3-2.3c-1.3-1.3-3.5-1-4.9-2.1c0.2-1.7,0.8-3.4,0.8-5.2c0.1-1.5-0.3-3.1,0.2-4.6c0.4-0.9,1.4-0.6,2.2-0.5
				c1.5,0.3,3.3,0.9,4.5-0.2c1.3-1.2,2.5-2.5,3.6-3.8c-1.3-0.5-2.8-0.8-3.8-1.8c-0.7-0.6-1.2-1.5-2.2-1.5c-1.2,0.1-2.4,0.5-3.6,0.6
				c0.3-2.4,0.5-4.9,2.1-6.8c2.2-2.8,5.4-4.5,8.5-6.1c1,1.7,2.1,3.4,2.4,5.4c0.1,0.7,0.1,1.5,0.7,2.1c1.5,1.6,3.3,2.7,5,4
				c1.1-2.8,2.5-5.5,3.8-8.2c0.9-1.8,1.3-3.8,0.7-5.8c-1.4-4.7,2.6-9.8,7.2-10.6c2,0.3,3.6,1.8,5.6,2c3.6-0.7,6.8-3,10.4-3.7
				c1-0.2,2.2-0.4,3.1,0.3c0.3,1.2-0.3,2.6,0.3,3.8c0.8,1.7,2.5,2.5,4.2,3.2c1.7,0.7,3.4,1.7,5.3,1.4c3.4-0.5,6.3-2.6,8.9-4.8
				c-3.7-3.4-8.1-6.1-12.7-8.2C416.5,539.6,405.3,538,394.2,538.6z M440.2,555.7c-1.5,0.9-2.9,1.8-4.6,2.4c0.4,2.3-1.7,3.9-2.8,5.6
				c2.1-1.7,4.4-3.1,7-3.9c3.2-1,6.6-0.7,9.8-0.2c-1.8-1.2-3.7-2.5-5.6-3.6C442.9,555.4,441.4,554.8,440.2,555.7z M403.8,557.9
				c0.6,1.4,1.6,3.1,0.8,4.7c-1.3,2.5-4.3,3.4-6.8,4.5c0,0.1-0.1,0.2-0.1,0.3c1.8-0.5,3.7-1.1,5.6-1.4c0.6-0.2,1.2,0,1.7,0.4
				c1.7-0.5,3.5-0.9,5.1-1.7c1.1-0.5,1-1.9,0.9-2.9C408.6,560.4,406.4,558.8,403.8,557.9z M394.7,585.7c-1.8,0.5-3.6,0.6-5.5,0.3
				c-0.7,0.8-1.5,1.6-2.1,2.4c1.8,1,3.9,1.7,6,1.6c1.9-0.1,4-0.1,5.5,1.3c1.6,1.7,2.4,4.1,4.2,5.6c0.7,0.7,1.8,1.1,2.8,0.9
				c3.1-0.7,6.2-1.8,9.5-1.5c1.5,0.1,3.2,0.8,3.8,2.2c1,2,2.3,4.1,4.3,5.1c1.3,0.7,2.9,0.5,4-0.6c1.6-1.5,2-3.7,2.3-5.8
				c-1.5-1.2-3-2.4-4.8-3.2c-1.7-0.7-3.5-0.9-5.2-1.2c-2.3-0.3-4.7-0.8-6.9-1.5c-1.5-0.4-2.9-1.2-4.5-1.5c-1-0.2-1.9,0.2-2.9,0.3
				c-1.2-1.2-1.8-2.9-3.3-3.7c-1.2-0.6-2.6-1-3.8-1.7C397,584,395.8,585.2,394.7,585.7z"/>
		</g>
	</g>
	<g>
		<path fill="#00CC99" d="M391,476.6c2.6-1.3,4.9-3.5,7.9-3.9c3.5,1.4,6.5,3.6,9.7,5.3c39.6,22.8,79.2,45.8,118.9,68.5
			c0.1,49.8,0.1,99.5,0,149.3c-42.5,24.5-85,49.1-127.5,73.6c-0.9,0.7-2,0.7-2.8,0c-42.5-24.6-85.1-49.1-127.6-73.7
			c0-49.8-0.1-99.6,0.1-149.3C310.2,523.4,350.5,499.9,391,476.6z M391.9,493.4c-35.8,20.7-71.6,41.3-107.4,62
			c0,43.9,0,87.8,0,131.7c37,21.4,74,42.7,110.9,64.1c1.4,0.8,3.2,2,4.8,0.7c37.4-21.6,74.9-43.2,112.3-64.8c0-43.9,0-87.8,0-131.7
			c-36-20.8-71.9-41.5-107.9-62.3c-2.1-1.1-4-2.6-6.3-3.2C396,490.8,394,492.2,391.9,493.4z"/>
	</g>
</g>
<g>
	<path fill="#CC33CC" d="M542.4,76.2c43-24.9,86.1-49.7,129.1-74.6c43,24.9,86.1,49.7,129.1,74.5c-0.1,49.7,0.1,99.4-0.1,149.1
		c-43.1,24.6-86,49.6-129.1,74.4c-43-24.8-86-49.7-129.1-74.5C542.4,175.6,542.4,125.9,542.4,76.2z M557.6,84.7
		c-0.2,44,0,88-0.1,131.9c38,22,76.1,43.9,114.1,65.9c38-21.9,76-43.9,114-65.9c-0.1-43.9,0-87.9-0.1-131.8
		c-38-21.9-76-43.9-114-65.8C633.6,40.9,595.7,62.9,557.6,84.7z"/>
</g>
<g>
	<path fill="#CC33CC" d="M728.8,71.4c1.2,0,2.2,0.8,3.1,1.5c3.6,2.8,6.7,6.3,9.3,10c3.2,4.5,5.8,9.9,5.6,15.6
		c-0.3,5.9-4.6,11.3-10.2,13c-4.6,1.4-9.8,0.3-13.4-2.8c-4.3-3.6-6.4-10.1-4.2-15.4c1.7-4,5.5-6.6,8.3-9.7c1.6-1.7,3-3.9,3-6.4
		C730.4,75.1,729.6,73.2,728.8,71.4z"/>
	<g>
		<path fill="#CC33CC" d="M623.2,86.1c11.9-7.9,26.1-12.2,40.3-12.4c17.9-0.3,35.8,6.2,49.5,17.9c-2.9,8.1,0.5,17.5,7.3,22.5
			c-2.5,5.8-4,12.1-5.1,18.4c-2.2-3.2-5.4-5.7-9.2-6.7c-4.7-1.3-10-0.5-13.9,2.4c-4.3,3-7,8-7,13.2c-0.1,4.5,1.8,9,5,12.1
			c3.2,3.1,7.6,4.8,12,4.6c4-0.1,7.8-1.8,10.7-4.5c-0.9,12.8-0.5,25.8,0.8,38.6c-4,0.5-8.4,0-11.7-2.5c-3.7-2.8-7.1-6-9.8-9.8
			c-1.2-1.6-2.3-3.3-3.6-4.8c-1.7-1.9-4.3-3-6.8-3.1c-5.1-0.2-10.2,2.7-12.8,7.1c-1.8,3.1-1.4,7-0.2,10.2
			c2.3,6.1,6.5,11.1,10.8,15.9c1.5,1.8,3.4,3.4,4.6,5.5c1.3,2.2,2.5,4.7,2.3,7.3c-0.1,1.5-1.4,2.8-2.8,3.1
			c-11.6,3.1-23.9,3.3-35.6,0.6c-12.8-2.9-24.9-9.3-34.5-18.2c-10.2-9.5-17.7-21.8-21.3-35.3c-3.7-13.7-3.4-28.5,0.9-42
			C598.1,109.9,608.9,95.5,623.2,86.1z M670,94.5c-1.9,0.3-3.7,0.9-5.2,2c-4.8,3.1-6.8,9.9-4.4,15.2c2.3,5.6,9,8.8,14.8,6.9
			c6.1-1.7,10.2-8.5,8.5-14.6C682.5,97.9,676.1,93.5,670,94.5z M626,115.5c-4.7,1.3-8.4,5.6-8.9,10.5c-0.6,5,2.2,10.2,6.8,12.4
			c4.3,2.2,9.8,1.5,13.5-1.6c4.2-3.4,5.6-9.8,3.2-14.7C638.2,116.8,631.6,113.8,626,115.5z M624.8,161.7c-5.1,1.2-9.1,6.1-9.2,11.4
			c-0.4,5.8,4,11.5,9.7,12.7c5,1.2,10.6-1.2,13.2-5.7c2.5-4,2.4-9.4-0.3-13.3C635.4,162.5,629.7,160.3,624.8,161.7z"/>
	</g>
	<path fill="#CC33CC" d="M725.4,116.9c4.7,1.8,10.1,1.6,14.8-0.3c1.9,4.5,3,9.2,4,13.9c1.9,10.2,2.7,20.5,3,30.9
		c0.2,11.5-0.4,23.1-2.1,34.5c-1.1,7.2-2.6,14.4-5.4,21.2c-1.2,2.7-2.6,5.6-5.2,7.2c-1.4,0.9-3.4,0.8-4.7-0.3
		c-2.7-2.1-4-5.3-5.3-8.4c-3.1-8.4-4.4-17.3-5.4-26.2c-1.3-13.7-1.3-27.6-0.2-41.3C720,137.5,721.4,126.8,725.4,116.9z"/>
</g>
<g>
	<path d="M934.6,195.2h-18.4l-4.8-14h-25.6l-4.8,14h-18l25.5-69.1h20.5L934.6,195.2z M907.1,168.5l-8.5-24.7l-8.5,24.7H907.1z"/>
	<path d="M1017,195.2h-17.7v-46.2l-12.8,30h-12.3l-12.8-30v46.2h-16.8v-69.1h20.7l15.5,34.7l15.5-34.7h20.7V195.2z"/>
	<path d="M1101.1,195.2h-21.8l-18.8-25.3h-8.3v25.3h-17.7v-69.1h29.9c4.1,0,7.6,0.2,10.5,0.7c2.9,0.5,5.7,1.5,8.3,3
		c2.6,1.5,4.7,3.5,6.2,6c1.5,2.5,2.3,5.5,2.3,9.3c0,5.1-1.2,9.3-3.5,12.5c-2.4,3.2-5.7,5.9-10.1,8L1101.1,195.2z M1073.3,147.2
		c0-1.7-0.4-3.2-1.1-4.5c-0.7-1.2-1.9-2.2-3.7-2.9c-1.2-0.5-2.6-0.8-4.2-0.9c-1.6-0.1-3.5-0.2-5.6-0.2h-6.4v18.6h5.5
		c2.8,0,5.2-0.1,7.1-0.4c1.9-0.3,3.5-0.9,4.8-1.9c1.2-1,2.1-2,2.7-3.2C1073,150.7,1073.3,149.2,1073.3,147.2z"/>
	<path d="M1160.3,195.2h-16.7v-25.8c0-2.1-0.1-4.2-0.3-6.3c-0.2-2.1-0.6-3.6-1.1-4.6c-0.6-1.1-1.5-2-2.7-2.5c-1.2-0.5-2.9-0.8-5-0.8
		c-1.5,0-3.1,0.2-4.6,0.7c-1.6,0.5-3.3,1.3-5.1,2.4v36.9H1108V123h16.7v25.8c3-2.3,5.8-4.1,8.5-5.3c2.7-1.2,5.8-1.9,9.1-1.9
		c5.6,0,10,1.6,13.2,4.9c3.2,3.3,4.7,8.2,4.7,14.7V195.2z"/>
	<path d="M1227.5,195.2h-16.7v-5.8c-3.1,2.4-5.9,4.1-8.5,5.4c-2.6,1.2-5.6,1.8-9.2,1.8c-5.7,0-10.2-1.7-13.3-5
		c-3.1-3.3-4.7-8.2-4.7-14.7v-33.9h16.7v25.8c0,2.6,0.1,4.8,0.3,6.6c0.2,1.7,0.6,3.2,1.2,4.3c0.6,1.1,1.5,2,2.7,2.5
		c1.2,0.5,2.9,0.8,5,0.8c1.4,0,3-0.3,4.7-0.8c1.7-0.5,3.4-1.3,5-2.3v-36.9h16.7V195.2z"/>
	<path d="M1297.7,168.4c0,8.2-2.3,14.9-6.8,20c-4.5,5.2-10.2,7.7-16.9,7.7c-2.9,0-5.5-0.3-7.6-0.9s-4.3-1.5-6.3-2.7l-0.7,2.6h-16
		V123h16.7v25.5c2.6-2,5.2-3.7,7.9-5c2.7-1.3,5.8-1.9,9.2-1.9c6.6,0,11.6,2.4,15.2,7.1C1295.9,153.5,1297.7,160,1297.7,168.4z
		 M1280.5,168.7c0-4.6-0.8-8.2-2.4-10.7c-1.6-2.5-4.4-3.8-8.4-3.8c-1.6,0-3.2,0.2-4.9,0.7c-1.7,0.5-3.3,1.2-4.8,2.1v26.1
		c1.2,0.4,2.3,0.7,3.4,0.9c1.1,0.2,2.4,0.2,3.9,0.2c4.4,0,7.7-1.3,9.9-3.9S1280.5,173.9,1280.5,168.7z"/>
</g>
</svg>
