<?xml version="1.0" encoding="UTF-8"?>
<svg xmlns="http://www.w3.org/2000/svg" xmlns:xlink="http://www.w3.org/1999/xlink" version="1.1" width="23.991" height="23.992" viewBox="0 0 23.991 23.992" overflow="visible">
  <g>
    <g>
      <path fill="#999999" d="M15.678,0H8.313C1.591,0,0,1.591,0,8.313v7.365c0,6.723,1.591,8.313,8.313,8.313h7.365c6.723,0,8.313-1.593,8.313-8.313    V8.313C23.992,1.591,22.382,0,15.678,0z M12.176,20.325c-1.651,0-2.419-0.241-3.753-1.205c-0.844,1.084-3.516,1.933-3.632,0.482    c0-1.089-0.241-2.01-0.514-3.014c-0.325-1.238-0.695-2.616-0.695-4.612c0-4.769,3.913-8.357,8.55-8.357    c4.641,0,8.277,3.765,8.277,8.401C20.425,16.584,16.74,20.3,12.176,20.325z M12.244,7.745V7.741    c-2.258-0.117-4.018,1.446-4.407,3.897c-0.321,2.029,0.249,4.5,0.735,4.628c0.233,0.057,0.82-0.417,1.186-0.783    c0.605,0.418,1.309,0.669,2.041,0.728c2.339,0.112,4.339-1.669,4.496-4.005C16.386,9.863,14.584,7.879,12.244,7.745z"></path>
    </g>
  </g>
</svg>
