<?xml version="1.0" encoding="utf-8"?>
<!-- Generator: Adobe Illustrator 18.1.1, SVG Export Plug-In . SVG Version: 6.00 Build 0)  -->
<svg version="1.1" id="Layer_1" xmlns="http://www.w3.org/2000/svg" xmlns:xlink="http://www.w3.org/1999/xlink" x="0px" y="0px"
	 viewBox="0 0 258 258" enable-background="new 0 0 258 258" xml:space="preserve">
<circle fill="#FFFFFF" cx="129" cy="129" r="129"/>
<g>
	<path fill="#DC3846" d="M93.8,50.3c30.2-0.5,60.5-0.2,90.7-0.3c5.1-0.2,10,2.8,12.3,7.3c2.2,4,1.8,8.9,0.4,13.2
		c-9.4,31.1-18.8,62.1-28.2,93.2c-1.7,5.1-3.3,10.6-7.1,14.6c-4.3,3.6-10.3,3.3-15.5,3.4c-28.3-0.1-56.7,0-85-0.1
		c-2.4,0-5.9,0-6.3,3.1c0,3.4,2.2,6.7,5.3,8.1c3.4,1.7,7.3,1.8,11,1.8c31,0,62,0,93,0c4.3,0.3,9.2-2,10.2-6.5
		c9.7-31.8,19.3-63.6,29-95.3c1.3-3.6,2.1-7.4,2.4-11.2c6.8,2.5,10.3,10.4,7.9,17.2c-9.2,30.6-18.6,61.2-27.8,91.8
		c-2.2,9.8-11.5,17.8-21.7,17.5c-31,0-62,0-93.1,0c-12.8,0.4-24.9-9.7-27.6-22.1c-1.5-5.7,1.6-11.3,1.2-17.1c0-2.2-0.8-4.8,0.9-6.6
		c4.7-6.3,7.9-13.5,10.2-21c1.2-3.5-0.5-7.8,2.1-10.7c3.9-5.1,6.1-11.2,7.9-17.2c1.1-3.3,0.4-6.9,0.7-10.3c1.6-2.9,4.5-4.9,6-7.8
		c2.1-4.1,3.9-8.4,5-12.8c0.8-3,0-6.1,0.3-9.1c2-3.5,5.2-6.3,6.6-10.2C86.6,58.3,88.3,52.2,93.8,50.3z M102.8,89.3
		c20.5,0.3,41.1,0,61.6,0.2c2.2-0.1,5.2,0.3,6.4-2.1c1.6-3,2.6-6.3,3.1-9.7c-1.1-1.4-3-1.3-4.6-1.3c-19.6,0.1-39.3,0-58.9,0
		C103.9,76,102.8,84.4,102.8,89.3z M97.1,104.5c-1.6,2.9-2.6,6.2-3.2,9.5c0.4,2.2,2.9,1.6,4.5,1.8c19.3,0,38.7-0.1,58,0.1
		c2.1-0.1,4.8,0,6-2.2c1.7-3.3,2.7-6.9,2.9-10.6c-5.3-0.8-10.6-0.4-15.8-0.5c-15.3,0-30.7,0-46,0C101.2,102.8,98.5,102.5,97.1,104.5
		z"/>
</g>
</svg>
