<?xml version="1.0" encoding="utf-8"?>
<!-- Generator: Adobe Illustrator 21.1.0, SVG Export Plug-In . SVG Version: 6.00 Build 0)  -->
<svg version="1.1" id="Layer_1" xmlns="http://www.w3.org/2000/svg" xmlns:xlink="http://www.w3.org/1999/xlink" x="0px" y="0px"
	 viewBox="0 0 900 650" style="enable-background:new 0 0 900 650;" xml:space="preserve">
<style type="text/css">
	.st0{fill:#673AB7;}
	.st1{fill:#9475CC;}
	.st2{fill:#FFFFFF;}
	.st3{fill:#CCCC00;}
	.st4{fill:#FF66CC;}
	.st5{fill:none;}
</style>
<rect class="st0" width="900" height="650"/>
<circle class="st1" cx="450" cy="325" r="260"/>
<g>
	<g>
		<g>
			<path class="st2" d="M258.7,343.2c29.7-17.1,59.5-34.3,89.2-51.5c29.8,17.1,59.5,34.4,89.3,51.5c0,34.3,0,68.7,0,103
				c-29.8,17.1-59.5,34.4-89.3,51.5c-29.7-17.2-59.4-34.4-89.2-51.5C258.7,411.9,258.7,377.6,258.7,343.2z"/>
		</g>
		<g>
			<g>
				<path class="st3" d="M250.9,338.6c32.4-18.7,64.7-37.4,97.1-56c32.3,18.7,64.7,37.3,97,56.1c0,37.4,0.1,74.9,0,112.3
					c-32.4,18.6-64.7,37.3-97,55.9c-32.4-18.6-64.7-37.4-97.1-56C250.9,413.4,250.9,376,250.9,338.6z M262.2,345.2c0,33,0,66,0,99
					c28.6,16.6,57.2,33.1,85.8,49.6c28.6-16.5,57.1-33,85.7-49.5c0-33.1,0.1-66.1,0-99.2c-28.6-16.4-57.1-33-85.7-49.4
					C319.4,312.2,290.8,328.7,262.2,345.2z"/>
			</g>
			<g>
				<path class="st3" d="M352.2,342.1c11.8-3.4,25.3,2.5,31.1,13.2c4.4,7.8,4.6,17.8,0.4,25.7c-1.6,3-3.8,5.6-6,8.2
					c-15.2,18.1-30.4,36.3-45.7,54.4c-7.8,9.1-22,11.6-32.6,6c-6.6-3.5-11.9-9.6-13.9-16.8c-2.5-8.4-0.6-18,5-24.7
					c15.8-19,31.8-37.9,47.6-56.9C341.8,346.9,346.8,343.6,352.2,342.1z M342.1,357.3c-15.4,18.3-30.7,36.6-46,54.9
					c-4.6,5.3-6.1,13.1-3.6,19.8c2.9,8.6,12,14.6,21.1,13.8c5.5-0.4,10.7-3.2,14.1-7.4c7.8-9.4,15.8-18.7,23.6-28.2
					c-9.5-7.8-18.8-15.8-28.2-23.6c7.3-9.1,14.9-17.8,22.3-26.8c5.7-6.8,15-9.5,23.6-8.9C359.7,347.4,348.5,349.8,342.1,357.3z"/>
			</g>
			<g>
				<path class="st3" d="M342.9,436.5c11.1-12.8,21.8-26,32.8-38.9c8,3.1,14.5,10.1,16.5,18.4c2.9,10.7-1.5,22.8-10.7,29
					c-9.8,7.1-24.5,6.2-33.4-2C346.1,441.2,344.4,438.9,342.9,436.5z M374.2,411.3c-8.2,9.9-16.8,19.5-24.6,29.7
					c2.6-2.7,4.8-5.7,7.3-8.5c8.1-9.8,16.5-19.4,24.5-29.4C378.7,405.6,376.6,408.6,374.2,411.3z M382.8,404.8
					c-10.5,12.3-20.9,24.6-31.1,37.2c4.7-5,8.9-10.5,13.4-15.7C370.9,419,377.2,412.2,382.8,404.8z M390.8,422.6
					c-0.7,3.1-1.3,6.3-2.7,9.1c-3.4,7.2-9.9,12.8-17.5,15.1c6.1-1,11.7-4.6,15.4-9.6C389.1,433.1,390.5,427.8,390.8,422.6z"/>
			</g>
			<path class="st3" d="M321.5,433.8c6.7-7.8,13.3-15.7,19.8-23.6c1,0.8,2.1,1.7,3.1,2.6c-6.4,7.7-12.8,15.4-19.4,23.1
				c-5.7,6.5-15.8,8.3-23.5,4.6C308.8,440.9,316.6,439.4,321.5,433.8z"/>
		</g>
	</g>
	<g>
		<g>
			<path class="st2" d="M462.7,343.1c29.7-17.1,59.5-34.3,89.2-51.5c29.8,17.1,59.5,34.4,89.3,51.5c0,34.3,0,68.7,0,103
				c-29.8,17.1-59.5,34.4-89.3,51.5c-29.7-17.2-59.4-34.4-89.2-51.5C462.7,411.8,462.7,377.5,462.7,343.1z"/>
		</g>
		<g>
			<g>
				<path class="st4" d="M454.8,338.7c32.4-18.7,64.8-37.4,97.2-56.1c32.4,18.7,64.8,37.4,97.1,56.1c0,37.4,0,74.7,0,112.1
					c-32.4,18.7-64.7,37.4-97.1,56.1c-31.7-18.3-63.5-36.7-95.2-55c-0.7-0.4-1.3-0.9-2-1.3V338.7z M465.7,344.8
					c0,33.2,0,66.4,0,99.6c28.8,16.6,57.5,33.2,86.2,49.8c28.8-16.6,57.6-33.2,86.3-49.9c-0.1-33.2,0-66.4-0.1-99.6
					c-28.8-16.5-57.5-33.2-86.3-49.8C523.2,311.6,494.5,328.2,465.7,344.8z"/>
			</g>
			<g>
				<g>
					<path class="st4" d="M527.4,321.8c4.1-1.8,8.6-2.3,13-1.7c0.6,0,1.2,0.1,1.8,0.3c4.2,0.9,8.2,2.9,11.4,5.8
						c3.7,3.3,6.3,7.7,7.3,12.6c0.6,2.8,0.6,5.8,0.3,8.7c-0.4,2.9-1.3,5.8-2.6,8.4c-0.1,0.2-0.3,0.6,0,0.7
						c9.3,6.6,18.5,13.3,27.8,19.8c3.5-3.9,8.2-6.7,13.3-7.7c5.2-1.1,10.8-0.5,15.6,1.9c6.1,2.9,11,8.5,12.9,15.1
						c1.1,3.5,1.3,7.1,0.8,10.7c-0.1,1.2-0.4,2.4-0.7,3.5c-1.7,5.5-5.3,10.5-10.2,13.6c-2,1.2-4.1,2.3-6.4,2.9
						c-4.5,1.3-9.5,1.3-14-0.1c-3.1-1-6.1-2.5-8.6-4.5c-2.5-2.1-4.5-4.6-6.1-7.4c-2.1,0.7-4.1,1.6-6.1,2.4c-5.7,2.2-11.3,4.4-17,6.7
						c0.7,2.4,1.2,4.8,1.4,7.2c0.4,4.7,0.1,9.4-1.3,13.9c-0.1,0.5-0.3,0.9-0.4,1.4c-0.4,1.2-0.9,2.4-1.4,3.5
						c-0.6,1.2-1.2,2.4-1.9,3.5c-0.5,0.9-1.1,1.8-1.7,2.7c-2.3,3.2-5.1,6.1-8.4,8.4c-0.8,0.6-1.7,1.2-2.6,1.7
						c-0.2,0.1-0.5,0.3-0.7,0.4c-1.6,1-3.3,1.7-5,2.4c-0.4,0.1-0.8,0.3-1.2,0.4c-0.4,0.1-0.7,0.3-1.1,0.4l0,0
						c-0.5,0.1-1,0.3-1.5,0.4c-0.7,0.2-1.4,0.3-2,0.5c0,0.1,0,0.2,0,0.3l-0.1-0.2c-1.6,0.3-3.2,0.5-4.8,0.6
						c-0.2,0.1-0.4,0.1-0.7,0.1c-1,0-2,0-3,0c-0.3,0-0.6,0-0.8-0.1c-1,0-1.9-0.1-2.9-0.3c-0.8-0.1-1.6-0.2-2.4-0.4
						c-0.6-0.1-1.2-0.3-1.8-0.4c-0.5-0.1-0.9-0.3-1.4-0.4c-0.4-0.2-0.9-0.3-1.4-0.4l0,0c-0.4-0.1-0.7-0.2-1.1-0.4
						c-0.3-0.1-0.7-0.3-1-0.4c-1.4-0.6-2.8-1.3-4.2-2.1c-0.2-0.1-0.5-0.3-0.7-0.4c-0.4-0.3-0.9-0.6-1.3-0.8
						c-0.6-0.3-1.1-0.8-1.7-1.1c-3.8-2.8-7.1-6.4-9.5-10.4c-2.8-4.7-4.6-10-5.1-15.4c-0.6-6,0.2-12.1,2.5-17.6
						c3.3-8.1,9.6-14.8,17.3-18.8c5.3-2.7,11.3-4.1,17.3-4c0.7,0,1.5,0.1,2.2,0.1c0.9-6.5,2-13.1,2.9-19.6c-3.3-0.9-6.5-2.5-9.2-4.7
						c-2.7-2.2-5-5-6.5-8.2c-3.8-7.7-3.2-17.3,1.6-24.4C519.2,326.8,523,323.7,527.4,321.8z M536.3,329.9c-1.2,0.2-2.4,0.6-3.5,1.3
						c-1.7,1.2-2.8,3.2-3,5.2c-0.4,3.6,2.5,7.2,6.1,7.7c1.7,0.3,3.5-0.1,5-1.1c1.7-1.1,2.9-2.9,3.2-4.8c0.3-1.8-0.1-3.7-1.1-5.2
						c-0.9-1.4-2.4-2.4-4-2.9C538.1,330,537.2,329.7,536.3,329.9z M534.9,354.4c-4.7,0.8-8.7,4.7-9.6,9.4c3.7,2.2,7.9,3.4,12.2,3.3
						c3.9-0.1,7.8-1.2,11.2-3.2c-0.7-3.4-2.9-6.5-6-8.2C540.3,354.4,537.5,353.9,534.9,354.4z M552.6,363.3
						c-1.9,1.6-4.1,2.8-6.3,3.7c-3.2,1.3-6.8,1.9-10.3,1.8c-0.9,6.5-2,13.1-2.9,19.6c6.5,1.4,12.6,4.7,17.4,9.4
						c3.2,3,5.7,6.6,7.6,10.6c7.7-3.1,15.4-6,23.1-9.2c-1.3-5.3-1-11,1.1-16.1c0.3-0.8,0.8-1.5,1.1-2.3c-1.1-0.7-2.1-1.5-3.2-2.2
						c-8.3-6-16.6-11.9-25-17.8C554.4,361.7,553.5,362.6,552.6,363.3z M603.8,378.5c-0.4,0.1-0.9,0.2-1.3,0.3c-3,1-5.1,4.1-4.8,7.3
						c0.2,2.6,1.8,5,4.1,6c0.9,0.5,2,0.6,3,0.8c2.3-0.1,4.6-1.2,6-3.2c1.2-1.6,1.6-3.7,1.1-5.7c-0.4-1.6-1.3-3-2.5-4
						C607.8,378.8,605.7,378.1,603.8,378.5z M523.3,400.3c-2.2,0.3-4.3,1.2-6.1,2.7c-2.1,1.7-3.6,4.2-4.2,6.9
						c-0.9,4.2,0.8,8.9,4.1,11.6c2.1,1.8,4.8,2.7,7.5,2.9c3.1-0.1,6.2-1.2,8.4-3.4c2.3-2.2,3.7-5.2,3.7-8.4
						c0.2-4.8-2.9-9.5-7.3-11.3C527.7,400.4,525.5,399.9,523.3,400.3z M601.3,403.1c-4,1.3-7.3,4.7-8.1,8.8c0.6,0.3,1.1,0.7,1.7,1
						c1,0.4,1.9,1,3,1.2c2,0.6,4.1,1.1,6.2,1c0.8,0,1.6,0,2.3,0c2-0.1,4-0.7,6-1.3c1.4-0.6,2.8-1.2,4-2c-1.1-4.6-5.1-8.5-9.9-9
						C604.8,402.6,603,402.5,601.3,403.1z M512,438.4c-3.9,2.9-6.8,7.1-8.1,11.9c0.1,0.1,0.2,0.2,0.3,0.3c0.1,0.1,0.3,0.2,0.4,0.3
						c0.1,0,0.2,0.1,0.2,0.1c0.1,0,0.2,0.1,0.2,0.2c0.4,0.3,0.8,0.7,1.2,1c1.1,0.7,2.2,1.3,3.4,2c1.2,0.5,2.4,1.1,3.5,1.6
						c0.6,0.2,1.3,0.5,1.9,0.6c1.3,0.4,2.5,0.8,3.8,1c0.9,0.2,1.8,0.3,2.8,0.4c0.4,0.2,0.8,0.1,1.2,0.1c1.4,0,2.7,0,4.1,0
						c0.5,0,0.9,0.1,1.3-0.1c0.9-0.1,1.8-0.2,2.6-0.4c0.4,0,0.9-0.1,1.3-0.2c0.9-0.3,1.7-0.4,2.6-0.7c0.5-0.1,1-0.2,1.4-0.4
						c0.8-0.2,1.6-0.7,2.4-1c0.7-0.3,1.3-0.6,2-0.9c1.3-0.9,2.9-1.5,4-2.7c0.4-0.3,0.8-0.5,1.2-0.8c0-0.1-0.1-0.3-0.1-0.4
						c-1.1-4.2-3.6-7.9-6.9-10.8c-3.2-2.8-7.3-4.6-11.5-5.1C522,433.7,516.4,435.1,512,438.4z"/>
				</g>
			</g>
		</g>
	</g>
	<g>
		<g>
			<path class="st2" d="M361.1,163.8c29.7-17.1,59.5-34.3,89.2-51.5c29.8,17.1,59.5,34.4,89.3,51.5c0,34.3,0,68.7,0,103
				c-29.8,17.1-59.5,34.4-89.3,51.5c-29.7-17.2-59.4-34.4-89.2-51.5C361,232.5,361,198.1,361.1,163.8z"/>
		</g>
		<g>
			<g>
				<g>
					<path d="M353.1,159.2c32.4-18.7,64.8-37.3,97.1-56.1c32.4,18.6,64.8,37.4,97.2,56c0,37.4,0,74.8,0,112.2
						c-32.4,18.6-64.8,37.4-97.2,56c-32.4-18.7-64.7-37.4-97.1-56.1C353.1,234,353.1,196.6,353.1,159.2z M364.5,165.8
						c0,33.1,0,66.1,0,99.1c28.6,16.5,57.2,32.9,85.7,49.5c28.7-16.3,57.1-33.1,85.8-49.4c0.1-33.1,0-66.3,0-99.4
						c-28.6-16.4-57.1-33-85.8-49.5C421.8,132.7,393.1,149.2,364.5,165.8z"/>
				</g>
				<path d="M408.8,271.8c-2-0.8-4-2.8-4.7-4.8l-0.6-1.5v-96.8l0.6-1.5c0.8-2,2.8-4,4.8-4.8c1.4-0.5,2.1-0.6,6.6-0.6h5.1v12.8h-3.8
					c-3.4,0-3.9,0.1-4.3,0.5c-0.4,0.5-0.5,3.8-0.5,42.2v41.7l0.6,0.4c0.5,0.4,4.6,0.4,37.8,0.4c36.9,0,37.2,0,37.7-0.5
					c0.5-0.5,0.5-0.9,0.5-42.1c0-40,0-41.7-0.5-42.1c-0.4-0.4-1.1-0.5-4.3-0.5h-3.8v-12.8h5.1c4.5,0,5.2,0.1,6.6,0.6
					c2.1,0.8,4,2.8,4.8,4.8l0.6,1.5v96.8l-0.6,1.5c-0.8,2.1-2.8,4-4.8,4.8l-1.5,0.6l-40,0C410.3,272.4,410.2,272.4,408.8,271.8
					L408.8,271.8z M408.8,271.8"/>
				<path d="M429.6,250.4c-1.3-1.2-9.1-12.6-9.1-13.3c0-0.7,2.3-2.8,3.2-2.8c0.5,0,1.6,1,4,3.4l3.4,3.4l5.5-5.7
					c3.8-3.9,5.7-5.7,6.1-5.6c0.9,0,3.3,2,3.3,2.8c0,0.7-12.5,17.7-13.4,18.2C431.6,251.4,430.4,251.2,429.6,250.4L429.6,250.4z
					 M429.6,250.4"/>
				<path d="M454.7,246.5c-0.1-0.2-0.1-2.1-0.1-4.2l0.1-3.9H480v8.3l-12.6,0.1C457.2,246.9,454.8,246.8,454.7,246.5L454.7,246.5z
					 M454.7,246.5"/>
				<path d="M429.6,229.1c-1.3-1.2-9.1-12.6-9.1-13.3c0-0.7,2.3-2.8,3.2-2.8c0.5,0,1.6,1,4,3.4l3.4,3.4l5.5-5.7
					c3.8-3.9,5.7-5.7,6.1-5.6c0.9,0,3.3,2,3.3,2.8c0,0.7-12.5,17.7-13.4,18.2C431.6,230.1,430.4,229.9,429.6,229.1L429.6,229.1z
					 M429.6,229.1"/>
				<path d="M454.7,225.2c-0.1-0.2-0.1-2.1-0.1-4.2l0.1-3.9H480v8.3l-12.6,0.1C457.2,225.6,454.8,225.5,454.7,225.2L454.7,225.2z
					 M454.7,225.2"/>
				<path d="M429.6,207.8c-1.3-1.2-9.1-12.6-9.1-13.3c0-0.7,2.3-2.8,3.2-2.8c0.5,0,1.6,1,4,3.4l3.4,3.4l5.5-5.7
					c3.8-3.9,5.7-5.7,6.1-5.6c0.9,0,3.3,2,3.3,2.8c0,0.3-1.2,2.2-2.8,4.3c-1.5,2-4.4,5.9-6.4,8.6c-2,2.7-3.9,5.1-4.2,5.2
					C431.6,208.8,430.4,208.6,429.6,207.8L429.6,207.8z M429.6,207.8"/>
				<path d="M454.7,203.9c-0.1-0.2-0.1-2.1-0.1-4.2l0.1-3.9H480v8.3l-12.6,0.1C457.2,204.3,454.8,204.2,454.7,203.9L454.7,203.9z
					 M454.7,203.9"/>
				<path d="M426.8,178.1c-0.5-0.3-1.2-1-1.5-1.5c-0.6-0.9-0.6-1-0.6-8.5c0-7.5,0-7.7,0.6-8.5c0.3-0.5,1-1.2,1.5-1.5
					c0.9-0.6,1.1-0.6,5.8-0.6h4.9v-0.9c0-3.7,2.8-8.2,6.5-10.3c3.1-1.8,7.6-2.1,10.9-0.9c4.3,1.7,7.7,6,8.1,10.5l0.2,1.5h4.8
					c4.6,0,4.9,0,5.7,0.6c0.5,0.3,1.2,1,1.5,1.5c0.6,0.9,0.6,1,0.6,8.5c0,7.5,0,7.7-0.6,8.5c-0.3,0.5-1,1.2-1.5,1.5l-0.9,0.6h-45.1
					L426.8,178.1z M452.9,161.3c1.4-1.1,1.8-1.9,1.8-3.8c0-2-0.4-2.7-1.8-3.8c-1-0.8-4.1-0.8-5.1,0c-1.6,1.2-2.3,2.9-1.9,5
					c0.2,1.1,1.3,2.5,2.4,3C449.4,162.1,452,161.9,452.9,161.3L452.9,161.3z M452.9,161.3"/>
			</g>
			<rect x="403.5" y="143.2" class="st5" width="93.7" height="127.8"/>
		</g>
	</g>
</g>
</svg>
