<?xml version="1.0" encoding="utf-8"?>
<!-- Generator: Adobe Illustrator 18.1.1, SVG Export Plug-In . SVG Version: 6.00 Build 0)  -->
<svg version="1.1" id="Layer_1" xmlns="http://www.w3.org/2000/svg" xmlns:xlink="http://www.w3.org/1999/xlink" x="0px" y="0px"
	 viewBox="0 0 258 258" enable-background="new 0 0 258 258" xml:space="preserve">
<circle fill="#FFFFFF" cx="129" cy="129" r="129"/>
<g>
	<g>
		<path fill="#3777A2" d="M114.1,42c13.2-1.5,26.9,1.1,38.5,7.5c13.7,7.3,24.6,19.7,30.1,34.2c5.5,14.1,5.8,30.1,1,44.5
			c-4.1,12.5-12.1,23.6-22.6,31.5c-10.2,7.8-22.7,12.4-35.5,13.2c-17.6,1.3-35.5-5.1-48.5-16.9c-9.9-9-17-21.1-19.9-34.2
			c-3.3-14.7-1.4-30.5,5.3-44C72.3,58.2,92.4,44.2,114.1,42z M112.5,51.4c-15.2,2.4-29.3,11.3-37.9,24.1
			c-7.1,10.4-10.6,23.3-9.7,35.9c1,13.5,7,26.7,16.7,36.1c10.6,10.7,25.8,16.7,40.8,16.4c10.7-0.3,21.3-3.6,30.2-9.5
			c11.2-7.4,19.5-18.9,23.1-31.8c3.8-13.2,2.5-27.9-3.6-40.2c-5.4-11.2-14.7-20.5-25.9-25.9C136,51.3,123.9,49.5,112.5,51.4z"/>
	</g>
	<path fill="#3777A2" d="M132.9,62.3c0.2-1.5,0-3.1,0.3-4.6c4.1,1,8.1,2.5,11.8,4.4c0,13.1-6.4,26.4-17.7,33.4
		c-3.9-1.9-7.5-4.3-11.2-6.4c7.4-5,14.3-11.7,16.1-20.8c-10.7-0.2-21.3,0.1-32-0.1c-3.2-0.2-3.2-5.7,0-5.8
		C111.2,62.2,122,62.3,132.9,62.3z"/>
	<path fill="#3777A2" d="M80.6,76.7c2.2-2.9,4.8-5.6,7.5-8c0.7,1.7,1.4,3.5,2,5.3c9.2,0.3,18.5,0,27.7,0.1c1.3-0.1,2.3,0.8,3.3,1.5
		c-0.2,1.7-0.3,4.3-2.6,4.4c-8,0.3-16.1-0.3-24.2,0.4c7.5,8.9,18.5,13.3,28.1,19.3c8.9,5.3,17.7,12.5,20.9,22.8
		c2.9,10,2.2,21.5-3.4,30.4c-0.9,1.4-2,3-3.8,3.4c-6.4,1.9-13.3,2.5-20,1.9c4.7-3.3,9.6-6.5,12.9-11.4c2.1-2.9,3.3-6.3,3.8-9.8
		c-10.4-0.2-20.7,0-31.1-0.1c-1.8,0.3-3.6-1.3-3.5-3.1c0-1.8,1.8-3.2,3.6-3c10.3,0,20.7,0.1,31,0c-1-8.3-7.1-14.6-13.8-19
		c-10.2-6.8-21.8-11.5-30.8-20c-3.6-3.5-7-7.5-8.9-12.2C78.8,78.4,80.1,77.6,80.6,76.7z"/>
	<path fill="#3777A2" d="M75.8,129.8c0.4-11.2,7.9-21.1,17.2-26.8c3.7,2.4,7.5,4.5,11.3,6.8c-3.9,2.6-7.9,5.3-11,8.9
		c7.6,0.5,15.2,0.3,22.9,0.2c1.6,0.1,3.7-0.4,4.8,1.2c1.6,1.8,0.1,5.2-2.4,5c-9.8,0.3-19.6,0-29.4,0.1c-2.1,5.5-2.2,11.7-0.1,17.3
		c10.1,0.1,20.2-0.2,30.3,0.1c3.2,0.1,3.8,5.3,0.6,6c-6,0.3-12.1,0-18.1,0.1c-3.1,0.1-6.4-0.4-9.4,0.8
		C85.5,144.3,79.1,137.8,75.8,129.8z"/>
	<path fill="#3777A2" d="M173,151.6c2.2-1.9,5.8,0.9,4.6,3.5c-1.4,2.3-3.6,4-5.4,6c-1.3,1.1-2.5,2.8-4.4,2.6c-2.4-0.1-3.7-3.3-2-5
		C168.1,156.2,170.5,153.8,173,151.6z"/>
	<path fill="#3777A2" d="M180.1,158.8c3.7-1.1,7.9,0.2,10.5,3c9.4,9.4,18.8,18.8,28.2,28.2c2.8,2.6,4.2,6.8,3.1,10.5
		c-1.2,5.1-6.8,8.6-11.9,7.5c-2.5-0.4-4.7-1.8-6.4-3.6c-9.5-9.6-19.1-19-28.5-28.6C170,170.4,172.9,160.4,180.1,158.8z"/>
	<path fill="#3777A2" d="M84.8,179.5c2.2-2.6,4.7-4.9,7.4-6.9c4.7,1.9,9.5,3.6,14.5,4.6c-8,5.1-15.8,11.7-18.2,21.3
		c10.2,0.2,20.3-0.1,30.5,0.1c3.4,0.4,2.9,6-0.5,6c-10.3,0.2-20.6,0-30.9,0.1c0,1.2-0.1,2.3-0.2,3.5c-3.9,0.1-7.9,0.3-11.8,0.3
		C75,198.1,77.9,187.4,84.8,179.5z"/>
	<path fill="#3777A2" d="M116,178.6c4.9,0,9.7,0.3,14.5-0.5c1.2-0.1,2.5-0.5,3.7-0.1c7.9,7.9,11.3,19.4,10.7,30.5
		c-4,0-7.9-0.1-11.9-0.3c-0.1-4.8-0.8-9.7-2.7-14.2c-9.5-1-19.1,0-28.7-0.5c-2.4,0-3.5-3.5-1.7-5c0.8-1,2.2-1,3.3-1
		c7.5,0,15,0.1,22.6,0C123.3,183.7,119.5,181.2,116,178.6z"/>
</g>
</svg>
