<?xml version="1.0" encoding="utf-8"?>
<!-- Generator: Adobe Illustrator 21.1.0, SVG Export Plug-In . SVG Version: 6.00 Build 0)  -->
<svg version="1.1" id="Layer_1" xmlns="http://www.w3.org/2000/svg" xmlns:xlink="http://www.w3.org/1999/xlink" x="0px" y="0px"
	 viewBox="0 0 900 650" style="enable-background:new 0 0 900 650;" xml:space="preserve">
<style type="text/css">
	.st0{fill:#FFE181;}
	.st1{fill:#FFF3CD;}
	.st2{fill:#FFFFFF;}
	.st3{fill:#005A51;}
	.st4{fill:#DC3546;}
</style>
<rect class="st0" width="900" height="650"/>
<circle class="st1" cx="450" cy="325" r="260"/>
<g id="Голова">
	<path class="st2" d="M249.1,210.2c32.5-18.9,65-37.7,97.5-56.6c32.5,18.9,65,37.7,97.6,56.6c0,37.8,0,75.5,0,113.3
		c-32.2,18.6-64.4,37.3-96.5,56c-0.9,0.8-2,0.1-2.8-0.4c-31.9-18.6-63.9-37-95.8-55.6C249.1,285.7,249.2,247.9,249.1,210.2z"/>
	<path class="st3" d="M249.1,210.2c32.5-18.9,65-37.7,97.5-56.6c32.5,18.9,65,37.7,97.6,56.6c0,37.8,0,75.5,0,113.3
		c-32.2,18.6-64.4,37.3-96.5,56c-0.9,0.8-2,0.1-2.8-0.4c-31.9-18.6-63.9-37-95.8-55.6C249.1,285.7,249.2,247.9,249.1,210.2z
		 M260.5,216.8c0,33.4,0,66.7,0,100.1c28.7,16.7,57.5,33.3,86.2,50c28.7-16.6,57.5-33.3,86.2-50c0-33.4,0-66.7,0-100.1
		c-28.7-16.6-57.5-33.3-86.2-50C317.9,183.5,289.2,200.1,260.5,216.8L260.5,216.8z"/>
	<path class="st3" d="M317,209.5c9.8-6.6,21.9-9.5,33.6-8.8c12.3,0.5,25.1,4.1,34.2,12.9c7.9,7.4,11.9,18.3,12.4,28.9
		c0.2,4.7,0.6,9.7,3.4,13.7c2.5,4.4,7.5,7.2,8.9,12.3c0.7,1.8-0.4,3.7-2,4.5c-2.4,1.3-4.6,2.8-6.7,4.6c1,1.9,2.1,3.7,3.3,5.6
		c-1.9,1.1-3.9,2.1-5.8,3.3c1.8,1.5,3.2,3.4,4.2,5.5c-1.3,1.5-2.7,2.9-3.7,4.6c-1,3.6,2.7,6.8,1.6,10.5c-1,3.2-4.1,5.6-7.4,6.1
		c-8.1,0.9-16.2-0.5-24.3-1.1c-1.7,0-4.7-0.2-4.7,2.1c-0.4,4.6-0.1,9.2-0.3,13.8c-16.9,0.2-33.7,0.2-50.6,0.3
		c1.1-9.6,2.7-19.2,3.6-28.8c-1.6-10.1-8.2-18.3-13.7-26.6c-3.7-4.8-6.3-10.6-6.7-16.7c-0.4-6.9-0.5-13.9,1.3-20.6
		C300.6,225,307.8,215.7,317,209.5z M327.7,215.7c-0.2,0.8-0.3,1.6-0.5,2.5c-1.1,0.5-2.3,1-3.4,1.6c-0.7-0.6-1.5-1.2-2.2-1.8
		c-0.8,0.7-1.4,1.6-2,2.5l1.8,1.7c-0.5,1.2-1,2.3-1.4,3.5c-1,0.3-2,0.3-2.9,0.9c-0.2,0.9-0.3,1.8-0.2,2.8c1,0.1,2,0.2,2.9,0.4
		c0.6,1.4,1.3,2.8,2,4.3c-0.6,0.7-1.2,1.4-1.8,2.1c0.7,0.9,1.6,1.6,2.5,2.2c0.6-0.7,1.2-1.3,1.8-2c1,0.4,2,0.8,3.1,1.1
		c0.1,0.9,0.2,1.8,0.3,2.6c1,0.1,2.1,0.1,3.1,0.1c0.3-0.9,0.5-1.8,0.6-2.7c1.2-0.5,2.4-1,3.6-1.5l2.3,1.8c2.1-0.9,2.1-3.1,0.4-4.5
		c0.5-1.2,1-2.4,1.5-3.6l2.7-0.1c0.1-0.8,0.4-1.7,0.3-2.5c-0.5-1.3-2.1-1-3.2-1.4c-0.3-1-0.8-2-0.8-3c0.5-0.7,1.1-1.5,1.7-2.2
		c-0.6-0.7-1.2-1.3-2-1.9c-0.9,0.4-1.7,0.9-2.4,1.5c-1.4-0.6-2.7-1.2-4.1-1.8c-0.2-1-0.3-1.9-0.5-2.9
		C329.7,215.3,328.6,215.2,327.7,215.7L327.7,215.7z M354.1,221.6c-1.6,1.3,0,3.2,0.4,4.8c-1.4,1.4-2.7,2.8-4,4.3
		c-1.9-0.8-5-1.6-5.5,1.3c-0.9,2.4,1.9,3.2,3.5,3.9c0,2,0.1,4,0.2,6c-1.3,0.8-3.2,1.2-3.5,2.9c0.2,1,0.4,2.1,1.3,2.7
		c1.4,1.3,3.1-0.3,4.5-0.6c1.6,1.7,3.3,3.2,5.2,4.5c-0.3,1.1-0.6,2.1-0.8,3.2c0.2,1.9,3,3,4.4,1.7c0.8-1,1.1-2.2,1.7-3.4
		c1.6-0.1,3.3-0.2,4.9-0.3c0.8,1.7,2,4.5,4.4,3.2c2.6-0.8,1.5-3.7,0.7-5.5c1.4-1.4,2.8-2.8,4-4.3c1.3,0.3,2.5,1,3.8,0.8
		c1.3-0.7,1.8-2.2,1.8-3.6c-0.6-1.5-2.4-1.8-3.7-2.5c0-2,0-4-0.2-6c1.1-0.6,2.3-1.1,3.2-2c0.4-1.2,0.1-2.6-0.8-3.5
		c-1.3-1.5-3.2,0-4.7,0.4c-1.1-1.1-2.3-2.3-3.4-3.4c0.5-1.8,1.8-4.7-0.7-5.6c-2.4-1.5-3.8,1.3-4.4,3.1c-2.3-0.2-4.6-0.2-6.9,0
		c-0.7-1.1-1.1-2.5-2.2-3.3C356.2,220.5,355,220.8,354.1,221.6L354.1,221.6z M329.1,245.2c-0.2,1-0.3,2-0.4,3
		c-1.4,0.6-2.8,1.3-4.1,1.9c-1.1-1.3-3.1-2.9-4.3-0.8c-1.4,1.5,0.5,2.9,1.4,4c-0.6,1.4-1.2,2.9-1.8,4.3c-1.6,0.2-4.2,0.2-4.2,2.4
		c-0.3,2.5,2.4,3,4.2,2.9c0.7,1.6,1.5,3.3,2.3,4.9c-0.7,0.9-1.4,1.8-2.1,2.7c0.7,0.7,1.1,1.7,2,2.1c1.5,0.5,2.4-1.2,3.4-2
		c1.1,0.5,2.3,1,3.5,1.4c0.1,1.1,0.1,2.3,0.2,3.4c1.4,0.4,3.2,0.8,4.5-0.2c0.4-1,0.4-2.2,0.5-3.3c1.5-0.6,3-1.2,4.6-1.8
		c1.2,1.1,3.1,2.8,4.5,1c1.6-1.4-0.2-3.2-0.9-4.6c0.5-1.3,1.1-2.6,1.6-3.9c1.8-0.1,4.6-0.3,4.2-2.8c-0.1-2.3-2.6-2.3-4.3-2.5
		c-0.5-1.2-1-2.4-1.4-3.6c0.7-1,1.9-1.7,2.1-3c-0.2-1.4-1.6-1.9-2.5-2.5c-0.8,0.7-1.7,1.4-2.5,2.1c-1.7-1-3.4-1.8-5.3-2.4
		c-0.3-1.2,0.2-3.1-1.4-3.6C331.4,244.4,330.1,244.3,329.1,245.2L329.1,245.2z"/>
	<path class="st3" d="M327.4,222.9c3.4-1.7,7.8,1.5,7.3,5.3c-0.2,3.9-5.3,6.3-8.4,3.8C323.1,229.8,323.7,224.3,327.4,222.9z"/>
	<path class="st3" d="M360.8,230.9c5.5-1.9,11.4,3.8,9.8,9.4c-1.1,5.5-8.5,7.9-12.6,4.1C353.2,240.7,355,232.2,360.8,230.9z"/>
	<path class="st3" d="M329,254.3c3.8-2,8.9,0.8,9.3,5.1c0.7,4.1-3.3,8-7.3,7.4c-3.2-0.3-5.8-3.4-5.7-6.6
		C325.2,257.6,326.7,255.4,329,254.3z"/>
</g>
<g id="Таблетка">
	<path class="st2" d="M353.4,387.6c32.5-18.8,65-37.7,97.6-56.5c32.5,18.9,65,37.7,97.6,56.5c0,37.8,0.1,75.5,0,113.3
		c-32.6,18.7-65,37.6-97.5,56.4c-32.6-18.8-65.1-37.6-97.6-56.5C353.4,463,353.4,425.3,353.4,387.6z"/>
	<path class="st4" d="M353.4,387.6c32.5-18.8,65-37.7,97.6-56.5c32.5,18.9,65,37.7,97.6,56.5c0,37.8,0.1,75.5,0,113.3
		c-32.6,18.7-65,37.6-97.5,56.4c-32.6-18.8-65.1-37.6-97.6-56.5C353.4,463,353.4,425.3,353.4,387.6z M364.7,394.2
		c0,33.3,0,66.6,0,99.9c28.7,16.8,57.5,33.3,86.2,50c28.7-16.6,57.4-33.3,86.2-49.9c0-33.4,0-66.7,0-100.1
		c-28.8-16.6-57.4-33.3-86.2-49.9C422.2,360.9,393.5,377.5,364.7,394.2z"/>
	<path class="st4" d="M455.3,391.1c11.9-3.4,25.4,2.5,31.3,13.3c4.4,7.9,4.6,17.9,0.4,25.9c-1.6,3.1-3.8,5.7-6.1,8.3
		c-15.3,18.3-30.6,36.6-45.9,54.9c-7.9,9.2-22.1,11.7-32.7,6.1c-6.7-3.5-12-9.7-14-17c-2.5-8.5-0.6-18.1,5-24.9
		c15.9-19.1,31.9-38.3,47.9-57.4C444.8,395.9,449.7,392.6,455.3,391.1z M445.1,406.5c-15.5,18.4-30.9,36.9-46.3,55.4
		c-4.7,5.5-6.1,13.1-3.7,19.9c2.9,8.7,12.1,14.7,21.2,13.9c5.6-0.5,10.7-3.2,14.2-7.5c7.9-9.5,15.9-18.9,23.7-28.5
		c-9.5-7.9-18.9-15.9-28.4-23.8c7.3-9.1,15-18,22.4-27c5.8-6.8,15.1-9.6,23.7-9C462.8,396.5,451.5,398.8,445.1,406.5z"/>
	<path class="st4" d="M445.9,486.3c11.2-12.9,21.9-26.3,33-39.3c8,3.1,14.5,10.2,16.6,18.6c2.9,10.8-1.5,23-10.7,29.3
		c-9.9,7.2-24.6,6.3-33.6-2C449.1,491,447.3,488.8,445.9,486.3z M477.3,460.9c-8.2,10-16.9,19.7-24.8,30c2.6-2.7,4.9-5.7,7.3-8.6
		c8.2-9.9,16.6-19.6,24.6-29.6C481.9,455.2,479.7,458.1,477.3,460.9L477.3,460.9z M486,454.3c-10.6,12.4-21,24.9-31.3,37.5
		c4.7-5,8.9-10.6,13.5-15.8C474,468.7,480.4,461.8,486,454.3L486,454.3z M494,472.3c-0.7,3.1-1.3,6.3-2.7,9.2
		c-3.5,7.3-9.9,12.9-17.6,15.2c6.2-1.1,11.7-4.6,15.4-9.7C492.3,482.9,493.7,477.6,494,472.3L494,472.3z"/>
	<path class="st4" d="M424.4,483.6c6.8-7.8,13.3-15.8,19.9-23.8c1,0.8,2.1,1.7,3.1,2.6c-6.4,7.8-12.9,15.6-19.5,23.3
		c-5.7,6.6-15.8,8.4-23.6,4.7C411.6,490.8,419.4,489.2,424.4,483.6z"/>
</g>
<g id="Шапка">
	<path class="st2" d="M457.7,210.2c32.5-18.9,65.1-37.8,97.6-56.6c32.5,18.8,65,37.7,97.5,56.6c0,37.7,0,75.4,0,113.1
		c-32.5,18.8-65,37.7-97.5,56.6l-95.6-55.5c-0.7-0.4-1.3-0.8-2-1.3V210.2z"/>
	<path d="M457.7,210.2c32.5-18.9,65.1-37.8,97.6-56.6c32.5,18.8,65,37.7,97.5,56.6c0,37.7,0,75.4,0,113.1
		c-32.5,18.8-65,37.7-97.5,56.6l-95.6-55.5c-0.7-0.4-1.3-0.8-2-1.3V210.2z M468.7,216.5c0,33.5,0,67,0,100.5
		c28.9,16.7,57.7,33.4,86.6,50.2c28.9-16.8,57.8-33.6,86.7-50.3c-0.1-33.5,0-67-0.1-100.4c-28.9-16.6-57.7-33.5-86.6-50.2
		C526.4,183,497.6,199.7,468.7,216.5z"/>
	<g id="Layer_1_1_">
		<path d="M559.3,207.4l69.7,43.7l-7.4,4.8v31.5h-10.4v-24.7L588,277.1c2.7,1.4,4.7,3,6.7,4.7c5,4.4,8.1,10.2,8.1,15.9
			c0,8.8-6.1,16.2-15.5,21.3c-8.1,4.4-19.2,7.1-31.7,7.1c-12.1,0-23.2-2.7-31.3-7.1c-9.4-5.1-15.5-12.5-15.5-21.3
			c0-5.8,2.7-11.2,7.4-15.6c2-2,4.7-3.7,7.4-5.1L482.5,251l73.1-46L559.3,207.4z M574.1,285.6l-18.5,11.5l-18.2-11.5
			c-5,1.7-9.4,4.1-12.1,6.4c-2,2-3,4.1-3,5.8c0,3.4,3,6.8,8.1,9.5c6.4,3.4,15.5,5.8,25.3,5.8c10.1,0,19.2-2.4,25.3-5.8
			c5-2.7,8.4-6.1,8.4-9.5c0-2-1.3-4.1-3.4-6.1C583.2,289.3,579.2,287.2,574.1,285.6L574.1,285.6z M582.5,237.8l-26.9-17L507.8,251
			l47.8,30.5l48.2-30.5L582.5,237.8z"/>
	</g>
</g>
</svg>
