<?xml version="1.0" encoding="UTF-8" ?>
<!DOCTYPE svg PUBLIC "-//W3C//DTD SVG 1.1//EN" "http://www.w3.org/Graphics/SVG/1.1/DTD/svg11.dtd">
<svg width="512pt" height="512pt" viewBox="0 0 512 512" version="1.1" xmlns="http://www.w3.org/2000/svg">
<g id="#000000ff">
<path fill="#000000" opacity="1.00" d=" M 239.47 16.59 C 280.53 13.78 322.30 21.65 359.39 39.51 C 410.07 63.62 451.67 106.13 474.67 157.32 C 493.86 199.48 500.26 247.30 493.11 293.05 C 487.73 327.63 474.69 361.03 455.06 390.01 C 434.46 420.62 406.70 446.35 374.65 464.61 C 340.45 484.12 301.38 494.98 262.02 495.89 C 221.83 496.94 181.41 487.71 145.74 469.16 C 91.91 441.47 49.33 392.65 29.54 335.41 C 15.36 295.28 12.31 251.32 20.54 209.58 C 28.42 169.21 46.97 131.02 73.80 99.85 C 106.32 61.78 151.01 34.29 199.73 22.69 C 212.78 19.56 226.08 17.49 239.47 16.59 M 235.15 36.17 C 218.55 42.80 205.37 55.74 194.76 69.80 C 181.22 87.99 171.60 108.80 164.03 130.09 C 163.27 132.71 162.22 135.28 161.89 138.01 C 166.80 137.62 171.58 136.31 176.41 135.41 C 188.15 133.15 200.00 131.45 211.90 130.27 C 216.67 129.77 221.52 129.88 226.22 128.87 C 226.34 124.38 225.51 119.83 226.47 115.38 C 227.96 108.66 231.82 102.47 237.27 98.27 C 240.41 95.83 244.23 94.57 247.56 92.46 C 248.43 88.37 247.97 84.15 248.02 80.00 C 247.77 64.33 248.38 48.63 247.77 32.97 C 243.41 33.26 239.20 34.58 235.15 36.17 M 264.23 32.99 C 263.63 47.30 264.20 61.66 264.01 76.00 C 264.11 81.16 263.49 86.39 264.39 91.50 C 268.29 93.69 272.79 94.80 276.25 97.74 C 280.19 100.85 282.49 105.48 286.23 108.78 C 292.50 114.10 303.17 112.64 307.73 105.77 C 310.49 101.35 311.59 96.02 314.92 91.92 C 317.69 88.01 322.08 85.80 325.64 82.74 C 322.00 75.33 316.53 68.97 311.40 62.56 C 299.16 48.44 283.38 35.37 264.23 32.99 M 78.14 120.13 C 59.95 144.11 46.05 171.61 39.05 200.94 C 42.54 197.82 45.67 194.32 49.15 191.18 C 74.96 168.18 107.31 153.89 140.14 144.06 C 141.45 143.57 143.00 142.98 143.46 141.50 C 145.43 136.57 146.53 131.34 148.38 126.36 C 158.06 98.73 171.14 71.73 190.70 49.68 C 193.97 46.01 197.64 42.72 200.93 39.06 C 152.34 50.97 108.50 80.48 78.14 120.13 M 311.04 39.03 C 321.08 49.40 330.99 60.11 338.39 72.60 C 340.07 75.16 341.28 78.19 343.71 80.15 C 347.26 81.80 351.26 82.31 354.75 84.15 C 364.08 89.09 370.54 99.34 370.33 109.98 C 370.34 114.53 368.85 119.03 369.50 123.58 C 370.81 130.51 378.01 135.57 384.96 134.91 C 390.89 134.14 395.94 130.23 401.97 129.82 C 416.21 127.85 430.78 137.34 434.91 151.07 C 437.34 157.40 435.66 164.13 435.36 170.61 C 437.56 172.86 440.42 174.26 443.01 175.99 C 454.14 182.87 463.55 192.04 472.98 200.99 C 469.40 185.77 463.71 171.09 456.83 157.07 C 428.37 99.13 373.83 54.45 311.04 39.03 M 335.45 96.66 C 329.91 97.80 326.42 102.74 324.69 107.80 C 321.10 117.84 311.94 125.52 301.48 127.45 C 292.12 129.29 281.93 126.57 274.87 120.13 C 270.95 116.68 268.69 111.54 264.09 108.84 C 254.92 103.59 241.17 111.14 241.75 122.00 C 242.45 128.60 247.26 134.13 247.12 140.94 C 248.43 156.64 235.54 171.57 219.99 173.12 C 214.11 173.96 208.29 171.60 202.43 172.49 C 192.74 174.36 187.70 187.43 193.62 195.32 C 196.25 199.14 200.98 200.27 205.02 201.97 C 215.83 206.18 223.21 217.45 223.31 228.97 C 223.58 237.69 219.81 246.50 213.12 252.13 C 209.43 255.39 204.33 257.64 202.55 262.58 C 199.32 271.09 205.98 281.47 215.02 282.21 C 221.85 282.74 227.39 277.62 234.07 277.07 C 249.03 274.72 264.72 285.01 268.17 299.82 C 270.36 306.74 267.35 313.83 268.19 320.81 C 270.69 332.24 288.27 335.46 294.72 325.75 C 298.08 320.10 299.65 313.27 304.78 308.78 C 315.12 298.00 333.38 296.70 345.21 305.77 C 350.41 309.29 352.89 315.61 358.24 318.91 C 367.31 324.24 380.95 316.71 380.54 305.99 C 379.93 299.35 375.19 293.77 375.19 286.97 C 373.90 271.71 385.96 256.97 401.04 254.84 C 407.20 253.58 413.35 256.10 419.51 255.36 C 429.18 253.74 434.53 241.07 429.07 232.98 C 426.30 228.55 420.91 227.40 416.46 225.43 C 406.45 221.18 399.66 210.78 399.05 200.03 C 398.48 190.61 402.46 180.83 409.96 174.99 C 413.61 172.00 418.47 169.66 419.89 164.78 C 422.77 156.24 416.09 146.01 407.01 145.54 C 400.19 145.16 394.64 150.30 387.94 150.79 C 372.50 152.98 356.54 141.81 353.77 126.38 C 352.24 119.95 354.97 113.50 354.12 107.08 C 352.47 98.98 343.02 94.72 335.45 96.66 M 160.97 154.96 C 159.45 155.35 157.92 155.77 156.52 156.50 C 154.81 160.25 154.28 164.40 153.34 168.38 C 148.00 192.91 144.97 217.92 144.17 243.01 C 144.13 244.59 144.14 246.18 144.31 247.76 C 157.51 248.45 170.77 247.69 183.99 248.08 C 187.50 247.89 191.53 248.75 194.56 246.49 C 197.78 244.10 200.99 241.66 203.81 238.80 C 209.10 233.30 208.20 223.42 202.24 218.75 C 198.40 215.85 193.47 215.06 189.37 212.62 C 180.53 207.41 174.88 197.26 175.08 186.99 C 175.25 179.16 178.17 171.29 183.59 165.58 C 189.71 159.05 198.91 155.36 207.86 156.32 C 212.57 156.67 217.57 158.18 222.12 156.15 C 226.72 154.26 229.92 149.91 231.01 145.13 C 228.31 144.95 225.59 145.08 222.89 145.26 C 202.04 146.89 181.34 150.24 160.97 154.96 M 112.73 170.73 C 91.81 179.68 71.48 191.08 55.29 207.29 C 44.36 218.29 34.87 232.04 32.98 247.77 C 37.97 248.28 42.99 247.97 48.00 248.00 C 70.00 248.00 92.00 248.00 114.00 248.00 C 118.63 247.97 123.28 248.31 127.89 247.77 C 128.56 242.64 128.30 237.45 128.61 232.30 C 129.57 213.80 131.83 195.36 135.16 177.14 C 136.05 172.06 137.44 167.07 137.97 161.93 C 129.22 163.66 121.00 167.47 112.73 170.73 M 416.15 203.90 C 418.06 209.01 423.34 211.26 428.12 212.91 C 437.76 216.25 444.97 225.21 446.71 235.19 C 447.39 239.39 446.64 243.63 446.67 247.85 C 457.45 248.15 468.29 248.23 479.08 247.79 C 478.41 239.91 475.08 232.52 471.26 225.71 C 461.80 209.59 446.95 197.53 431.51 187.42 C 429.40 186.23 427.40 184.65 425.02 184.08 C 417.29 186.77 412.52 196.27 416.15 203.90 M 32.99 264.23 C 34.50 277.56 41.81 289.57 50.45 299.54 C 71.34 322.94 100.28 337.17 129.33 347.75 C 132.22 348.51 135.00 349.80 137.99 350.09 C 137.45 344.94 136.04 339.95 135.16 334.86 C 131.84 316.63 129.56 298.20 128.61 279.70 C 128.30 274.55 128.55 269.36 127.89 264.23 C 123.28 263.69 118.63 264.03 114.00 264.00 C 92.00 264.01 70.00 264.00 48.00 264.00 C 42.99 264.03 37.97 263.72 32.99 264.23 M 144.31 264.25 C 143.91 269.33 144.42 274.44 144.65 279.52 C 145.87 303.33 149.47 326.99 154.79 350.22 C 155.24 352.00 155.69 353.81 156.53 355.47 C 157.68 356.06 158.93 356.44 160.18 356.79 C 187.65 363.35 215.79 367.04 244.01 367.84 C 245.26 367.86 246.51 367.81 247.76 367.68 C 248.34 362.48 247.93 357.23 247.99 352.00 C 248.04 335.32 247.91 318.64 248.08 301.97 C 248.05 300.08 248.05 298.17 247.66 296.32 C 244.97 293.51 240.79 292.55 237.02 292.90 C 231.70 293.58 227.21 297.00 221.91 297.85 C 209.04 300.42 195.16 293.40 189.42 281.64 C 186.33 276.35 186.26 270.14 185.64 264.23 C 178.78 263.58 171.88 264.17 165.00 264.01 C 158.10 264.16 151.18 263.59 144.31 264.25 M 423.81 270.81 C 417.94 272.46 411.90 271.01 405.98 270.61 C 397.53 269.96 389.86 278.45 391.26 286.77 C 392.42 292.00 395.68 296.58 396.25 301.99 C 397.91 313.34 392.41 325.61 382.27 331.23 C 380.19 332.72 377.14 333.64 376.51 336.44 C 375.21 340.90 374.40 345.51 373.99 350.14 C 379.77 349.09 385.22 346.72 390.72 344.71 C 417.32 334.33 443.49 320.31 462.46 298.49 C 470.63 288.71 477.57 277.10 479.02 264.23 C 470.37 263.60 461.67 264.19 453.00 264.01 C 447.75 264.14 442.43 263.44 437.24 264.38 C 432.64 266.24 428.78 269.78 423.81 270.81 M 39.04 311.05 C 42.71 326.75 48.66 341.87 55.83 356.29 C 84.50 413.54 138.64 457.71 200.95 472.95 C 193.36 465.20 185.76 457.38 179.62 448.39 C 165.38 428.40 155.21 405.79 147.37 382.62 C 145.76 378.20 145.15 373.35 142.74 369.26 C 138.41 366.74 133.28 366.12 128.62 364.38 C 99.97 354.53 71.89 341.20 49.18 320.80 C 45.70 317.66 42.55 314.16 39.04 311.05 M 462.82 320.81 C 440.31 341.02 412.50 354.28 384.13 364.12 C 379.22 365.98 373.84 366.65 369.25 369.25 C 366.85 373.03 366.23 377.61 364.77 381.79 C 355.53 409.48 342.92 436.54 324.00 459.01 C 319.94 463.93 315.20 468.22 310.98 472.99 C 352.45 462.79 390.52 439.77 419.65 408.62 C 445.13 381.22 464.06 347.47 472.97 311.06 C 469.44 314.15 466.30 317.66 462.82 320.81 M 314.33 322.26 C 311.69 326.74 310.52 332.04 307.14 336.11 C 300.44 344.82 288.76 348.97 278.02 347.01 C 273.01 346.52 268.71 343.67 264.09 342.01 C 264.00 350.56 263.68 359.14 264.24 367.68 C 265.48 367.81 266.73 367.86 267.99 367.84 C 296.22 367.04 324.36 363.36 351.83 356.80 C 353.06 356.45 354.30 356.06 355.45 355.47 C 357.70 349.42 359.08 342.96 359.67 336.54 C 355.24 334.66 350.34 333.59 346.54 330.47 C 342.50 327.46 340.06 322.93 336.51 319.44 C 330.32 313.43 318.84 314.91 314.33 322.26 M 161.92 374.03 C 162.16 376.76 163.33 379.29 164.01 381.92 C 173.20 407.59 185.29 432.84 203.84 453.13 C 215.51 465.66 230.34 476.85 247.78 479.03 C 248.28 474.03 247.97 469.01 248.00 464.00 C 248.00 442.00 247.99 420.00 248.01 398.00 C 247.97 393.37 248.31 388.72 247.76 384.11 C 243.21 383.47 238.61 383.72 234.03 383.45 C 213.52 382.36 193.06 380.04 172.92 375.98 C 169.26 375.25 165.63 374.37 161.92 374.03 M 343.19 375.14 C 321.69 379.72 299.80 382.31 277.87 383.45 C 273.32 383.72 268.75 383.47 264.23 384.11 C 263.58 394.05 264.22 404.04 264.00 414.00 C 264.18 435.67 263.66 457.37 264.23 479.03 C 270.59 478.51 276.65 476.13 282.33 473.32 C 294.94 466.98 305.31 457.00 314.15 446.13 C 327.76 429.15 337.49 409.41 345.27 389.19 C 347.05 384.20 349.22 379.27 350.07 374.02 C 347.75 374.21 345.47 374.70 343.19 375.14 Z" />
<path fill="#000000" opacity="1.00" d=" M 275.35 152.44 C 282.14 151.07 289.44 152.85 294.86 157.15 C 302.06 162.71 305.55 172.59 303.39 181.43 C 301.38 190.47 293.73 197.85 284.64 199.56 C 275.29 201.52 265.04 197.20 259.92 189.14 C 255.45 182.43 254.72 173.43 258.14 166.12 C 261.19 159.10 267.86 153.90 275.35 152.44 M 277.41 168.41 C 271.65 170.08 270.07 178.49 274.83 182.13 C 279.09 186.04 286.80 183.47 287.82 177.77 C 289.41 171.95 283.03 166.19 277.41 168.41 Z" />
<path fill="#000000" opacity="1.00" d=" M 355.35 160.44 C 363.53 158.76 372.45 161.78 377.94 168.05 C 383.42 174.14 385.43 183.12 382.98 190.94 C 380.31 200.20 371.60 207.24 362.00 207.92 C 352.66 208.82 343.10 203.61 338.82 195.26 C 335.19 188.60 335.05 180.19 338.47 173.41 C 341.65 166.75 348.13 161.87 355.35 160.44 M 357.41 176.41 C 351.65 178.07 350.08 186.47 354.83 190.13 C 359.08 194.05 366.79 191.46 367.82 185.78 C 369.44 179.95 363.03 174.20 357.41 176.41 Z" />
<path fill="#000000" opacity="1.00" d=" M 285.37 215.47 C 301.29 212.69 318.13 215.70 332.04 223.96 C 338.51 227.86 344.95 232.57 348.54 239.41 C 352.09 246.16 353.17 254.69 349.72 261.70 C 346.61 268.25 340.93 273.53 334.14 276.09 C 318.51 282.18 300.72 280.74 285.31 274.70 C 273.81 269.95 262.50 261.88 258.27 249.68 C 255.47 242.16 257.51 233.58 262.46 227.45 C 267.82 220.19 276.71 216.77 285.37 215.47 M 287.34 231.38 C 282.28 232.37 276.61 234.19 273.85 238.91 C 271.76 242.80 274.11 247.24 276.79 250.18 C 283.53 257.55 293.31 261.23 302.90 263.19 C 311.49 264.72 320.67 264.32 328.76 260.84 C 332.50 259.20 336.66 255.82 335.79 251.24 C 334.99 244.82 329.19 240.93 324.09 237.88 C 313.17 231.28 299.86 229.00 287.34 231.38 Z" />
</g>
</svg>
