<?xml version="1.0" encoding="utf-8"?>
<!-- Generator: Adobe Illustrator 18.1.1, SVG Export Plug-In . SVG Version: 6.00 Build 0)  -->
<svg version="1.2" baseProfile="tiny" id="Layer_1" xmlns="http://www.w3.org/2000/svg" xmlns:xlink="http://www.w3.org/1999/xlink"
	 x="0px" y="0px" viewBox="0 0 900 650" xml:space="preserve">
<rect fill="#8f9092" width="900" height="650"/>
<circle fill="#B3B5B7" cx="450" cy="325" r="260"/>
<g>
	<path fill="#FFFFFF" d="M283.6,228.9c55.4-31.9,110.9-63.9,166.3-96c55.4,31.9,110.9,64.1,166.3,96c0,64.1,0,127.9,0,192
		c-55.4,31.9-110.9,64.1-166.5,96c-55.4-31.9-110.9-64.1-166.3-96C283.6,356.9,283.6,293,283.6,228.9z"/>
	<g>
		<path fill="#4753A4" d="M275,223.9c58.4-33.7,116.7-67.3,174.9-101c58.4,33.7,116.7,67.3,175.1,101c0,67.3,0,134.9,0,202.2
			c-58.4,33.5-116.7,67.3-175.1,101c-58.4-33.7-116.6-67.3-174.9-101C275,358.6,275,291.2,275,223.9z M295.4,235.6
			c0.2,59.6,0,119.1,0,178.5c51.5,29.7,103.1,59.4,154.5,89.3c51.6-29.4,102.9-59.6,154.7-88.9c0.2-59.7,0-119.3,0-179.1
			c-51.6-29.5-102.9-59.6-154.5-89.1C398.6,176.2,347,205.8,295.4,235.6z"/>
	</g>
	<g>
		<g>
			<g>
				<path fill="#4753A4" d="M569.2,355c-0.5-13.6-2.9-28.8-6.6-43.2c-3.6-13.6-7.9-26.4-13.3-36.3c-20.9-36.6-43.3-30.9-70.4-23.8
					c-8.6,2.1-17.8,4.5-27.3,5.4h-2.9c-9.5-0.9-18.6-3.3-27.3-5.4c-27.1-6.9-49.7-12.8-70.4,24c-5.4,9.8-10.2,22.6-13.3,36.3
					c-3.6,14.3-5.9,29.4-6.6,43.2c-0.5,15.2,0.9,26.2,4.1,33.8c3.3,7.1,7.9,11.6,14.3,13.3c5.7,1.6,12.3,0.9,19-2.1
					c11.6-4.8,25-14.8,38-27.1c9.2-9,26.4-13.3,43.7-13.3s34.5,4.5,43.7,13.3c13.1,12.3,26.4,22.3,38,27.1c6.9,2.6,13.3,3.6,19,2.1
					c5.9-1.7,11.1-5.9,14.3-13.6C568.4,381.4,569.9,370.3,569.2,355z M554.9,384.7c-1.7,4.1-4.1,6.6-7.1,7.4
					c-3.3,0.9-7.4,0.3-12.3-1.6c-10.4-4.1-22.6-13.3-34.5-24.7c-11.2-11.2-31.3-16.9-51.1-16.9s-39.9,5.7-51.5,16.4
					c-12.3,11.2-24.3,20.9-34.5,24.7c-4.8,1.7-9,2.6-12.3,1.6c-2.9-0.9-5.4-3.3-7.1-7.4c-2.4-5.7-3.6-14.8-2.9-28.5
					c0.5-12.8,2.6-27.3,6.2-41.1c3.3-12.8,7.4-24.7,12.4-33.7c16.4-29.4,35.4-24.7,58-18.6c9.2,2.4,18.6,4.8,29.2,5.7
					c0.3,0,0.3,0,0.5,0h3.3c0.3,0,0.3,0,0.5,0c10.7-0.9,20.2-3.3,29.4-5.7c22.6-5.7,41.6-10.7,58,18.6c5,9,9.2,20.5,12.4,33.7
					c3.3,13.6,5.7,28,6.2,41.1C558.9,369.3,557.7,378.4,554.9,384.7z"/>
			</g>
		</g>
		<g>
			<g>
				<path fill="#4753A4" d="M422.6,296.9c-2.9-2.6-6.6-4.8-10.7-5c-0.3-3.8-2.1-7.8-4.8-10.4l-0.3-0.3c-3.3-3.3-7.4-5-12.3-5
					c-4.8,0-9.2,2.1-12.3,5c-2.6,2.6-4.8,6.6-5,10.7c-4.1,0.3-7.8,2.1-10.7,4.8l-0.3,0.3c-3.3,3.3-5,7.4-5,12.3
					c0,4.8,2.1,9.2,5,12.3c2.9,3.1,6.6,4.8,11.1,5c0.3,4.1,2.1,7.9,5,10.7c3.3,3.3,7.4,5,12.3,5s9.2-2.1,12.3-5
					c2.6-2.9,4.8-6.6,5-10.7c4.1-0.3,7.9-2.1,10.7-5c3.3-3.3,5-7.4,5-12.3C427.5,304.5,425.6,299.9,422.6,296.9z M415.2,313.7
					c-1.2,1.2-2.6,1.7-4.5,1.7h-4.1c-2.9,0-5.7,2.4-5.7,5.7v3.8c0,1.7-0.5,3.3-1.7,4.5c-1.2,1.2-2.6,1.7-4.5,1.7s-3.3-0.5-4.5-1.7
					s-1.7-2.6-1.7-4.5v-4.1c0-2.9-2.4-5.7-5.7-5.7h-4.1c-1.7,0-3.3-0.5-4.5-1.7c-0.9-0.9-1.7-2.4-1.7-4.1s0.5-3.3,1.7-4.5
					c0,0,0,0,0.3-0.3c1.2-0.9,2.6-1.6,4.1-1.6h4.1c2.9,0,5.7-2.4,5.7-5.7V293c0-1.7,0.5-3.3,1.7-4.5s2.6-1.7,4.5-1.7
					s3.3,0.5,4.5,1.7c0,0,0,0,0.3,0.3c0.9,1.2,1.6,2.6,1.6,4.1v4.1c0,2.9,2.4,5.7,5.7,5.7h4.1c1.7,0,3.3,0.5,4.5,1.7
					c1.2,1.2,1.7,2.6,1.7,4.5C417.1,310.9,416.4,312.5,415.2,313.7z"/>
			</g>
		</g>
		<g>
			<g>
				<circle fill="#4753A4" cx="501.7" cy="288.1" r="10.4"/>
			</g>
		</g>
		<g>
			<g>
				<circle fill="#4753A4" cx="501.7" cy="330.3" r="10.4"/>
			</g>
		</g>
		<g>
			<g>
				<circle fill="#4753A4" cx="480.6" cy="309.2" r="10.4"/>
			</g>
		</g>
		<g>
			<g>
				<circle fill="#4753A4" cx="522.8" cy="309.2" r="10.4"/>
			</g>
		</g>
	</g>
</g>
</svg>
