<?xml version="1.0" encoding="utf-8"?>
<!-- Generator: Adobe Illustrator 18.1.1, SVG Export Plug-In . SVG Version: 6.00 Build 0)  -->
<svg version="1.1" id="Layer_1" xmlns="http://www.w3.org/2000/svg" xmlns:xlink="http://www.w3.org/1999/xlink" x="0px" y="0px"
	 viewBox="0 142.2 1024 739.6" enable-background="new 0 142.2 1024 739.6" xml:space="preserve">
<rect y="142.2" fill="#AAAAAA" width="1024" height="739.6"/>
<circle fill="#BBBBBB" cx="512" cy="512" r="295.8"/>
<g>
	<path fill="#FFFFFF" d="M317.4,399.7c64.9-37.4,129.8-74.8,194.6-112.3c64.9,37.3,129.7,74.9,194.7,112.3c0.1,74.9,0,149.8,0,224.7
		c-65,37.3-129.8,74.9-194.7,112.3c-64.8-37.4-129.6-74.9-194.6-112.3C317.3,549.4,317.3,474.6,317.4,399.7z"/>
	<g>
		<path fill="#2C3E50" d="M312.7,397c66.4-38.3,132.9-76.6,199.2-115c66.5,38.2,132.8,76.7,199.4,115c0.1,76.7,0,153.4,0,230.1
			c-66.5,38.2-132.9,76.7-199.4,115c-66.4-38.3-132.8-76.7-199.2-115C312.7,550.3,312.7,473.7,312.7,397z M336,410.4
			c0.1,67.8-0.1,135.6,0.1,203.4c58.6,33.8,117.4,67.5,175.9,101.6c58.9-33.5,117.2-67.8,176-101.3c0.2-68,0.1-135.9,0.1-203.9
			c-58.8-33.7-117.2-67.8-176-101.4C453.5,342.7,394.7,376.4,336,410.4z"/>
	</g>
	<g id="Layer_25">
		<path fill="#2C3E50" d="M580.6,563.6c-2,0-4-0.7-5.5-2l-38.8-32.4h-15.8c-38,0-68.7-30.8-68.7-68.7s30.8-68.7,68.7-68.7H572
			c38,0.1,68.7,31,68.5,68.9c-0.1,31.2-21.2,58.4-51.4,66.3v28c0,3.4-1.9,6.4-5,7.8C583.1,563.3,581.8,563.6,580.6,563.6z
			 M520.4,408.9c-28.5,0-51.6,23.1-51.6,51.6S492,512,520.4,512h18.9c2,0,4,0.7,5.5,2l27.2,22.6v-16.7c0-4.3,3.1-8,7.4-8.6
			c28.1-4.6,47.1-31.1,42.5-59.2c-4-24.6-25-42.8-49.9-43.2L520.4,408.9L520.4,408.9z"/>
		<rect x="537.6" y="451.9" fill="#2C3E50" width="17.2" height="17.2"/>
		<rect x="494.7" y="451.9" fill="#2C3E50" width="17.2" height="17.2"/>
		<rect x="580.6" y="451.9" fill="#2C3E50" width="17.2" height="17.2"/>
		<path fill="#2C3E50" d="M443.1,632.3c-1.2,0-2.5-0.3-3.6-0.8c-3-1.4-5-4.5-5-7.8v-28c-36.7-9.8-58.5-47.4-48.7-84.1
			c5.3-19.8,19.1-36.2,37.7-44.8c4.2-2.2,9.4-0.6,11.6,3.6s0.6,9.4-3.6,11.6c-0.3,0.2-0.6,0.3-1,0.4c-25.9,11.8-37.4,42.3-25.7,68.2
			c7.2,16,22.1,27.1,39.4,29.7c4.3,0.6,7.4,4.3,7.4,8.6v16.7l27.2-22.6c1.5-1.4,3.4-2.2,5.5-2.3h18.9c13.9,0,27.2-5.6,36.9-15.6
			c3.3-3.4,8.8-3.5,12.2-0.2s3.5,8.8,0.2,12.2l0,0c-12.9,13.3-30.7,20.8-49.2,20.8h-15.8l-38.8,32.4
			C447.1,631.6,445.1,632.3,443.1,632.3z"/>
	</g>
</g>
</svg>
