<?xml version="1.0" encoding="utf-8"?>
<!-- Generator: Adobe Illustrator 18.1.1, SVG Export Plug-In . SVG Version: 6.00 Build 0)  -->
<svg version="1.2" baseProfile="tiny" id="Layer_1" xmlns="http://www.w3.org/2000/svg" xmlns:xlink="http://www.w3.org/1999/xlink"
	 x="0px" y="0px" viewBox="0 0 900 650" xml:space="preserve">
<rect fill="#9B569B" width="900" height="650"/>
<circle fill="#AF78AF" cx="450" cy="325" r="260"/>
<g>
	<g>
		<path fill="#FFFFFF" d="M588.7,412.4c0.9,12.3-8.8,24.2-21.1,25.5C579.2,435.1,588,424.3,588.7,412.4z"/>
		<g>
			<g>
				<path fill="#FFFFFF" d="M455.3,327.6c32.5-18.7,65-37.5,97.5-56.3c32.5,18.7,65,37.6,97.6,56.3c0,37.5,0,75.1,0,112.6
					c-32.6,18.7-65,37.6-97.6,56.3c-32.5-18.8-65-37.6-97.5-56.3C455.3,402.7,455.3,365.2,455.3,327.6z"/>
			</g>
			<g>
				<path fill="#DC3546" d="M455.3,327.5c32.5-18.7,65-37.5,97.5-56.3c32.5,18.7,65,37.6,97.6,56.3c0,37.5,0,75.1,0,112.6
					c-32.6,18.7-65,37.6-97.6,56.3c-32.5-18.8-65-37.6-97.5-56.3C455.3,402.6,455.3,365.1,455.3,327.5z M466.7,334.1
					c0,33.2,0,66.4,0,99.5c28.7,16.6,57.4,33.1,86.1,49.7c28.8-16.4,57.4-33.2,86.2-49.6c0.1-33.3,0-66.5,0-99.8
					c-28.8-16.5-57.4-33.2-86.1-49.6C524.2,301,495.4,317.5,466.7,334.1z"/>
			</g>
			<g>
				<path fill="#DC3546" d="M556.9,331.1c12.5-3.7,27,3,32.3,14.9c3,6.5,3.3,14.2,1,21c-2,5.3-5.9,9.4-9.4,13.7
					c-14.2,16.9-28.3,33.9-42.6,50.8c-5.4,6.4-13.5,10.9-22.1,10.4c-12.3,0-23.7-9.4-26.2-21.4c-1.9-8.3,0.4-17.3,5.9-23.7
					c15.2-18.2,30.5-36.3,45.7-54.5C545.3,337.2,550.6,332.9,556.9,331.1z M545.6,347.6c-14.8,17.8-29.8,35.6-44.7,53.4
					c-5.3,6-6.7,15.4-2.9,22.5c3.5,7.4,11.8,12.2,20,11.6c5.5-0.4,10.8-3.2,14.3-7.4c8.1-9.3,15.9-18.9,23.9-28.3
					c-9.4-8-19-15.8-28.5-23.8c7.4-8.9,14.7-17.8,22.2-26.7c6-7,15.6-9.9,24.6-9.2c-4.3-1.2-8.9-2.2-13.4-1.3
					C555.1,339.3,549.5,342.9,545.6,347.6z"/>
			</g>
		</g>
		<g>
			<path fill="#DC3546" d="M549.8,425.8c11-13,22-25.9,32.8-39c13.4,4.5,21,20.8,16.1,34c-3.9,12.3-17.5,20.3-30.2,17.9
				C560.7,437.5,553.8,432.5,549.8,425.8z M597.6,410.9c-0.7,11.9-9.5,22.7-21.1,25.5C588.8,435.1,598.5,423.2,597.6,410.9z"/>
		</g>
		<path fill="#DC3546" d="M548.2,399.5c0.8,1.1,3.6,2,2.1,3.6c-6.2,7.6-12.6,15.1-19,22.6c-5.8,6.3-15.3,7.3-23.1,4.4
			c4.6-0.4,9.4-0.3,13.6-2.3c4.3-1.9,7.4-5.6,10.3-9.1C537.5,412.2,542.9,405.9,548.2,399.5z"/>
	</g>
	<g>
		<g>
			<g>
				<path fill="#FFFFFF" d="M342.1,274.9c2.5-1.3,5.3-4.2,8.2-2c31.7,18.3,63.4,36.6,95.1,54.9c0,37.6,0,75.2,0,112.8
					c-30.2,17.3-60.3,34.8-90.4,52.1c-2.4,1.3-4.6,3.2-7.3,3.7c-6-3.1-11.7-6.7-17.6-10c-26.5-15.4-53.1-30.6-79.7-46V327.8
					C281,310.2,311.5,292.6,342.1,274.9z"/>
			</g>
			<g>
				<path fill="#EEB422" d="M342.5,274.9c2.5-1.3,5.3-4.2,8.2-2c31.7,18.3,63.4,36.6,95.1,54.9c0,37.6,0,75.2,0,112.8
					c-30.2,17.3-60.3,34.8-90.4,52.1c-2.4,1.3-4.6,3.2-7.3,3.7c-6-3.1-11.7-6.7-17.6-10c-26.5-15.4-53.1-30.6-79.7-46V327.8
					C281.5,310.2,312,292.6,342.5,274.9z M262.1,334.4c0,33.1,0,66.3,0,99.4c28.2,16.4,56.4,32.6,84.6,48.9c1,0.9,2.3,0.7,3.4,0
					c28.1-16.2,56.1-32.5,84.3-48.6c0.7-18.5-0.1-37,0.3-55.5c-0.3-14.8,0.3-29.5-0.3-44.3c-28.8-16.4-57.3-33.3-86.2-49.6
					C319.5,301.4,290.9,318,262.1,334.4z"/>
			</g>
			<g>
				<path fill="#EEB422" d="M337.9,317.7c13.9-1.8,28.4,0.5,40.7,7.4c18.5,9.7,31.6,28.9,34.1,49.6c1.9,14.8-1.3,30.3-9.2,43
					c-7.1,11.7-17.9,21-30.5,26.3c-14.8,6.2-31.8,7-47,1.7c-15.8-5.1-29.1-16.7-36.9-31.2c-7.4-13.7-9.8-30.2-6.4-45.4
					c3.8-17.1,14.5-32.6,29.5-41.8C319.9,322.2,328.7,319,337.9,317.7z M338.8,330.2c-17.1,2.4-32.4,13.8-40,29.3
					c-6.9,13.7-7.3,30.5-1.2,44.6c9.3,23.4,36.8,37.5,61.2,31.5c16.4-3.6,30.9-15.4,37.4-30.9c4.4-9.9,5.6-21.1,3.6-31.7
					c-2.9-15.1-12.7-28.8-26.1-36.3C363.3,330.5,350.7,328.2,338.8,330.2z"/>
			</g>
			<g>
				<path fill="#EEB422" d="M338.8,333c13.4-2.4,27.7,1.3,38.6,9.3c10.2,7.5,17.3,19,19.6,31.4c2,11.3,0.3,23.3-5.3,33.4
					c-6.9,12.9-19.6,22.6-34,25.5c-12.9,3.1-26.8,0.3-37.9-6.7c-13.5-8.5-22.6-23.7-23.5-39.7c-0.7-11.9,2.8-24.2,10.1-33.6
					C314.2,342.2,326.2,335.3,338.8,333z M348.8,345.7c-1.1,2.1-1.1,4.2-0.2,6.4c2.6,1.7,6.2,1,7.5-2c1,1.1,1.9,2.4,3.3,3
					c1.3-0.2,2.7-0.5,4-0.8c0.4,2.5,2.4,3.9,4.5,4.7c-0.1,1.9-0.8,4.3,1,5.6c1.6,0.8,3.5,0.4,5.2,0.3c-0.2,3.2,2.2,5.2,5.2,5.6
					c0,2.1,0.6,4,2.2,5.5c-1.4,1.3-2.5,2.8-3.3,4.5c-1.5-0.3-3.1-0.5-4.7-0.6c-0.1-1.6,0.3-3.4-0.9-4.7c-1.2-1.8-3.7-0.9-5.5-1.1
					c-0.1-2.5-1.7-5.5-4.7-5c-3.1-0.2-3.8,3.4-3.4,5.8c1.2,2.4,3.9,2.2,6.1,2.2c0.4,2,1.1,4,3,5.1c0.7-0.1,2.2-0.2,3-0.2
					c0.1,2.2,0.3,5.3,3,5.9c2.9,0.9,4.8-1.7,5.6-4.1c2.3,0.5,5.5,1.4,6.7-1.3c1.6-2.2-0.4-4.3-1.7-6c1.7-1.1,2.9-2.7,3.5-4.7
					c-1.1-2.3-3-3.9-5.7-3.9c-0.3-1.7,0.3-3.8-1.3-5c-1.4-1.4-3.5-0.8-5.3-0.9c0.1-2.8-1.7-4.6-4.3-5.3c-0.2-1.8,0.7-4.1-1-5.4
					c-1.6-1.8-4.1-0.8-6.1-0.2c-0.4-1.8-1-3.9-3-4.3c-2.2-1-3.8,1.1-5.4,2.2C354.2,345,351.4,344.2,348.8,345.7z M325.8,355.4
					c-6.9,6.1-10.3,15.7-8.9,24.7c-1.9,2-4.3,4.1-4.4,7.1c-0.2,3.8,0.3,8-2.7,11c2,2.6,4.8-0.5,5.1-2.8c0.5-3.8-0.2-8,1.8-11.5
					c-0.2,3.5,0.2,6.9,1.1,10.2c0.7,2.5-1.9,5.3,0.3,7.4c5.3-3.8,1.3-10.4,1.4-15.5c1,2.9,2.2,5.8,4.3,8c1.9,2.1,2,5,2.7,7.6
					c1.6-0.7,2.5-2.1,2.1-3.9c-0.1-3.9-3.8-6.3-5.3-9.6c-0.2-1.5-0.1-2.9-0.1-4.4c8.1-4,12.6-12.9,13.5-21.6c0-3-0.2-7.1-3.2-8.7
					C330.9,352.1,327.8,353.6,325.8,355.4z M350.9,370c-1.6,2,0.3,4.3,1.4,6c-1.6,1.7-4.1,3.8-2.3,6.3c1,2.4,3.8,1.9,5.9,1.9
					c0.3,1.5,0.7,3,1.1,4.5c1.4,0.2,2.9,1.2,4.3,0.6c3.1-0.7,3.8-5.3,1.5-7.2c-1.4-0.9-3.1-0.7-4.7-0.8c-0.6-1.7-1.4-3.3-2.3-4.8
					c1.1-1.5,3.4-3.1,2.6-5.3C358.1,367.5,352.5,367.1,350.9,370z M339.9,394.6c-2.5,2-1.1,6-3.4,8c-1.7,2-4.4,3.8-4.2,6.8
					c0,3.9,3.9,8.2,8,6.7c2.8-0.6,5.8-1.2,8.5,0.1c3.2,1.1,4.7,4.5,7.7,5.9c3.5,1,8.1-0.3,9.3-4c0.5-3.3-1.3-7.9,2.3-9.9
					c3.3-1.5,6.8,0.2,9.5,2.2c-0.1-1.3,0.6-3-0.5-4c-2.3-2-5.5-1.5-8.3-2c2.8-2.7,6.4-3.6,10.2-3.1c-0.4-1.1-0.2-3.2-1.9-2.9
					c-3.1-0.8-5.8,1.3-8.7,2.2c-1.6-0.2-3.2-0.8-4.9-1c-2.5,0.5-5,2.4-7.6,1.1c-3.5-0.8-3.8-5.3-6.9-6.6
					C346.2,392.5,342.4,392.5,339.9,394.6z"/>
			</g>
		</g>
		<path fill="#EEB422" d="M324.3,370.5c2.8-1.6,6.7,0.8,6.2,4c-0.1,3.1-4,4.7-6.4,3C321.5,376.2,321.8,371.9,324.3,370.5z"/>
		<path fill="#EEB422" d="M341.4,401.7c1.3-3.2,6.3-3,7.5,0.1c1,1.6-0.2,3.2-0.7,4.7c-1,0.4-2.1,0.8-3.1,1.2
			c-1.1-0.4-2.1-0.8-3.2-1.1C341.5,405.1,340.4,403.3,341.4,401.7z"/>
	</g>
	<g>
		<g>
			<path fill="#FFFFFF" d="M352.9,149.8c32.5-18.8,65-37.5,97.5-56.3c32.5,18.8,65,37.5,97.6,56.3c0,37.6,0.1,75.1-0.1,112.7
				c-32.6,18.6-65,37.5-97.5,56.2c-32.5-18.8-65-37.6-97.5-56.3C352.9,224.9,352.9,187.3,352.9,149.8z"/>
		</g>
		<g>
			<path fill="#CC33CC" d="M352.9,149.8c32.5-18.8,65-37.5,97.5-56.3c32.5,18.8,65,37.5,97.6,56.3c0,37.6,0.1,75.1-0.1,112.7
				c-32.6,18.6-65,37.5-97.5,56.2c-32.5-18.8-65-37.6-97.5-56.3C352.9,224.9,352.9,187.3,352.9,149.8z M364.4,156.2
				c-0.1,33.2,0,66.4-0.1,99.7c28.7,16.6,57.5,33.1,86.2,49.8c28.7-16.6,57.4-33.1,86.2-49.8c-0.1-33.2,0-66.4,0-99.6
				c-28.7-16.5-57.4-33.2-86.1-49.7C421.8,123.1,393.2,139.7,364.4,156.2z"/>
		</g>
		<g>
			<path fill="#CC33CC" d="M493.8,146.2c0.9,0,1.6,0.6,2.3,1.1c2.7,2.1,5.1,4.7,7,7.5c2.4,3.4,4.4,7.5,4.2,11.8
				c-0.2,4.5-3.4,8.6-7.7,9.8c-3.4,1.1-7.4,0.3-10.1-2.1c-3.3-2.7-4.8-7.6-3.2-11.6c1.3-3,4.1-5,6.3-7.3c1.2-1.3,2.3-3,2.3-4.8
				C494.9,149,494.3,147.6,493.8,146.2z"/>
			<g>
				<path fill="#CC33CC" d="M414,157.3c9-6,19.7-9.2,30.5-9.4c13.5-0.2,27.1,4.7,37.4,13.5c-2.2,6.1,0.4,13.2,5.5,17
					c-1.9,4.4-3,9.1-3.9,13.9c-1.6-2.4-4.1-4.3-6.9-5.1c-3.5-1-7.5-0.4-10.5,1.8c-3.2,2.2-5.3,6.1-5.3,10c-0.1,3.4,1.3,6.8,3.8,9.1
					c2.4,2.3,5.8,3.7,9.1,3.5c3-0.1,5.9-1.4,8.1-3.4c-0.7,9.7-0.4,19.5,0.6,29.1c-3,0.4-6.3,0-8.9-1.9c-2.8-2.1-5.4-4.5-7.4-7.4
					c-0.9-1.2-1.7-2.5-2.7-3.7c-1.3-1.4-3.2-2.3-5.2-2.3c-3.9-0.1-7.7,2-9.6,5.4c-1.3,2.4-1.1,5.3-0.1,7.7c1.7,4.6,4.9,8.4,8.2,12
					c1.1,1.4,2.6,2.6,3.5,4.1c1,1.7,1.9,3.5,1.7,5.5c-0.1,1.2-1,2.1-2.1,2.3c-8.8,2.3-18.1,2.5-26.9,0.5c-9.7-2.2-18.8-7-26.1-13.8
					c-7.7-7.1-13.4-16.5-16.1-26.7c-2.8-10.3-2.6-21.5,0.6-31.7C395,175.3,403.2,164.4,414,157.3z M449.3,163.6
					c-1.4,0.2-2.8,0.7-4,1.5c-3.7,2.4-5.2,7.5-3.3,11.5c1.7,4.2,6.8,6.6,11.2,5.2c4.6-1.3,7.7-6.4,6.5-11.1
					C458.7,166.2,453.9,162.9,449.3,163.6z M416.1,179.5c-3.6,1-6.3,4.3-6.7,7.9c-0.5,3.8,1.7,7.7,5.1,9.4c3.2,1.7,7.4,1.1,10.2-1.2
					c3.2-2.6,4.2-7.4,2.4-11.1C425.3,180.4,420.3,178.2,416.1,179.5z M415.2,214.4c-3.9,0.9-6.8,4.6-7,8.6c-0.3,4.4,3,8.7,7.3,9.6
					c3.8,0.9,8-0.9,10-4.3c1.9-3,1.8-7.1-0.2-10.1C423.2,215,418.9,213.3,415.2,214.4z"/>
			</g>
			<path fill="#CC33CC" d="M491.2,180.5c3.6,1.3,7.6,1.2,11.2-0.2c1.4,3.4,2.3,7,3,10.5c1.5,7.7,2.1,15.5,2.2,23.3
				c0.1,8.7-0.3,17.5-1.6,26.1c-0.9,5.4-1.9,10.9-4.1,16c-0.9,2-2,4.2-3.9,5.4c-1.1,0.7-2.6,0.6-3.6-0.2c-2-1.6-3-4-4-6.3
				c-2.3-6.3-3.3-13.1-4-19.8c-1-10.4-1-20.8-0.1-31.2C487.1,196.1,488.2,188,491.2,180.5z"/>
		</g>
	</g>
</g>
</svg>
