<?xml version="1.0" encoding="utf-8"?>
<!-- Generator: Adobe Illustrator 18.1.1, SVG Export Plug-In . SVG Version: 6.00 Build 0)  -->
<svg version="1.1" id="Layer_1" xmlns="http://www.w3.org/2000/svg" xmlns:xlink="http://www.w3.org/1999/xlink" x="0px" y="0px"
	 viewBox="0 0 447 459" enable-background="new 0 0 447 459" xml:space="preserve">
<path fill="#FFFFFF" d="M370.9,352c0.9,12.8-9.2,25.1-21.9,26.5C361,375.6,370.1,364.3,370.9,352z"/>
<g>
	<g>
		<path fill="#FFFFFF" d="M232.2,263.9c33.8-19.5,67.6-39,101.4-58.5c33.8,19.4,67.6,39,101.4,58.5c0,39,0,78.1,0,117.1
			c-33.8,19.4-67.6,39-101.4,58.5c-33.8-19.5-67.5-39-101.4-58.5C232.2,341.9,232.2,302.9,232.2,263.9z"/>
	</g>
	<g>
		<path fill="#DC3546" d="M232.2,263.8c33.8-19.5,67.6-39,101.4-58.5c33.8,19.4,67.6,39,101.4,58.5c0,39,0,78.1,0,117.1
			c-33.8,19.5-67.6,39-101.4,58.5c-33.8-19.5-67.5-39-101.4-58.5C232.2,341.8,232.2,302.8,232.2,263.8z M244,270.6
			c0.1,34.5,0,69,0,103.5c29.8,17.2,59.7,34.4,89.5,51.7c29.9-17,59.6-34.5,89.6-51.5c0.1-34.6,0-69.1,0-103.7
			c-29.9-17.1-59.6-34.5-89.5-51.6C303.8,236.2,273.9,253.3,244,270.6z"/>
	</g>
	<g>
		<path fill="#DC3546" d="M337.8,267.5c13-3.9,28.1,3.1,33.6,15.5c3.2,6.8,3.5,14.8,1,21.8c-2,5.5-6.1,9.8-9.8,14.2
			c-14.7,17.6-29.5,35.2-44.3,52.8c-5.6,6.7-14,11.3-22.9,10.8c-12.8,0-24.6-9.8-27.3-22.2c-1.9-8.6,0.5-17.9,6.1-24.6
			c15.8-18.9,31.6-37.8,47.5-56.6C325.7,273.8,331.2,269.3,337.8,267.5z M326.1,284.7c-15.4,18.5-31,37-46.4,55.5
			c-5.5,6.3-6.9,16-3,23.4c3.6,7.7,12.3,12.7,20.8,12.1c5.8-0.4,11.2-3.3,14.9-7.7c8.4-9.7,16.5-19.6,24.8-29.4
			c-9.8-8.3-19.7-16.5-29.6-24.7c7.7-9.2,15.3-18.5,23-27.7c6.3-7.3,16.2-10.3,25.6-9.6c-4.5-1.2-9.3-2.3-13.9-1.4
			C335.9,276,330.2,279.7,326.1,284.7z"/>
	</g>
</g>
<g>
	<path fill="#DC3546" d="M330.4,366c11.4-13.5,22.9-26.9,34.1-40.5c14,4.7,21.8,21.6,16.7,35.4c-4.1,12.8-18.2,21.1-31.4,18.6
		C341.7,378.1,334.6,372.9,330.4,366z M380.1,350.4c-0.8,12.3-9.9,23.6-21.9,26.5C371,375.6,381.1,363.2,380.1,350.4z"/>
</g>
<path fill="#DC3546" d="M328.7,338.6c0.8,1.1,3.7,2.1,2.1,3.7c-6.5,7.9-13.1,15.7-19.7,23.5c-6,6.6-15.9,7.6-24,4.6
	c4.8-0.4,9.8-0.3,14.2-2.4c4.5-1.9,7.7-5.8,10.7-9.5C317.6,351.8,323.2,345.3,328.7,338.6z"/>
<g>
	<g>
		<g>
			<path fill="#FFFFFF" d="M114.5,209.1c2.6-1.3,5.6-4.4,8.5-2c32.9,19,65.9,38,98.9,57.1c0,39.1,0,78.2,0,117.2
				c-31.4,18-62.6,36.1-94,54.2c-2.5,1.3-4.8,3.3-7.6,3.9c-6.2-3.2-12.2-7-18.3-10.4c-27.6-16-55.2-31.8-82.8-47.8V264.1
				C51,245.8,82.8,227.5,114.5,209.1z"/>
		</g>
		<g>
			<path fill="#EEB422" d="M115,209.1c2.6-1.3,5.6-4.4,8.5-2c32.9,19,65.9,38,98.9,57.1c0,39.1,0,78.2,0,117.2
				c-31.4,18-62.7,36.1-94,54.2c-2.5,1.3-4.8,3.3-7.6,3.9c-6.2-3.2-12.2-7-18.3-10.4c-27.6-16-55.2-31.8-82.8-47.8V264.1
				C51.5,245.8,83.3,227.5,115,209.1z M31.4,271c-0.1,34.4,0,68.9-0.1,103.3c29.3,17,58.7,33.9,88,50.9c1.1,0.9,2.4,0.7,3.5-0.1
				c29.2-16.8,58.3-33.8,87.6-50.5c0.8-19.2-0.1-38.5,0.3-57.7c-0.3-15.3,0.3-30.7-0.3-46c-29.9-17.1-59.6-34.6-89.6-51.5
				C91.1,236.6,61.3,253.9,31.4,271z"/>
		</g>
		<g>
			<path fill="#EEB422" d="M110.2,253.6c14.4-1.8,29.5,0.5,42.3,7.7c19.2,10.1,32.8,30,35.4,51.5c2,15.4-1.3,31.5-9.6,44.7
				c-7.3,12.1-18.6,21.8-31.7,27.3c-15.4,6.4-33.1,7.3-48.8,1.8c-16.4-5.3-30.3-17.3-38.4-32.5c-7.7-14.3-10.2-31.3-6.7-47.2
				c3.9-17.8,15.1-33.9,30.6-43.5C91.4,258.2,100.6,254.9,110.2,253.6z M111.1,266.6c-17.8,2.5-33.7,14.4-41.5,30.5
				c-7.2,14.3-7.6,31.7-1.3,46.3c9.6,24.3,38.2,39,63.6,32.7c17.1-3.7,32.1-16,38.9-32.1c4.6-10.3,5.8-21.9,3.7-33
				c-3-15.7-13.2-29.9-27.1-37.8C136.6,266.9,123.5,264.5,111.1,266.6z"/>
		</g>
		<g>
			<path fill="#EEB422" d="M111.1,269.5c13.9-2.5,28.8,1.3,40.2,9.7c10.5,7.8,18,19.7,20.4,32.7c2.1,11.7,0.3,24.2-5.5,34.7
				c-7.1,13.5-20.4,23.5-35.3,26.5c-13.4,3.2-27.8,0.3-39.4-7c-14.1-8.9-23.5-24.7-24.4-41.3c-0.7-12.4,2.9-25.1,10.5-35
				C85.6,279.1,98,271.9,111.1,269.5z M121.5,282.6c-1.2,2.1-1.2,4.4-0.2,6.6c2.8,1.8,6.5,1,7.8-2.1c1,1.1,2,2.5,3.4,3.2
				c1.4-0.2,2.8-0.5,4.1-0.8c0.4,2.6,2.5,4,4.7,4.9c-0.1,1.9-0.8,4.5,1.1,5.9c1.7,0.8,3.6,0.4,5.4,0.3c-0.2,3.3,2.3,5.4,5.4,5.8
				c0,2.2,0.7,4.2,2.3,5.7c-1.5,1.3-2.6,2.9-3.5,4.7c-1.6-0.3-3.2-0.5-4.9-0.7c-0.1-1.6,0.3-3.5-0.9-4.8c-1.3-1.9-3.8-1-5.7-1.1
				c-0.2-2.6-1.8-5.7-4.9-5.2c-3.2-0.2-4,3.6-3.5,6c1.2,2.5,4,2.3,6.3,2.3c0.4,2.1,1.2,4.1,3.1,5.3c0.8-0.1,2.3-0.2,3.1-0.3
				c0.1,2.3,0.3,5.5,3.1,6.2c3,1,5-1.8,5.8-4.2c2.3,0.5,5.7,1.4,7-1.4c1.6-2.3-0.4-4.5-1.8-6.2c1.8-1.2,3-2.8,3.6-4.8
				c-1.2-2.4-3.1-4.1-5.9-4c-0.3-1.7,0.3-4-1.3-5.2c-1.5-1.5-3.7-0.9-5.5-0.9c0.1-2.9-1.8-4.8-4.4-5.5c-0.2-1.9,0.7-4.3-1-5.6
				c-1.7-1.9-4.3-0.8-6.3-0.2c-0.4-1.9-1-4-3.2-4.4c-2.2-1.1-4,1.1-5.6,2.3C127.1,281.9,124.2,281.2,121.5,282.6z M97.6,292.8
				c-7.1,6.3-10.7,16.3-9.2,25.7c-1.9,2.1-4.5,4.2-4.6,7.3c-0.3,4,0.3,8.3-2.8,11.4c2.1,2.7,5-0.5,5.3-2.9c0.5-4-0.2-8.3,1.9-12
				c-0.2,3.6,0.2,7.1,1.2,10.6c0.7,2.6-2,5.5,0.3,7.7c5.6-3.9,1.3-10.8,1.5-16.1c1.1,3,2.3,6,4.5,8.4c2,2.1,2.1,5.2,2.8,7.9
				c1.7-0.7,2.6-2.2,2.2-4c-0.1-4.1-3.9-6.5-5.5-10c-0.2-1.5-0.1-3-0.1-4.6c8.4-4.2,13.1-13.4,14-22.5c0-3.2-0.2-7.4-3.4-9
				C102.9,289.3,99.7,290.9,97.6,292.8z M123.7,307.9c-1.7,2.1,0.3,4.5,1.5,6.2c-1.7,1.7-4.3,4-2.4,6.6c1.1,2.4,4,2,6.2,2
				c0.3,1.6,0.7,3.1,1.2,4.7c1.5,0.2,3,1.2,4.5,0.6c3.3-0.7,4-5.5,1.5-7.5c-1.5-0.9-3.3-0.7-4.9-0.8c-0.7-1.7-1.4-3.4-2.4-5
				c1.2-1.6,3.5-3.2,2.7-5.5C131.2,305.4,125.4,304.9,123.7,307.9z M112.3,333.5c-2.6,2.1-1.1,6.2-3.6,8.4c-1.8,2.1-4.6,4-4.4,7
				c0,4,4,8.5,8.3,6.9c2.9-0.7,6.1-1.3,8.9,0.1c3.3,1.1,4.9,4.7,8,6.1c3.6,1.1,8.4-0.4,9.6-4.2c0.5-3.4-1.3-8.2,2.4-10.3
				c3.5-1.5,7.1,0.2,9.8,2.3c-0.1-1.3,0.6-3.1-0.5-4.1c-2.4-2.1-5.8-1.6-8.6-2.1c2.9-2.8,6.7-3.7,10.6-3.2c-0.4-1.1-0.2-3.3-2-3
				c-3.3-0.8-6.1,1.3-9,2.3c-1.7-0.3-3.4-0.8-5.1-1.1c-2.6,0.5-5.2,2.5-7.9,1.1c-3.6-0.9-3.9-5.5-7.2-6.9
				C118.8,331.3,114.9,331.4,112.3,333.5z"/>
		</g>
	</g>
	<path fill="#EEB422" d="M96,308.5c2.9-1.6,6.9,0.8,6.4,4.2c-0.1,3.2-4.1,4.9-6.6,3.1C93.1,314.4,93.4,309.9,96,308.5z"/>
	<path fill="#EEB422" d="M113.8,340.9c1.3-3.3,6.6-3.2,7.8,0.2c1,1.6-0.2,3.3-0.7,4.9c-1.1,0.4-2.2,0.8-3.2,1.2
		c-1.1-0.4-2.2-0.8-3.3-1.2C113.9,344.4,112.7,342.6,113.8,340.9z"/>
</g>
<g>
	<g>
		<path fill="#FFFFFF" d="M125.8,79.1c33.8-19.5,67.6-39,101.4-58.6c33.8,19.5,67.6,39,101.4,58.5c0,39,0.1,78.1-0.1,117.1
			c-33.9,19.4-67.6,39-101.4,58.4c-33.8-19.5-67.5-39.1-101.3-58.5C125.8,157.1,125.8,118.1,125.8,79.1z"/>
	</g>
	<g>
		<path fill="#CC33CC" d="M125.8,79.1c33.8-19.5,67.6-39,101.4-58.6c33.8,19.5,67.6,39,101.4,58.5c0,39,0.1,78.1-0.1,117.1
			c-33.9,19.3-67.6,39-101.4,58.4c-33.8-19.5-67.5-39.1-101.3-58.5C125.8,157.1,125.8,118.1,125.8,79.1z M137.7,85.7
			c-0.1,34.5,0,69.1-0.1,103.6c29.8,17.3,59.7,34.4,89.6,51.7c29.9-17.2,59.7-34.5,89.5-51.7c-0.1-34.5,0-69,0-103.5
			c-29.9-17.2-59.7-34.5-89.5-51.7C197.4,51.4,167.6,68.6,137.7,85.7z"/>
	</g>
	<g>
		<path fill="#CC33CC" d="M272.2,75.3c1,0,1.7,0.6,2.4,1.2c2.8,2.2,5.3,4.9,7.3,7.8c2.5,3.6,4.5,7.8,4.4,12.2
			c-0.2,4.6-3.6,8.9-8,10.2c-3.6,1.1-7.7,0.3-10.5-2.2c-3.4-2.8-5-7.9-3.3-12.1c1.4-3.2,4.3-5.2,6.5-7.6c1.3-1.4,2.3-3.1,2.4-5
			C273.4,78.2,272.8,76.7,272.2,75.3z"/>
		<g>
			<path fill="#CC33CC" d="M189.2,86.9c9.3-6.2,20.5-9.6,31.7-9.7c14.1-0.3,28.1,4.9,38.8,14c-2.3,6.3,0.4,13.7,5.7,17.7
				c-2,4.6-3.2,9.5-4,14.4c-1.7-2.5-4.3-4.5-7.2-5.3c-3.7-1-7.8-0.4-10.9,1.9c-3.3,2.3-5.5,6.3-5.5,10.4c-0.1,3.5,1.4,7.1,3.9,9.5
				c2.5,2.4,6,3.8,9.4,3.6c3.1-0.1,6.1-1.4,8.4-3.5c-0.7,10.1-0.4,20.2,0.7,30.3c-3.2,0.4-6.6,0-9.2-2c-2.9-2.2-5.6-4.7-7.7-7.7
				c-1-1.3-1.8-2.6-2.9-3.8c-1.4-1.5-3.4-2.4-5.4-2.4c-4-0.1-8,2.1-10,5.6c-1.4,2.5-1.1,5.5-0.1,8c1.8,4.8,5.1,8.7,8.5,12.5
				c1.2,1.4,2.7,2.7,3.6,4.3c1,1.7,2,3.7,1.8,5.7c-0.1,1.2-1.1,2.2-2.2,2.4c-9.1,2.4-18.8,2.6-28,0.5c-10.1-2.3-19.5-7.3-27.1-14.3
				c-8-7.4-13.9-17.2-16.7-27.7c-2.9-10.8-2.7-22.3,0.7-33C169.5,105.5,178,94.2,189.2,86.9z M226,93.4c-1.5,0.2-2.9,0.7-4.1,1.6
				c-3.8,2.5-5.4,7.8-3.5,11.9c1.8,4.4,7.1,6.9,11.6,5.5c4.8-1.3,8-6.7,6.7-11.5C235.8,96.1,230.8,92.6,226,93.4z M191.4,109.9
				c-3.7,1-6.6,4.4-7,8.3c-0.5,3.9,1.7,8,5.3,9.7c3.4,1.7,7.7,1.2,10.6-1.3c3.3-2.7,4.4-7.7,2.5-11.5
				C201,110.9,195.9,108.6,191.4,109.9z M190.5,146.2c-4,1-7.1,4.8-7.2,8.9c-0.3,4.6,3.1,9,7.6,9.9c4,1,8.3-1,10.4-4.4
				c2-3.1,1.8-7.4-0.2-10.4C198.8,146.8,194.4,145.1,190.5,146.2z"/>
		</g>
		<path fill="#CC33CC" d="M269.5,111c3.7,1.4,7.9,1.3,11.6-0.2c1.5,3.5,2.4,7.2,3.1,11c1.5,8,2.2,16.1,2.3,24.2
			c0.1,9.1-0.3,18.1-1.6,27.1c-0.9,5.6-2,11.3-4.2,16.6c-1,2.1-2.1,4.4-4.1,5.7c-1.1,0.7-2.7,0.6-3.7-0.2c-2.1-1.6-3.2-4.2-4.1-6.6
			c-2.4-6.6-3.5-13.6-4.2-20.6c-1-10.8-1.1-21.6-0.1-32.4C265.2,127.2,266.4,118.8,269.5,111z"/>
	</g>
</g>
</svg>
