<?xml version="1.0" encoding="utf-8"?>
<!-- Generator: Adobe Illustrator 18.1.1, SVG Export Plug-In . SVG Version: 6.00 Build 0)  -->
<svg version="1.2" baseProfile="tiny" id="Layer_1" xmlns="http://www.w3.org/2000/svg" xmlns:xlink="http://www.w3.org/1999/xlink"
	 x="0px" y="0px" viewBox="0 0 900 650" xml:space="preserve">
<rect fill="#005A51" width="900" height="650"/>
<circle fill="#337B74" cx="450" cy="325" r="260"/>
<g>
	<g>
		<g>
			<path fill="#FFFFFF" d="M445.6,95.4c2.6-1.3,5.4-4.3,8.3-2c32.2,18.6,64.4,37.1,96.6,55.8c0,38.2,0,76.3,0,114.5
				c-30.6,17.6-61.2,35.3-91.8,52.9c-2.4,1.3-4.7,3.2-7.4,3.8c-6.1-3.1-11.9-6.8-17.9-10.2c-26.9-15.6-54-31.1-80.9-46.7V149.1
				C383.6,131.3,414.6,113.4,445.6,95.4z"/>
		</g>
		<g>
			<path fill="#015A51" d="M352.4,149.4c33-19.1,66-38.1,99-57.2c33,19.1,66,38.1,99,57.2c0,38.1,0.1,76.3-0.1,114.4
				c-33.1,18.9-66,38.1-99,57.1c-33-19-66-38.2-99-57.1C352.4,225.6,352.5,187.5,352.4,149.4z M364.1,155.8
				c-0.1,33.7,0,67.5-0.1,101.2c29.1,16.9,58.4,33.6,87.5,50.5c29.2-16.8,58.3-33.6,87.5-50.5c-0.1-33.7,0-67.4,0-101.1
				c-29.2-16.8-58.3-33.7-87.4-50.5C422.4,122.3,393.3,139.1,364.1,155.8z"/>
		</g>
		<g>
			<path fill="#015A51" d="M418.4,150.8c11.2-8.8,25.9-12.3,39.9-10.9c12.5,0.9,25.4,5.4,33.9,14.9c6.3,6.9,9.5,16,10.3,25.2
				c0.4,5.1,0.3,10.5,3.2,15c2.6,4.8,7.9,7.8,9.6,13.3c0.8,1.9-0.8,3.8-2.4,4.6c-2.3,1.3-4.6,2.7-6.5,4.6c1.1,1.8,2.3,3.7,3.4,5.6
				c-2,1-3.9,2-5.9,2.9c1.4,1.9,3.7,3.6,3.9,6.1c-1.2,1.8-3.3,3.2-3.7,5.4c0.2,3.3,2.6,6.3,1.8,9.7c-1.1,3.2-4.2,5.5-7.5,6
				c-7.9,0.9-15.7-0.5-23.6-1.1c-1.9,0-4.1-0.3-5.6,1.1c-0.8,5-0.3,10-0.5,15c-17.1,0.2-34.2,0.3-51.3,0.2c1.1-8.5,2.2-17,3.4-25.5
				c0.3-2,0.4-4-0.2-5.9c-2.8-11.1-10.8-19.7-16.6-29.3c-4.2-7.2-4-15.8-3.7-23.8C401.1,170.9,408.2,158.7,418.4,150.8z
				 M432.2,154.5c-0.1,0.7-0.4,2.1-0.5,2.8c-1.1,0.5-2.1,1-3.2,1.5c-0.9-0.6-1.8-1.2-2.7-1.8c-0.6,0.8-1.3,1.5-1.9,2.3
				c0.4,0.6,1.3,1.7,1.8,2.2c-0.5,1.1-0.9,2.2-1.4,3.2c-1,0.4-3,0.1-3.1,1.7c-0.9,2,1.5,2.7,3,2.7c0.6,1.3,1.2,2.6,1.8,4
				c-1.5,1.7-1.6,3.9,0.9,4.6c0.5-0.5,1.5-1.6,2-2.1c0.7,0.3,2,0.8,2.6,1c0.3,2.2,1.7,3.4,3.9,3.1c0.2-1,0.4-2,0.7-3.1
				c1.2-0.4,2.3-0.9,3.5-1.3c1.4,1.6,3.4,1.7,4.6-0.2c-0.6-0.9-1.2-1.8-1.8-2.6c0.5-1.2,0.9-2.3,1.4-3.5c1-0.4,3.3,0.2,3.1-1.6
				c0.8-2-1.9-2.4-3.2-2.6c-0.4-0.9-0.8-1.7-1.1-2.6c0.7-1,1.3-1.9,2-2.9c-0.9-0.6-1.8-1.2-2.7-1.8c-0.4,0.4-1.3,1.3-1.8,1.7
				c-1.4-0.6-2.8-1.2-4.1-1.8c-0.1-0.7-0.4-2.1-0.5-2.9C434.4,154.5,433.3,154.5,432.2,154.5z M471.4,163.2c-2.3-0.1-4.6-0.1-6.9,0
				c-0.7-1.3-1.5-2.5-2.2-3.7c-1.3,0.5-3.4,0.4-3.9,2.1c-0.3,1.5,0.5,2.9,0.8,4.2c-1.3,1.3-2.6,2.6-3.9,4c-1.4-0.3-2.8-0.7-4.1-1
				c-0.9,1.3-2.3,3.1-1.2,4.7c1,0.8,2.2,1.2,3.3,1.8c0,2,0,4,0,6c-1.7,0.8-4.4,2.1-2.9,4.3c0.8,2.6,3.7,1.5,5.4,0.7
				c1.6,1.6,3.4,3,5.2,4.4c-0.6,1.9-1.4,4.9,1.3,5.5c2.6,1.1,3.6-1.9,4.3-3.7c1.6-0.1,3.2-0.3,4.8-0.4c0.8,2,2.7,4.9,5.1,3
				c2.2-1.2,0.8-3.6,0.3-5.3c1.3-1.4,2.7-2.8,3.9-4.3c1.9,0.7,5,1.7,5.5-1.2c1-2.5-1.7-3.5-3.6-4.3c0-1.9,0-3.9-0.1-5.8
				c1.3-0.8,3.5-1.2,3.5-3.1c-0.1-1.5-1.3-2.4-2.2-3.4c-1.2,0.5-2.5,0.9-3.7,1.4c-1.1-1.2-2.3-2.4-3.4-3.5c0.5-1.8,1.7-5.1-1-5.6
				C473.3,158.8,472.1,161.4,471.4,163.2z M433.6,184.7c-0.2,1-0.3,2-0.4,3c-1.4,0.6-2.8,1.3-4.2,1.9c-0.7-0.7-1.4-1.5-2-2.2
				c-1.6,0.5-2.7,1.4-3.2,3c0.7,0.8,1.5,1.6,2.2,2.4c-0.6,1.4-1.3,2.9-1.9,4.3c-1.3,0.2-2.5,0.4-3.8,0.7c-0.1,1.3-0.8,2.9,0.4,4
				c1.2,0.4,2.4,0.6,3.5,1.1c0.9,1.5,1.5,3,2.3,4.6c-0.7,0.9-1.5,1.9-2.2,2.8c1,0.9,2,3.2,3.6,2c0.5-0.4,1.5-1.3,2.1-1.7
				c1.1,0.5,2.3,0.9,3.4,1.4c0,1.2,0.1,2.3,0.1,3.4c1.5,0.4,3.7,1,4.7-0.5c0.1-0.7,0.3-2.2,0.5-3c1.5-0.6,3-1.3,4.6-1.9
				c0.8,0.7,1.7,1.5,2.5,2.2c1.3-0.5,2.4-1.5,3-2.7c-0.7-1-1.3-2-2-3c0.5-1.3,1.1-2.5,1.6-3.8c1.4-0.5,4.2,0,4.2-2.1
				c0.7-2.6-2.1-3.7-4.2-3.5c-0.5-1.2-1-2.3-1.4-3.5c0.8-1.3,3.1-2.9,1.4-4.5c-1.2-2-3.4-0.2-4.6,0.8c-1.7-0.8-3.5-1.6-5.3-2.3
				c-0.1-1.1-0.2-2.1-0.3-3.2C436.8,184,434.9,183.4,433.6,184.7z"/>
		</g>
		<path fill="#015A51" d="M431.3,162.6c3-2.1,7.6,0.2,7.9,3.8c0.8,4.1-4.2,7.6-7.7,5.3C428,169.9,427.9,164.4,431.3,162.6z"/>
		<path fill="#015A51" d="M465.4,170.4c5-2.1,10.9,2.3,10.4,7.6c0.1,5.8-7.5,9.8-12.1,6.2C458.4,181.1,459.5,172.2,465.4,170.4z"/>
		<path fill="#015A51" d="M433.2,194c4-2.4,9.7,0.9,9.7,5.5c0.4,5.2-6.5,9.1-10.5,5.5C428.6,202.4,429.3,196.1,433.2,194z"/>
	</g>
	<g>
		<g>
			<path fill="#FFFFFF" d="M545.3,272.4c2.6-1.3,5.4-4.3,8.3-2c32.2,18.6,64.4,37.1,96.6,55.8c0,38.2,0,76.3,0,114.5
				c-30.6,17.6-61.2,35.3-91.8,52.9c-2.4,1.3-4.7,3.2-7.4,3.8c-6.1-3.1-11.9-6.8-17.9-10.2c-26.9-15.6-54-31.1-80.9-46.7V326.1
				C483.3,308.3,514.3,290.4,545.3,272.4z"/>
		</g>
		<g>
			<path fill="#DC3546" d="M452.2,326.4c33-19,66-38.1,99-57.1c33,19,66,38.1,99.1,57.1c0,38.1,0,76.2,0,114.3
				c-33.1,19-66,38.1-99.1,57.1c-33-19-66-38.1-99-57.1C452.2,402.6,452.2,364.5,452.2,326.4z M463.8,333c0,33.7,0,67.4,0,101
				c29.1,16.8,58.3,33.6,87.4,50.5c29.2-16.6,58.2-33.7,87.5-50.3c0.1-33.8,0-67.5,0-101.3c-29.2-16.7-58.2-33.7-87.4-50.4
				C522.1,299.4,492.9,316.1,463.8,333z"/>
		</g>
		<g>
			<path fill="#DC3546" d="M555.3,330c12.7-3.8,27.5,3.1,32.8,15.1c3.1,6.6,3.4,14.4,1,21.3c-2,5.3-6,9.6-9.6,13.9
				c-14.4,17.2-28.8,34.4-43.2,51.6c-5.5,6.5-13.7,11.1-22.4,10.6c-12.5,0-24.1-9.5-26.6-21.7c-1.9-8.4,0.4-17.5,6-24.1
				c15.5-18.4,30.9-36.9,46.3-55.3C543.6,336.1,548.9,331.8,555.3,330z M543.9,346.7c-15.1,18.1-30.3,36.1-45.3,54.2
				c-5.4,6.1-6.8,15.6-2.9,22.9c3.5,7.6,12,12.4,20.3,11.8c5.6-0.4,10.9-3.2,14.6-7.5c8.2-9.5,16.1-19.2,24.2-28.7
				c-9.5-8.2-19.3-16.1-28.9-24.1c7.5-9,14.9-18.1,22.5-27.1c6.1-7.1,15.8-10,25-9.4c-4.4-1.2-9-2.2-13.6-1.4
				C553.5,338.3,547.9,341.9,543.9,346.7z"/>
		</g>
		<g>
			<path fill="#DC3546" d="M546.2,426.2c11.1-13.2,22.3-26.3,33.3-39.6c13.6,4.6,21.3,21.1,16.3,34.5c-4,12.5-17.8,20.6-30.7,18.1
				C557.2,438,550.3,432.9,546.2,426.2z M594.8,411c-0.8,12.1-9.6,23-21.4,25.9C585.8,435.5,595.7,423.5,594.8,411z"/>
		</g>
		<path fill="#DC3546" d="M544.5,399.4c0.8,1.1,3.6,2,2.1,3.6c-6.3,7.7-12.8,15.4-19.2,23c-5.8,6.4-15.6,7.4-23.4,4.5
			c4.7-0.4,9.5-0.3,13.9-2.4c4.4-1.9,7.5-5.7,10.5-9.2C533.7,412.3,539.2,405.9,544.5,399.4z"/>
	</g>
	<g>
		<g>
			<path fill="#FFFFFF" d="M343.4,271c2.6-1.3,5.4-4.3,8.3-2c32.2,18.6,64.4,37.1,96.6,55.8c0,38.2,0,76.3,0,114.5
				c-30.6,17.6-61.2,35.3-91.8,52.9c-2.4,1.3-4.7,3.2-7.4,3.8c-6.1-3.1-11.9-6.8-17.9-10.2c-26.9-15.6-54-31.1-80.9-46.7V324.7
				C281.3,306.9,312.4,289,343.4,271z"/>
		</g>
		<g>
			<path fill="#EEB422" d="M343.4,271c2.6-1.3,5.4-4.3,8.3-2c32.2,18.6,64.4,37.1,96.6,55.8c0,38.2,0,76.3,0,114.5
				c-30.6,17.6-61.2,35.3-91.8,52.9c-2.4,1.3-4.7,3.2-7.4,3.8c-6.1-3.1-11.9-6.8-17.9-10.2c-26.9-15.6-54-31.1-80.9-46.7V324.7
				C281.4,306.9,312.4,289,343.4,271z M261.7,331.5c0,33.6,0,67.3,0,100.9c28.6,16.6,57.3,33.1,85.9,49.7c1.1,0.9,2.4,0.7,3.5,0
				c28.5-16.5,57-33,85.5-49.3c0.8-18.8-0.1-37.6,0.3-56.4c-0.3-15,0.3-30-0.3-45c-29.2-16.7-58.2-33.8-87.5-50.3
				C320,297.9,290.9,314.8,261.7,331.5z"/>
		</g>
		<g>
			<path fill="#EEB422" d="M338.6,314.5c14.1-1.8,28.8,0.5,41.3,7.5c18.7,9.9,32,29.3,34.6,50.3c1.9,15-1.3,30.8-9.4,43.7
				c-7.2,11.8-18.2,21.3-30.9,26.7c-15,6.3-32.3,7.1-47.7,1.7c-16-5.2-29.6-16.9-37.5-31.7c-7.5-13.9-9.9-30.6-6.5-46.1
				c3.9-17.3,14.7-33.1,29.9-42.4C320.3,319,329.3,315.8,338.6,314.5z M339.6,327.2c-17.4,2.4-32.9,14-40.6,29.8
				c-7,13.9-7.4,31-1.2,45.3c9.4,23.8,37.3,38.1,62.1,32c16.7-3.6,31.3-15.6,38-31.4c4.5-10,5.7-21.4,3.6-32.2
				c-2.9-15.3-12.9-29.2-26.5-36.9C364.4,327.5,351.7,325.2,339.6,327.2z"/>
		</g>
		<g>
			<path fill="#EEB422" d="M339.6,330c13.6-2.4,28.1,1.3,39.2,9.5c10.3,7.6,17.6,19.3,19.9,31.9c2,11.5,0.3,23.6-5.3,33.9
				c-7,13.1-19.9,23-34.5,25.9c-13,3.1-27.2,0.3-38.5-6.8c-13.7-8.6-22.9-24.1-23.8-40.3c-0.7-12.1,2.8-24.5,10.3-34.2
				C314.6,339.4,326.7,332.4,339.6,330z M349.7,342.9c-1.1,2.1-1.1,4.3-0.2,6.5c2.7,1.8,6.3,1,7.6-2.1c1,1.1,1.9,2.4,3.4,3.1
				c1.4-0.2,2.7-0.5,4.1-0.8c0.4,2.5,2.4,3.9,4.6,4.8c-0.1,1.9-0.8,4.3,1.1,5.7c1.6,0.8,3.5,0.4,5.2,0.3c-0.2,3.2,2.2,5.3,5.3,5.6
				c0,2.1,0.6,4.1,2.3,5.5c-1.4,1.3-2.6,2.8-3.4,4.6c-1.6-0.3-3.2-0.5-4.7-0.6c-0.1-1.6,0.3-3.4-0.9-4.7c-1.2-1.8-3.7-0.9-5.5-1.1
				c-0.1-2.6-1.7-5.6-4.8-5.1c-3.1-0.2-3.9,3.5-3.4,5.9c1.2,2.4,3.9,2.3,6.2,2.2c0.4,2.1,1.1,4,3,5.2c0.8-0.1,2.2-0.2,3-0.2
				c0.1,2.3,0.3,5.4,3,6c2.9,0.9,4.9-1.8,5.7-4.1c2.3,0.5,5.6,1.4,6.8-1.4c1.6-2.2-0.4-4.4-1.8-6c1.7-1.1,2.9-2.8,3.5-4.7
				c-1.1-2.3-3.1-4-5.8-4c-0.3-1.7,0.3-3.9-1.3-5c-1.5-1.4-3.6-0.8-5.4-0.9c0.1-2.8-1.8-4.7-4.3-5.4c-0.2-1.8,0.7-4.2-1-5.5
				c-1.7-1.8-4.2-0.8-6.2-0.2c-0.4-1.8-1-3.9-3.1-4.3c-2.2-1.1-3.9,1.1-5.5,2.2C355.2,342.2,352.4,341.4,349.7,342.9z M326.4,352.8
				c-7,6.2-10.4,15.9-9,25.1c-1.9,2.1-4.4,4.1-4.5,7.2c-0.2,3.9,0.3,8.1-2.7,11.2c2,2.6,4.8-0.5,5.2-2.8c0.5-3.9-0.2-8.1,1.9-11.7
				c-0.2,3.5,0.2,7,1.2,10.4c0.7,2.5-1.9,5.3,0.3,7.5c5.4-3.8,1.3-10.5,1.4-15.7c1,2.9,2.2,5.8,4.4,8.2c2,2.1,2,5.1,2.7,7.7
				c1.6-0.7,2.5-2.2,2.2-4c-0.1-4-3.8-6.3-5.4-9.7c-0.2-1.5-0.1-3-0.1-4.5c8.2-4.1,12.8-13.1,13.7-22c0-3.1-0.2-7.2-3.3-8.8
				C331.5,349.4,328.4,350.9,326.4,352.8z M351.9,367.6c-1.7,2.1,0.3,4.4,1.5,6.1c-1.6,1.7-4.2,3.9-2.3,6.4c1.1,2.4,3.9,1.9,6,1.9
				c0.3,1.5,0.7,3.1,1.1,4.6c1.4,0.2,2.9,1.2,4.4,0.6c3.2-0.7,3.9-5.4,1.5-7.3c-1.4-0.9-3.2-0.7-4.8-0.8c-0.6-1.7-1.4-3.3-2.3-4.9
				c1.2-1.6,3.4-3.1,2.6-5.3C359.1,365.1,353.5,364.6,351.9,367.6z M340.7,392.6c-2.5,2.1-1.1,6-3.5,8.2c-1.8,2-4.5,3.9-4.3,6.9
				c0,3.9,3.9,8.3,8.1,6.8c2.8-0.7,5.9-1.2,8.7,0.1c3.2,1.1,4.8,4.6,7.8,6c3.5,1,8.2-0.4,9.4-4.1c0.5-3.4-1.3-8,2.4-10.1
				c3.4-1.5,6.9,0.2,9.6,2.2c-0.1-1.3,0.6-3-0.5-4c-2.3-2-5.6-1.5-8.4-2c2.8-2.7,6.5-3.6,10.3-3.2c-0.4-1.1-0.2-3.2-2-3
				c-3.2-0.8-5.9,1.3-8.8,2.2c-1.7-0.2-3.3-0.8-4.9-1c-2.5,0.5-5.1,2.4-7.7,1.1c-3.6-0.8-3.8-5.3-7-6.7
				C347,390.4,343.2,390.5,340.7,392.6z"/>
		</g>
		<path fill="#EEB422" d="M324.8,368.1c2.8-1.6,6.8,0.8,6.3,4.1c-0.1,3.1-4,4.7-6.5,3.1C322,373.8,322.3,369.5,324.8,368.1z"/>
		<path fill="#EEB422" d="M342.2,399.8c1.3-3.3,6.4-3.1,7.6,0.1c1,1.6-0.2,3.3-0.7,4.8c-1.1,0.4-2.1,0.8-3.1,1.2
			c-1.1-0.4-2.2-0.8-3.3-1.1C342.3,403.2,341.2,401.4,342.2,399.8z"/>
	</g>
</g>
</svg>
