<?xml version="1.0" encoding="utf-8"?>
<!-- Generator: Adobe Illustrator 18.1.1, SVG Export Plug-In . SVG Version: 6.00 Build 0)  -->
<svg version="1.2" baseProfile="tiny" id="Layer_1" xmlns="http://www.w3.org/2000/svg" xmlns:xlink="http://www.w3.org/1999/xlink"
	 x="0px" y="0px" viewBox="0 0 900 650" xml:space="preserve">
<rect fill="#DC3546" width="900" height="650"/>
<circle fill="#E35D6B" cx="450" cy="325" r="260"/>
<g>
	<g id="pill">
		<g>
			<path fill="#FFFFFF" d="M255.8,206.3c28.1-16.2,56.1-32.4,84.2-48.6c4.1-2.4,9.2-2.4,13.3,0c28,16.2,56.1,32.4,84.1,48.6
				c4.1,2.4,6.7,6.8,6.7,11.5c0,32.5,0.1,64.9,0,97.4c0,4.8-2.6,9.2-6.7,11.5c-28.1,16.1-56.1,32.4-84.1,48.5
				c-4.1,2.4-9.2,2.4-13.3,0c-28.1-16.2-56.1-32.4-84.2-48.6c-4.1-2.4-6.7-6.8-6.7-11.5c0-32.4,0-64.9,0-97.3
				C249.1,213.1,251.7,208.7,255.8,206.3z"/>
		</g>
		<g>
			<path fill="#DC3546" d="M249.1,210.1c32.5-18.7,65-37.5,97.5-56.3c32.5,18.8,65,37.5,97.5,56.3c0,37.6,0.1,75.2,0,112.8
				c-32.5,18.7-64.9,37.5-97.4,56.2c-32.5-18.7-65-37.5-97.5-56.3C249.2,285.3,249.1,247.7,249.1,210.1z M260.5,216.7
				c0,33.1,0,66.3,0,99.4c28.7,16.7,57.5,33.2,86.2,49.8c28.7-16.6,57.4-33.2,86.1-49.7c0-33.2,0.1-66.4,0-99.6
				c-28.7-16.5-57.4-33.1-86.1-49.6C317.9,183.6,289.2,200.2,260.5,216.7z"/>
		</g>
		<g>
			<path fill="#DC3546" d="M350.9,213.6c11.9-3.4,25.4,2.5,31.3,13.3c4.4,7.8,4.6,17.9,0.4,25.8c-1.6,3.1-3.8,5.7-6.1,8.3
				c-15.3,18.2-30.5,36.5-45.9,54.6c-7.9,9.2-22.1,11.6-32.7,6c-6.7-3.5-12-9.6-14-16.9c-2.5-8.4-0.6-18,5.1-24.8
				c15.9-19.1,31.9-38.1,47.9-57.1C340.5,218.4,345.4,215.1,350.9,213.6z M340.7,229c-15.4,18.3-30.8,36.7-46.2,55.1
				c-4.6,5.4-6.1,13.2-3.7,19.8c2.9,8.6,12.1,14.7,21.2,13.9c5.5-0.4,10.7-3.2,14.2-7.5c7.9-9.4,15.9-18.8,23.7-28.3
				c-9.5-7.8-18.9-15.8-28.4-23.7c7.3-9.1,15-17.9,22.4-26.9c5.8-6.8,15-9.5,23.7-8.9C358.5,219,347.2,221.3,340.7,229z"/>
		</g>
		<g>
			<path fill="#DC3546" d="M341.6,308.4c11.2-12.9,21.9-26.1,33-39.1c8,3.1,14.5,10.1,16.6,18.5c2.9,10.7-1.5,22.9-10.7,29.2
				c-9.9,7.1-24.6,6.3-33.6-2C344.7,313.2,343,310.9,341.6,308.4z M373,283.1c-8.2,10-16.9,19.6-24.8,29.9c2.6-2.7,4.9-5.7,7.3-8.6
				c8.2-9.9,16.6-19.5,24.6-29.5C377.5,277.4,375.4,280.4,373,283.1z M381.7,276.6c-10.5,12.3-21,24.8-31.3,37.3
				c4.7-5,8.9-10.5,13.4-15.7C369.7,290.9,376.1,284,381.7,276.6z M389.7,294.5c-0.7,3.1-1.3,6.3-2.7,9.2
				c-3.4,7.3-10,12.8-17.6,15.2c6.2-1,11.8-4.6,15.4-9.7C388,305,389.3,299.7,389.7,294.5z"/>
		</g>
		<path fill="#DC3546" d="M320.1,305.8c6.8-7.8,13.3-15.8,19.9-23.7c1,0.8,2.1,1.7,3.1,2.6c-6.4,7.8-12.9,15.5-19.4,23.2
			c-5.7,6.5-15.8,8.4-23.6,4.6C307.3,312.9,315.1,311.4,320.1,305.8z"/>
	</g>
	<g id="doctor">
		<g>
			<g>
				<path fill="#FFFFFF" d="M460.7,206.2c28.1-16.2,56.1-32.4,84.2-48.6c4.1-2.4,9.2-2.4,13.3,0c28,16.2,56.1,32.4,84.1,48.6
					c4.1,2.4,6.7,6.8,6.7,11.5c0,32.5,0.1,64.9,0,97.4c0,4.8-2.6,9.2-6.7,11.5c-28.1,16.1-56.1,32.4-84.1,48.5
					c-4.1,2.4-9.2,2.4-13.3,0c-28.1-16.2-56.1-32.4-84.2-48.6c-4.1-2.4-6.7-6.8-6.7-11.5c0-32.4,0-64.9,0-97.3
					C454,213,456.6,208.6,460.7,206.2z"/>
			</g>
			<path fill="#0099CC" d="M453.9,210.1c32.5-18.8,65.1-37.6,97.6-56.4c32.5,18.8,65,37.5,97.5,56.3c0,35.3,0,70.5,0,105.8
				c-0.2,2.3,0.6,5-0.4,7.1c-32.3,18.8-64.7,37.4-97.1,56.1c-32.5-18.8-65-37.6-97.6-56.3C453.9,285.2,454,247.7,453.9,210.1z
				 M550,167.8c-28.2,16.3-56.5,32.6-84.7,48.9c0,33.1,0,66.2,0,99.4c6.7,4,13.6,7.8,20.3,11.8c-0.2-6.3,1-12.6,1.8-18.8
				c1.1-7.1,2.5-14.4,5.5-21c1.8-4.1,5.6-6.8,9.5-8.6c4.8-2.3,9.8-4.2,15.1-5.1c-4.2,12.8-3.9,26.6-0.9,39.6
				c0.7,3.2,2.2,6.1,2.3,9.4c-0.9,1.9-2.1,3.9-1.4,6.1c0.6,4.4,5.9,6.9,9.8,5.2c4.1-1.4,5.9-7.1,3.2-10.5c-1.4-2.3-4.2-3.2-6.7-3.5
				c-1.7-5-3.5-10-3.7-15.3c-1.3-10-0.9-20.4,2.3-30c1-3.8,5.4-4.1,8.6-4.9c2.3,10.2,7.5,19.5,12.7,28.5c0.6-3.7,1.4-7.4,2.1-11.1
				c0.6-2.3-0.7-4.3-1.5-6.4c2-1.7,4-3.6,6.3-5c1.8,1.7,3.7,3.4,5.6,5c-0.6,1.8-1.8,3.6-1.4,5.6c0.4,3.9,1.4,7.7,1.9,11.6
				c5.5-8.9,10-18.4,13-28.4c3.3,0.8,6.5,2.1,9.8,2.9c1.2,5.6,0.8,11.5-0.5,17c-2.4,0.2-5,0.1-7.3,1.2c-4.2,1.9-7.3,5.8-8.7,10.2
				c-2,6.1-4.7,12.1-6.4,18.3c-0.8,3.2-1.6,6.8,0.1,9.8c1.6,2.6,4.6,4.6,7.7,4c1.6-0.3,1.4-2.4,0.9-3.5c-1.1-1.7-4.4-1.3-4.4-3.8
				c-0.4-5.4,1.9-10.4,3.9-15.3c1.3-2.9,2.1-6.1,3.3-9c1.7-4.2,6.1-7.3,10.7-6.9c4.4,0.2,8.6,3.6,9.5,8.1c0.6,3.7-0.2,7.5-0.5,11.2
				c-0.5,5.6-0.3,11.6-2.8,16.8c-1.3,2.9-5.2,1-7.2,2.7c-0.1,1.2-0.5,2.7,0.8,3.3c3.4,1,8,1.1,10-2.4c3.6-6.1,3.4-13.6,4-20.5
				c0.2-4.8,1.7-9.8-0.1-14.5c-1.5-4-5.2-6.6-8.7-8.6c1.1-5.4,1.8-11,0.9-16.4c5.8,1.4,11.5,3.5,16.6,6.6c3.3,2,5.7,5.1,7,8.7
				c1.9,5.2,3.2,10.7,4.2,16.2c1.4,7.4,1.5,15,3.8,22.3c7.1-4,14.1-8.2,21.2-12.2c0.1-2.1,0.2-4.3,0.1-6.4
				c-0.1-31.1,0.1-62.2-0.2-93.3c-28.4-16.2-56.7-32.7-85-49C551.7,166.8,550.8,167.3,550,167.8z"/>
		</g>
		<path fill="#0099CC" d="M537.5,196.2c5.9-1.9,15.5-2,20.7-1.4c12.8,1.2,21.2,9.2,21.5,21.3c0,9.6,0.5,19.6-3.4,28.6
			c-3.4,7.8-9.1,15-17,18.5c-6.6,3-14.8,2.7-20.7-1.7c-5.4-4.1-9.4-9.8-12.1-16c-3.6-8-5.5-16.8-5.7-25.6
			c-0.2-5.3,0.9-10.9,4.1-15.3C527.8,200.3,532.5,197.4,537.5,196.2z"/>
	</g>
	<g id="book">
		<g>
			<path fill="#FFFFFF" d="M357.7,384.1c28.7-16.6,57.4-33.3,86.2-49.7c3.6-2,8-2,11.5,0c28.6,16.6,57.2,33.1,85.8,49.5
				c3.6,2.1,5.8,5.8,5.8,10c0.1,33.2,0,66.3,0,99.5c0,4.1-2.2,7.9-5.8,10c-28.6,16.5-57.1,33-85.7,49.5c-0.1,0.1-0.2,0.1-0.3,0.2
				c-3.6,2.1-8.1,2-11.7-0.1c-0.3-0.2-0.6-0.3-0.9-0.5c-28.3-16.3-56.6-32.7-85-49c-3.6-2.1-5.8-5.9-5.8-10c-0.1-33.1,0-66.2,0-99.3
				C351.9,390,354.1,386.2,357.7,384.1z"/>
		</g>
		<g>
			<path fill="#FF9A66" d="M351.9,387.6c32.6-18.8,65.1-37.7,97.7-56.3c32.4,18.8,64.8,37.5,97.3,56.2c0.1,37.6,0,75.2,0.1,112.8
				c-30.5,17.6-61,35.2-91.4,52.8c-2,1.1-3.8,2.4-5.9,3.2c-2.5-0.7-4.6-2.4-6.9-3.6c-30.3-17.5-60.5-35-90.8-52.4
				C351.9,462.7,352,425.1,351.9,387.6z M445.2,346.9c-27.3,15.8-54.6,31.5-81.9,47.4c0.1,33.1,0,66.2,0,99.4
				c28.8,16.6,57.5,33.3,86.3,49.8c28.7-16.6,57.3-33.2,86-49.7c0.1-33.2,0.1-66.4,0-99.6c-28.3-16.3-56.5-32.7-84.9-48.9
				C448.8,344,446.9,346.1,445.2,346.9z"/>
		</g>
		<g>
			<path fill="#FF9A66" d="M422.8,381.3c22.8-0.4,45.7-0.1,68.5-0.2c3.8-0.2,7.6,2.1,9.3,5.5c1.7,3,1.4,6.7,0.3,9.9
				c-7.1,23.5-14.2,47-21.3,70.4c-1.3,3.8-2.5,8-5.3,11c-3.2,2.7-7.8,2.5-11.7,2.6c-21.4,0-42.8,0-64.2,0c-1.8,0-4.5,0-4.8,2.4
				c0,2.6,1.7,5.1,4,6.1c2.6,1.3,5.5,1.4,8.3,1.4c23.4,0,46.9,0,70.3,0c3.3,0.2,6.9-1.5,7.7-4.9c7.3-24,14.6-48,21.9-72
				c1-2.7,1.6-5.6,1.8-8.5c5.1,1.9,7.7,7.9,6,13c-6.9,23.1-14,46.2-21,69.4c-1.6,7.4-8.7,13.4-16.4,13.2c-23.4,0-46.9,0-70.3,0
				c-9.7,0.3-18.8-7.3-20.9-16.7c-1.1-4.3,1.2-8.6,0.9-12.9c0-1.7-0.6-3.6,0.7-5c3.5-4.8,6-10.2,7.7-15.9c0.9-2.7-0.4-5.9,1.6-8.1
				c2.9-3.8,4.6-8.4,6-13c0.9-2.5,0.3-5.2,0.5-7.8c1.2-2.2,3.4-3.7,4.6-5.9c1.6-3.1,2.9-6.3,3.8-9.7c0.6-2.3,0-4.6,0.2-6.9
				c1.5-2.7,3.9-4.8,5-7.7C417.4,387.3,418.7,382.8,422.8,381.3z M429.6,410.8c15.5,0.2,31.1,0,46.6,0.1c1.7,0,3.9,0.2,4.9-1.5
				c1.2-2.3,2-4.8,2.3-7.3c-0.8-1.1-2.2-0.9-3.4-1c-14.8,0-29.7,0-44.5,0C430.5,400.7,429.6,407.1,429.6,410.8z M425.3,422.2
				c-1.2,2.2-1.9,4.7-2.4,7.1c0.3,1.7,2.2,1.2,3.4,1.4c14.6,0,29.2-0.1,43.8,0.1c1.6-0.1,3.6,0,4.5-1.6c1.3-2.5,2.1-5.2,2.2-8
				c-4-0.6-8-0.3-12-0.4c-11.6,0-23.2,0-34.8,0C428.4,420.9,426.4,420.7,425.3,422.2z"/>
		</g>
	</g>
</g>
</svg>
