<?xml version="1.0" encoding="utf-8"?>
<!-- Generator: Adobe Illustrator 18.1.1, SVG Export Plug-In . SVG Version: 6.00 Build 0)  -->
<svg version="1.2" baseProfile="tiny" id="Layer_1" xmlns="http://www.w3.org/2000/svg" xmlns:xlink="http://www.w3.org/1999/xlink"
	 x="0px" y="0px" viewBox="0 0 900 650" xml:space="preserve">
<rect fill="#BEAED4" width="900" height="650"/>
<circle fill="#CBBEDD" cx="450" cy="325" r="260"/>
<path fill="#FFFFFF" d="M283.6,228.9c55.4-31.9,110.9-63.9,166.3-96c55.4,31.9,110.9,64.1,166.3,96c0,64.1,0,127.9,0,192
	c-55.4,31.9-110.9,64.1-166.5,96c-55.4-31.9-110.9-64.1-166.3-96C283.6,356.9,283.6,293,283.6,228.9z"/>
<g>
	<path fill="#A580D9" d="M275,223.9c58.4-33.7,116.7-67.3,174.9-101c58.4,33.7,116.7,67.3,175.1,101c0,67.3,0,134.9,0,202.2
		c-58.4,33.5-116.7,67.3-175.1,101c-58.4-33.7-116.6-67.3-174.9-101C275,358.6,275,291.2,275,223.9z M295.4,235.6
		c0.2,59.6,0,119.1,0,178.5c51.5,29.7,103.1,59.4,154.5,89.3c51.6-29.4,102.9-59.6,154.7-88.9c0.2-59.7,0-119.3,0-179.1
		c-51.6-29.5-102.9-59.6-154.5-89.1C398.6,176.2,347,205.8,295.4,235.6z"/>
</g>
<g id="_x23_000000ff">
	<path fill="#A580D9" d="M442,207.3c20.2-1.4,40.7,2.4,58.9,11.2c24.9,11.9,45.2,32.6,56.6,57.8c9.5,20.7,12.6,44.2,9,66.7
		c-2.6,16.9-9,33.3-18.6,47.7c-10.2,15-23.8,27.6-39.5,36.6c-16.7,9.5-35.9,14.8-55.3,15.4c-19.7,0.5-39.5-4-57.2-13.1
		c-26.4-13.6-47.3-37.6-57-65.6c-6.9-19.7-8.5-41.3-4.5-61.8c3.8-19.9,13-38.5,26.1-53.9c15.9-18.6,38-32.1,61.8-37.8
		C428.8,208.9,435.4,207.8,442,207.3 M439.7,217c-8.1,3.3-14.7,9.7-19.9,16.6c-6.7,9-11.4,19.2-15,29.5c-0.3,1.2-0.9,2.6-1,4
		c2.4-0.2,4.8-0.9,7.1-1.2c5.7-1,11.6-1.9,17.4-2.6c2.4-0.2,4.7-0.2,7.1-0.7c0-2.2-0.3-4.5,0.2-6.6c0.7-3.3,2.6-6.4,5.4-8.5
		c1.6-1.2,3.5-1.9,5-2.9c0.3-2.1,0.2-4.1,0.2-6c-0.2-7.8,0.2-15.4-0.2-23.1C443.9,215.6,441.8,216.1,439.7,217 M454.1,215.4
		c-0.3,7.1,0,14.2-0.2,21.1c0,2.6-0.2,5.2,0.2,7.6c1.9,1,4.1,1.6,5.9,3.1c1.9,1.6,3.1,3.8,4.8,5.4c3.1,2.6,8.3,1.9,10.5-1.6
		c1.4-2.2,1.9-4.8,3.5-6.7c1.4-1.9,3.5-2.9,5.2-4.5c-1.7-3.6-4.5-6.7-6.9-9.8C471.2,223,463.6,216.7,454.1,215.4 M362.7,258.3
		c-9,11.7-15.7,25.2-19.2,39.7c1.7-1.6,3.3-3.3,5-4.8c12.6-11.4,28.5-18.3,44.5-23.1c0.7-0.2,1.4-0.5,1.6-1.2c1-2.4,1.6-5,2.4-7.4
		c4.8-13.6,11.2-26.8,20.7-37.6c1.6-1.7,3.5-3.5,5-5.2C399.1,224.2,377.6,238.8,362.7,258.3 M477,218.4c5,5,9.8,10.4,13.5,16.4
		c0.9,1.2,1.4,2.8,2.6,3.6c1.7,0.9,3.6,1,5.4,1.9c4.7,2.4,7.8,7.4,7.6,12.6c0,2.2-0.7,4.5-0.3,6.7c0.7,3.5,4.1,5.9,7.6,5.5
		c2.9-0.3,5.4-2.2,8.3-2.4c6.9-1,14.2,3.6,16.2,10.4c1.2,3.1,0.3,6.4,0.2,9.7c1,1,2.4,1.7,3.8,2.6c5.5,3.5,10,7.9,14.7,12.3
		c-1.7-7.4-4.5-14.7-7.9-21.6C534.7,247.9,507.9,226,477,218.4 M489.1,246.7c-2.8,0.5-4.5,2.9-5.4,5.5c-1.7,5-6.2,8.6-11.4,9.7
		c-4.7,0.9-9.7-0.5-13.1-3.6c-1.9-1.7-3.1-4.1-5.4-5.5c-4.5-2.6-11.2,1.2-11.1,6.4c0.3,3.3,2.8,5.9,2.6,9.3
		c0.7,7.8-5.7,15-13.3,15.9c-2.9,0.3-5.7-0.7-8.6-0.3c-4.8,0.9-7.3,7.3-4.3,11.2c1.2,1.9,3.6,2.4,5.5,3.3c5.4,2.1,9,7.6,9,13.3
		c0.2,4.3-1.7,8.6-5,11.4c-1.7,1.6-4.3,2.8-5.2,5.2c-1.6,4.1,1.7,9.3,6,9.7c3.3,0.3,6-2.2,9.3-2.6c7.4-1.2,15,4,16.7,11.2
		c1,3.5-0.3,6.9,0,10.4c1.2,5.7,9.8,7.3,13,2.4c1.7-2.8,2.4-6,5-8.3c5-5.4,14-5.9,19.9-1.6c2.6,1.7,3.8,4.8,6.4,6.4
		c4.5,2.6,11.2-1,10.9-6.4c-0.3-3.3-2.6-6-2.6-9.3c-0.7-7.4,5.4-14.7,12.8-15.7c3.1-0.7,6,0.7,9.2,0.2c4.8-0.9,7.4-7.1,4.7-11.1
		c-1.4-2.2-4-2.8-6.2-3.6c-4.8-2.1-8.3-7.3-8.6-12.4c-0.3-4.7,1.7-9.5,5.4-12.3c1.7-1.6,4.1-2.6,4.8-5c1.4-4.1-1.9-9.2-6.4-9.5
		c-3.3-0.2-6,2.4-9.3,2.6c-7.6,1-15.4-4.5-16.7-11.9c-0.7-3.1,0.5-6.4,0.2-9.5C497.4,247.7,492.7,245.7,489.1,246.7 M403.3,275.4
		c-0.7,0.2-1.6,0.3-2.2,0.7c-0.9,1.9-1,3.8-1.6,5.9c-2.6,12.1-4.1,24.3-4.5,36.6c0,0.7,0,1.6,0,2.4c6.6,0.3,13,0,19.5,0.2
		c1.7-0.2,3.6,0.3,5.2-0.9c1.6-1.2,3.1-2.4,4.5-3.8c2.6-2.8,2.1-7.6-0.7-9.8c-1.9-1.4-4.3-1.7-6.4-2.9c-4.3-2.6-7.1-7.6-7.1-12.6
		c0-3.8,1.6-7.8,4.1-10.5c2.9-3.3,7.6-5,11.9-4.5c2.2,0.2,4.8,0.9,7.1,0c2.2-0.9,3.8-3.1,4.3-5.4c-1.4-0.2-2.6,0-4,0
		C423.5,271.4,413.3,272.9,403.3,275.4 M379.6,283c-10.2,4.3-20.2,10-28.1,18c-5.4,5.4-10,12.1-10.9,19.9c2.4,0.2,4.8,0.2,7.4,0.2
		c10.9,0,21.6,0,32.5,0c2.2,0,4.5,0.2,6.9-0.2c0.3-2.6,0.2-5,0.3-7.6c0.5-9.2,1.6-18.1,3.3-27.1c0.5-2.4,1-5,1.4-7.4
		C387.8,279.5,383.8,281.4,379.6,283 M528.7,299.4c0.9,2.6,3.5,3.6,5.9,4.5c4.7,1.6,8.3,6,9.2,10.9c0.3,2.1,0,4.1,0,6.2
		c5.4,0.2,10.5,0.2,15.9,0c-0.3-3.8-1.9-7.4-3.8-10.9c-4.7-7.9-11.9-13.8-19.5-18.8c-1-0.5-2.1-1.4-3.1-1.6
		C529.2,290.9,526.9,295.6,528.7,299.4 M340.4,328.9c0.7,6.6,4.3,12.4,8.6,17.3c10.2,11.6,24.5,18.5,38.7,23.7
		c1.4,0.3,2.8,1,4.3,1.2c-0.3-2.6-1-5-1.4-7.4c-1.6-9-2.8-18-3.3-27.1c-0.2-2.6,0-5-0.3-7.6c-2.2-0.3-4.5-0.2-6.9-0.2
		c-10.9,0-21.6,0-32.5,0C345.4,328.9,343,328.7,340.4,328.9 M395.2,328.9c-0.2,2.4,0,5,0.2,7.4c0.5,11.7,2.4,23.3,5,34.7
		c0.2,0.9,0.5,1.7,0.9,2.6c0.5,0.3,1.2,0.5,1.7,0.7c13.5,3.3,27.3,5,41.1,5.4c0.7,0,1.2,0,1.9,0c0.3-2.6,0-5.2,0.2-7.8
		c0-8.1,0-16.4,0-24.5c0-0.9,0-1.9-0.2-2.8c-1.4-1.4-3.5-1.9-5.2-1.7c-2.6,0.3-4.8,2.1-7.4,2.4c-6.4,1.2-13.1-2.2-15.9-7.9
		c-1.6-2.6-1.6-5.7-1.9-8.6c-3.5-0.3-6.7,0-10.2-0.2C401.9,328.9,398.6,328.7,395.2,328.9 M532.4,332.2c-2.9,0.9-5.9,0.2-8.8-0.2
		c-4.1-0.3-7.9,3.8-7.3,7.9c0.5,2.6,2.2,4.8,2.4,7.4c0.9,5.5-1.9,11.6-6.9,14.3c-1,0.7-2.6,1.2-2.8,2.6c-0.7,2.2-1,4.5-1.2,6.7
		c2.8-0.5,5.5-1.7,8.3-2.6c13.1-5.2,25.9-11.9,35.2-22.6c4-4.8,7.4-10.5,8.1-16.7c-4.3-0.3-8.5,0-12.8-0.2c-2.6,0-5.2-0.3-7.8,0.2
		C536.8,329.9,534.9,331.6,532.4,332.2 M343.5,352c1.7,7.8,4.7,15.2,8.3,22.3c14.2,28.1,40.7,49.7,71.3,57.3
		c-3.8-3.8-7.4-7.6-10.5-12.1c-6.9-9.8-11.9-20.9-15.9-32.3c-0.9-2.2-1-4.5-2.2-6.6c-2.1-1.2-4.7-1.6-6.9-2.4
		c-14-4.8-27.8-11.4-39-21.4C346.8,355.1,345.3,353.4,343.5,352 M551.6,356.7c-11.1,9.8-24.7,16.4-38.7,21.2c-2.4,0.9-5,1.2-7.3,2.6
		c-1.2,1.9-1.6,4.1-2.2,6.2c-4.5,13.6-10.7,26.9-20,38c-2.1,2.4-4.3,4.5-6.4,6.9c20.4-5,39-16.2,53.4-31.6
		c12.4-13.5,21.8-30,26.2-47.8C554.9,353.4,553.3,355.1,551.6,356.7 M478.7,357.4c-1.4,2.2-1.9,4.8-3.5,6.7c-3.3,4.3-9,6.4-14.3,5.4
		c-2.4-0.2-4.5-1.6-6.9-2.4c0,4.1-0.2,8.5,0,12.6c0.7,0,1.2,0.2,1.9,0c13.8-0.3,27.6-2.2,41.1-5.4c0.5-0.2,1.2-0.3,1.7-0.7
		c1-2.9,1.7-6.2,2.1-9.3c-2.2-0.9-4.7-1.4-6.4-2.9c-1.9-1.6-3.1-3.6-5-5.4C486.5,353.1,480.8,353.9,478.7,357.4 M403.8,382.9
		c0.2,1.4,0.7,2.6,1,3.8c4.5,12.6,10.5,25,19.5,35.1c5.7,6.2,13,11.6,21.6,12.8c0.2-2.4,0.2-4.8,0.2-7.4c0-10.9,0-21.6,0-32.5
		c0-2.2,0.2-4.5-0.2-6.9c-2.2-0.3-4.5-0.2-6.7-0.3c-10-0.5-20.2-1.7-30-3.6C407.4,383.4,405.7,383.1,403.8,382.9 M492.9,383.4
		c-10.5,2.2-21.2,3.5-32.1,4.1c-2.2,0.2-4.5,0-6.7,0.3c-0.3,4.8,0,9.8-0.2,14.7c0.2,10.7-0.2,21.2,0.2,31.9c3.1-0.2,6-1.4,8.8-2.8
		c6.2-3.1,11.2-7.9,15.5-13.3c6.7-8.3,11.4-18,15.4-28c0.9-2.4,1.9-4.8,2.4-7.4C495.2,382.9,493.9,383.3,492.9,383.4z"/>
	<path fill="#A580D9" d="M459.6,274c3.3-0.7,6.9,0.2,9.5,2.2c3.5,2.8,5.2,7.6,4.1,11.9c-1,4.5-4.7,8.1-9.2,9
		c-4.7,1-9.7-1.2-12.1-5.2c-2.2-3.3-2.6-7.8-0.9-11.2C452.5,277.3,455.8,274.8,459.6,274 M460.6,281.9c-2.8,0.9-3.6,5-1.2,6.7
		c2.1,1.9,5.9,0.7,6.4-2.1C466.5,283.6,463.4,280.9,460.6,281.9z"/>
	<path fill="#A580D9" d="M498.8,277.9c4-0.9,8.5,0.7,11.1,3.8c2.8,2.9,3.6,7.4,2.4,11.2c-1.4,4.5-5.5,7.9-10.4,8.3
		c-4.7,0.5-9.3-2.1-11.4-6.2c-1.7-3.3-1.9-7.4-0.2-10.7C492,281.1,495.3,278.6,498.8,277.9 M499.8,285.9c-2.8,0.9-3.6,5-1.2,6.7
		c2.1,1.9,5.9,0.7,6.4-2.1C505.7,287.6,502.6,284.7,499.8,285.9z"/>
	<path fill="#A580D9" d="M464.4,305.1c7.8-1.4,16.1,0.2,23,4.1c3.1,1.9,6.4,4.1,8.1,7.6c1.7,3.3,2.2,7.4,0.5,10.9
		c-1.6,3.3-4.3,5.9-7.6,7.1c-7.6,2.9-16.4,2.2-24-0.7c-5.7-2.4-11.2-6.2-13.3-12.3c-1.4-3.6-0.3-7.9,2.1-10.9
		C455.8,307.3,460.3,305.6,464.4,305.1 M465.5,312.8c-2.4,0.5-5.4,1.4-6.6,3.6c-1,1.9,0.2,4.1,1.4,5.5c3.3,3.6,8.1,5.4,12.8,6.4
		c4.1,0.7,8.8,0.5,12.8-1.2c1.9-0.9,3.8-2.4,3.5-4.7c-0.3-3.1-3.3-5-5.7-6.6C478.1,312.8,471.5,311.6,465.5,312.8z"/>
</g>
</svg>
