<?xml version="1.0" encoding="utf-8"?>
<!-- Generator: Adobe Illustrator 21.1.0, SVG Export Plug-In . SVG Version: 6.00 Build 0)  -->
<svg version="1.1" id="Layer_1" xmlns="http://www.w3.org/2000/svg" xmlns:xlink="http://www.w3.org/1999/xlink" x="0px" y="0px"
	 viewBox="0 0 1024 739.6" style="enable-background:new 0 0 1024 739.6;" xml:space="preserve">
<style type="text/css">
	.st0{fill:#985FC4;}
	.st1{fill:#D8C3E9;}
	.st2{fill:#FFFFFF;}
	.st3{fill:#652D90;}
	.st4{fill:#7F38B6;}
</style>
<rect class="st0" width="1024" height="739.6"/>
<circle class="st1" cx="512" cy="369.8" r="295.8"/>
<g id="Слой_2">
	<g id="Layer_1_1_">
		<path class="st2" d="M318.1,257.9c64.8-37.3,129.5-74.7,194.2-112.1c64.8,37.3,129.5,74.8,194.3,112.1c0.1,74.8,0.1,149.6,0,224.3
			c-64.8,37.3-129.6,74.6-194.3,112.1c-64.7-37.4-129.5-74.7-194.2-112.1C318,407.4,318,332.7,318.1,257.9z"/>
		<path class="st3" d="M313.4,255.2C379.7,217,446,178.8,512.3,140.4c66.4,38.2,132.6,76.6,199,114.8c0.1,76.6,0.1,153.1,0,229.7
			c-66.4,38.2-132.7,76.4-199,114.8c-66.3-38.3-132.6-76.5-198.9-114.8C313.4,408.3,313.4,331.8,313.4,255.2z M336.7,268.6
			c0.1,67.7-0.1,135.3,0.1,203c58.5,33.8,117.1,67.6,175.6,101.4c58.7-33.4,117-67.7,175.7-101.1c0.2-67.8,0.1-135.7,0.1-203.5
			c-58.7-33.6-117-67.6-175.6-101.2C454,201,395.2,234.7,336.7,268.6z"/>
		<path class="st3" d="M545.4,282.6c-9.7-8.4-22.1-13-34.9-13.1c-12.5-0.1-24.6,4.6-33.8,13.1l-9.2-45.6c48.3-7.2,86,0,86,0
			C554.2,255.2,545.4,282.6,545.4,282.6z"/>
		<path class="st4" d="M570.9,498.9c3.4-15.8,7.3-23.7,7.3-23.7c10.1-0.2,20.2-1.6,30-4C493.9,360.5,467.5,237,467.5,237
			c-12.4,9.6-24.4,34.9-24.4,34.9C468,396.4,570.9,498.9,570.9,498.9z"/>
		<path class="st3" d="M543.4,395.6c-6.2-8.8-12-17.4-17.3-25.8l-27.4,35.8c7.3,11.8,14.7,22.7,21.8,32.6
			C529.2,424.5,536.8,410.3,543.4,395.6z"/>
		<path class="st4" d="M450.1,498.9c-3.4-15.8-7.3-23.7-7.3-23.7c-10.1-0.2-20.2-1.6-30-4C527.2,360.5,553.5,237,553.5,237
			c12.4,9.6,24.4,34.9,24.4,34.9C553.1,396.4,450.1,498.9,450.1,498.9z"/>
		<path class="st3" d="M539.4,383.4c17.6-32.1,34.1-70.2,42.2-110.7c0.1-0.8,0.1-1.5-0.3-2.2c-0.5-1.1-12.5-26.3-25.5-36.3
			c-0.5-0.3-1-0.6-1.5-0.7c-1.6-0.3-38.8-7.3-87.2,0c-0.6,0.1-1.2,0.4-1.7,0.7c-13,10-25,35.2-25.5,36.3c-0.3,0.7-0.4,1.5-0.3,2.2
			c7.1,35.7,21.3,72.9,42.1,110.7c-20.8,30.8-44.7,59.3-71.4,85.1c-1.4,1.4-1.5,3.7-0.1,5.1c0.4,0.5,1,0.8,1.6,1
			c9.4,2.4,18.9,3.8,28.6,4.1c2.7,6.8,4.7,13.8,6.2,20.9c0.4,2,2.3,3.2,4.3,2.8c0.7-0.1,1.3-0.5,1.8-1c0.3-0.3,26.3-26.3,55-67.3
			c0.9-1.3,1.9-2.7,2.9-4.1c8.2,14.4,57.6,71.1,57.9,71.4c1.4,1.4,3.7,1.4,5.1,0c0.5-0.5,0.8-1.1,1-1.8c1.4-7.1,3.5-14.2,6.2-20.9
			c9.6-0.4,19.2-1.7,28.6-4.1c1.9-0.5,3.1-2.5,2.5-4.5c-0.2-0.6-0.5-1.2-1-1.6C584.1,442.7,560.2,414.2,539.4,383.4z M465.5,243.8
			c3.8,14.3,15.4,52.5,40.9,99.3c-5.9,10.5-12.6,21.8-20.2,33.4c-19.2-35.6-32.5-70.6-39.3-104.1C449,268.3,456.8,253,465.5,243.8z
			 M510.5,335.5c-9.5-17.8-18-36.2-25.3-55c7.5-4.8,16.3-7.4,25.3-7.4c9,0,17.7,2.5,25.4,7.1c-3.6,9.3-8,19.7-13.3,31.1
			C519.2,318.7,515.2,326.9,510.5,335.5z M472,240c25.6-3.5,51.5-3.5,77.1-0.1c-1.4,5.6-4.7,17.4-10.6,33.3
			c-8.5-4.9-18.2-7.4-28-7.5c-9.8,0-19.5,2.7-27.9,7.7C476.8,257.5,473.5,245.7,472,240L472,240z M574.2,272.4
			C561.2,335.6,527.7,393,501.7,430c-15.1,21.6-31.7,42.2-49.6,61.5c-3-11.7-6-17.7-6.1-18c-0.6-1.2-1.8-2-3.2-2
			c-7.6-0.2-15.3-1-22.8-2.5c45.2-44.9,82.2-97.3,109.2-154.9c15.7-33.6,23.3-59.2,26.2-70.3C564.3,253,572.1,268.3,574.2,272.4z
			 M535.4,390.5c1.3,1.9,2.6,3.7,3.9,5.5c-5.6,12.2-11.9,24.1-18.8,35.6c-1.8-2.6-3.7-5.3-5.5-8
			C521.6,413.6,528.5,402.5,535.4,390.5z M601,469c-7.5,1.5-15.1,2.3-22.8,2.5c-1.3,0-2.6,0.8-3.2,2c-0.1,0.3-3.1,6.3-6.1,18
			c-15.7-16.9-30.4-34.8-43.9-53.6c7-11.4,13.4-23.1,19.1-35.2C561.3,426.4,580.3,448.5,601,469z"/>
	</g>
</g>
</svg>
