<?xml version="1.0" encoding="utf-8"?>
<!-- Generator: Adobe Illustrator 18.1.1, SVG Export Plug-In . SVG Version: 6.00 Build 0)  -->
<svg version="1.2" baseProfile="tiny" id="Layer_1" xmlns="http://www.w3.org/2000/svg" xmlns:xlink="http://www.w3.org/1999/xlink"
	 x="0px" y="0px" viewBox="0 0 900 650" xml:space="preserve">
<rect fill="#3477A1" width="900" height="650"/>
<circle fill="#5D92B4" cx="450" cy="325" r="260"/>
<g>
	<g>
		<g>
			<path fill="#FFFFFF" d="M250,210.4c32.8-19,65.5-37.9,98.4-56.8c32.8,18.9,65.5,37.8,98.3,56.7c0,37.8,0,75.6,0,113.4
				c-32.8,18.9-65.5,37.8-98.3,56.7c-32.1-18.6-64.2-37.1-96.4-55.7c-0.7-0.4-1.3-0.8-2-1.3C250,323.6,250,210.4,250,210.4z"/>
		</g>
		<g>
			<path fill="#3677A2" d="M250,210.4c32.8-19,65.6-37.9,98.4-56.8c32.8,18.9,65.5,37.8,98.3,56.7c0,37.8,0,75.6,0,113.4
				c-32.8,18.9-65.5,37.8-98.3,56.7c-32.1-18.6-64.2-37.1-96.4-55.7c-0.7-0.4-1.3-0.8-2-1.3C250,323.6,250,210.4,250,210.4z
				 M261.1,216.7c0,33.6-0.1,67.2,0,100.8c29.1,16.8,58.1,33.6,87.3,50.4c29.1-16.8,58.3-33.6,87.4-50.5
				c-0.1-33.6,0.1-67.2-0.1-100.7c-29.1-16.7-58.2-33.6-87.3-50.4C319.2,183.1,290.2,199.9,261.1,216.7z"/>
		</g>
		<g>
			<path fill="#3677A2" d="M329.8,198.1c10.1-1.2,20.5,0.8,29.4,5.7c10.4,5.6,18.8,15.1,22.9,26.1c4.2,10.7,4.4,23,0.8,33.9
				c-3.2,9.5-9.2,18-17.2,24c-7.8,5.9-17.4,9.5-27.1,10.1c-13.4,1-27.1-3.9-37-12.9c-7.5-6.9-13-16.1-15.2-26.1
				c-2.5-11.2-1.1-23.2,4.1-33.6C297.9,210.5,313.2,199.8,329.8,198.1z M328.5,205.3c-11.6,1.8-22.3,8.6-28.9,18.4
				c-5.4,8-8.1,17.8-7.4,27.4c0.7,10.3,5.3,20.3,12.7,27.6c8.1,8.2,19.7,12.7,31.1,12.5c8.1-0.2,16.3-2.7,23.1-7.3
				c8.5-5.6,14.9-14.4,17.7-24.2c2.9-10.1,1.9-21.2-2.8-30.6c-4.1-8.6-11.2-15.6-19.7-19.8C346.4,205.2,337.3,203.9,328.5,205.3z"/>
		</g>
		<path fill="#3677A2" d="M344.1,213.6c0.2-1.2,0.1-2.4,0.2-3.5c3.2,0.7,6.2,1.9,9,3.3c0,10-4.9,20.1-13.5,25.5
			c-2.9-1.5-5.7-3.3-8.6-4.9c5.6-3.8,10.9-8.9,12.3-15.8c-8.1-0.1-16.3,0.1-24.4-0.1c-2.4-0.2-2.4-4.4,0-4.4
			C327.5,213.5,335.8,213.7,344.1,213.6z"/>
		<path fill="#3677A2" d="M304.2,224.6c1.7-2.2,3.6-4.2,5.7-6.1c0.5,1.3,1,2.7,1.5,4c7,0.2,14.1,0,21.1,0.1c1-0.1,1.8,0.6,2.5,1.2
			c-0.1,1.3-0.2,3.3-1.9,3.3c-6.1,0.2-12.3-0.2-18.4,0.3c5.7,6.8,14.1,10.1,21.5,14.7c6.8,4,13.5,9.5,15.9,17.4
			c2.2,7.6,1.7,16.4-2.6,23.2c-0.7,1.1-1.5,2.3-2.9,2.6c-4.9,1.5-10.1,1.9-15.2,1.4c3.6-2.5,7.3-5,9.8-8.7c1.6-2.2,2.5-4.8,2.9-7.5
			c-7.9-0.1-15.8,0-23.7-0.1c-1.4,0.2-2.7-1-2.7-2.4c0-1.4,1.4-2.5,2.7-2.3c7.9-0.1,15.8,0.1,23.7,0c-0.8-6.3-5.5-11.2-10.6-14.5
			c-7.8-5.2-16.6-8.8-23.5-15.2c-2.7-2.7-5.3-5.7-6.7-9.3C302.9,225.9,303.9,225.3,304.2,224.6z"/>
		<path fill="#3677A2" d="M300.6,265.1c0.3-8.5,6-16.1,13.1-20.4c2.8,1.8,5.7,3.5,8.6,5.2c-3,2-6,4.1-8.4,6.8
			c5.8,0.4,11.7,0.2,17.4,0.2c1.2,0.1,2.9-0.3,3.7,0.9c1.3,1.4,0.1,3.9-1.8,3.8c-7.5,0.2-15,0-22.5,0.1c-1.6,4.2-1.6,9-0.1,13.2
			c7.7,0.1,15.4-0.1,23.1,0.1c2.5,0.1,2.9,4,0.5,4.6c-4.6,0.2-9.2,0-13.8,0.1c-2.4,0.1-4.9-0.3-7.2,0.6
			C308,276.2,303.1,271.2,300.6,265.1z"/>
		<path fill="#3677A2" d="M374.7,281.8c1.7-1.5,4.4,0.7,3.5,2.7c-1,1.8-2.7,3-4.1,4.6c-1,0.8-1.9,2.2-3.3,2
			c-1.8-0.1-2.9-2.5-1.5-3.8C371,285.3,372.8,283.5,374.7,281.8z"/>
		<path fill="#3677A2" d="M380.1,287.3c2.9-0.8,6,0.1,8.1,2.2c7.2,7.2,14.4,14.4,21.5,21.5c2.1,2,3.2,5.2,2.3,8
			c-0.9,3.9-5.2,6.6-9.1,5.8c-1.9-0.3-3.6-1.4-4.9-2.8c-7.2-7.3-14.6-14.5-21.7-21.8C372.4,296.2,374.6,288.5,380.1,287.3z"/>
		<path fill="#3677A2" d="M307.4,303.1c1.7-2,3.6-3.7,5.6-5.3c3.6,1.5,7.2,2.7,11,3.5c-6.1,3.9-12.1,9-13.9,16.3
			c7.8,0.1,15.5-0.1,23.2,0.1c2.6,0.3,2.2,4.6-0.4,4.6c-7.9,0.2-15.7,0-23.6,0.1c-0.1,0.9-0.1,1.8-0.1,2.7c-3,0.1-6,0.2-9,0.2
			C299.9,317.3,302.1,309.1,307.4,303.1z"/>
		<path fill="#3677A2" d="M331.2,302.4c3.7,0,7.4,0.2,11.1-0.4c1-0.1,1.9-0.4,2.9-0.1c6.1,6,8.6,14.9,8.2,23.2c-3,0.1-6-0.1-9-0.2
			c-0.1-3.7-0.6-7.4-2-10.9c-7.3-0.7-14.6,0-21.9-0.4c-1.8-0.1-2.7-2.7-1.3-3.8c0.6-0.8,1.7-0.7,2.5-0.8c5.8,0,11.5,0.1,17.2,0
			C336.8,306.3,333.9,304.4,331.2,302.4z"/>
	</g>
	<g>
		<g>
			<path fill="#FFFFFF" d="M550,155.5c0.9-0.8,1.9-0.4,2.9,0.1c30.2,17.5,60.5,35,90.8,52.4c2.1,1.3,4.7,2.2,6.3,4.3v112.5
				c-10.3,5.6-20.3,11.7-30.5,17.5c-22.6,13.1-45.3,26.1-67.9,39.3c-32.8-18.8-65.5-37.8-98.3-56.7c-0.1-37.9,0-75.7,0-113.5
				C485.4,192.8,517.8,174.2,550,155.5z"/>
		</g>
		<g>
			<path fill="#AEA79F" d="M550.1,155.5c0.9-0.8,1.9-0.4,2.9,0.1c30.2,17.5,60.5,35,90.8,52.4c2.1,1.3,4.7,2.2,6.3,4.3v112.5
				c-10.3,5.6-20.3,11.7-30.5,17.5c-22.6,13.1-45.3,26.2-67.9,39.3c-32.8-18.8-65.5-37.8-98.3-56.7c-0.1-37.8,0-75.7,0-113.5
				C485.5,192.8,517.8,174.2,550.1,155.5z M551.3,167.5c-29,16.9-58.1,33.6-87.1,50.4c-0.1,33.6,0,67.2-0.1,100.7
				c29.1,16.9,58.3,33.7,87.5,50.4c29-16.9,58.2-33.6,87.2-50.5c-0.1-33.6,0.1-67.1-0.1-100.7C609.5,201.1,580.5,184.2,551.3,167.5z
				"/>
		</g>
		<g>
			<path fill="#AEA79F" d="M520.3,211.4c7.8-5.5,17-8.7,26.5-9.5c11.7-0.7,23.9,0.8,34.3,6.4c8.3,4.4,14.9,11.7,18.3,20.5
				c2,5.2,3,10.7,3.2,16.2c0.2,4.2,0.7,8.7,3.2,12.1c2.5,4.6,7.7,7.5,9.2,12.7c0.7,1.9-0.4,3.9-2.1,4.7c-2.4,1.3-4.7,2.7-6.7,4.5
				c1.1,1.9,2.2,3.8,3.3,5.8c-1.9,1-4,1.6-5.6,3.2c1.6,1.7,3.2,3.3,4,5.5c-1.3,1.6-2.9,3-3.8,4.9c-0.7,3.4,2.4,6.3,1.8,9.6
				c-0.7,3.5-3.9,6.3-7.4,6.7c-8.3,1-16.6-0.5-24.8-1.1c-1.7,0-4.6-0.1-4.6,2.3c-0.2,4.6-0.2,9.2-0.3,13.8
				c-17.1,0.1-34.1,0.2-51.1,0.1c1-7.6,2-15.3,3-23c0.4-2.9,1.1-5.8,0.1-8.6c-2.2-8.9-8.1-16.2-13.1-23.7
				c-3.6-4.7-6.3-10.3-6.8-16.2c-0.5-7.9-0.7-16.1,1.9-23.7C505.7,225.3,512.2,217.1,520.3,211.4z M532.2,217.2
				c-0.2,0.7-0.3,1.5-0.4,2.2c-1.1,0.5-2.2,1-3.3,1.5c-0.8-0.5-1.6-1-2.5-1.5c-1,0-1.5,1.2-1.8,1.9c0.5,0.7,1,1.4,1.6,2.1
				c-0.4,1.2-0.9,2.4-1.4,3.5c-1.4,0.2-3.5,0.4-3.2,2.3c0,1.7,1.8,1.5,3,1.6c0.7,1.4,1.3,2.7,2.1,4.1c-0.5,0.8-1.1,1.6-1.7,2.4
				c0.7,0.7,1.4,1.4,2.1,2.1c0.7-0.7,1.5-1.3,2.2-2c1,0.4,1.9,0.8,2.9,1.2c0.2,0.8,0.3,1.7,0.5,2.5c0.9,0.3,1.9,0.2,2.9,0.4
				c0.2-1,0.4-1.9,0.5-2.9c1.2-0.5,2.4-1,3.6-1.5c0.8,0.6,1.6,1.2,2.5,1.8c0.7-0.7,1.3-1.5,2-2.2c-0.6-0.7-1.2-1.5-1.9-2.1
				c0.5-1.2,1-2.5,1.5-3.7c0.9-0.1,1.8-0.1,2.7-0.1c0.1-0.8,0.6-1.8,0.2-2.6c-0.5-1.2-2-0.8-3-1.2c-0.4-1-0.7-2-1.1-3
				c0.5-1,2.2-1.8,1.3-3.1c-0.6-0.4-1.2-0.8-1.8-1.3c-0.7,0.5-1.3,1.2-1.9,1.7c-1.4-0.7-2.8-1.3-4.2-1.9c-0.2-1-0.4-1.9-0.6-2.9
				C534.3,216.6,532.8,216.1,532.2,217.2z M558.7,223c-1.2,1.5,0.2,3.2,0.6,4.6c-1.5,1.4-2.9,2.9-4.1,4.4c-1.2-0.4-2.3-0.8-3.6-1
				c-1.2,0.5-2.1,1.7-2.1,3.1c-0.1,2,2.3,2.2,3.6,3c0,2.1,0.1,4.1,0.1,6.1c-1.2,0.7-2.7,1-3.4,2.4c-0.3,1.5,0.7,3.3,2.2,3.8
				c1.2-0.2,2.3-0.7,3.5-1.2c1.6,1.7,3.3,3.3,5.3,4.6c-0.3,1-0.7,2.1-0.8,3.2c0.2,2,3.2,3.1,4.6,1.6c0.7-1,1-2.1,1.5-3.2
				c1.6-0.1,3.3-0.2,4.9-0.4c0.7,1.2,1.3,2.5,2.3,3.5c1.4,0.3,3-0.3,3.8-1.5c0.4-1.5-0.5-2.8-1-4.1c1.5-1.3,2.8-2.8,4-4.4
				c1.2,0.3,2.3,0.7,3.5,0.8c1.6-0.1,2.4-2.2,2.2-3.6c-0.6-1.5-2.4-1.8-3.7-2.5c0.1-2,0.1-4.1-0.1-6.1c1.2-0.6,2.5-0.9,3.3-2.1
				c0.4-1.5-0.4-3.2-1.7-3.9c-1.3-0.2-2.6,0.7-3.8,1.1c-1.3-1.2-2.4-2.4-3.6-3.6c0.4-1.3,1-2.5,0.9-3.8c-0.5-1.5-2.3-2.2-3.8-1.8
				c-1.3,0.6-1.5,2.2-2.1,3.3c-2.4-0.1-4.7-0.1-7.1,0.1c-0.5-1-0.9-2-1.6-2.9C561.6,221.2,559.6,222,558.7,223z M534.6,246.1
				c-1.5,0.4-1,2.4-1.3,3.6c-1.4,0.6-2.9,1.2-4.2,1.9c-0.8-0.7-1.7-1.5-2.5-2.2c-1.1,0.7-2.4,1.4-2.4,2.9c0.5,0.9,1.3,1.6,1.8,2.5
				c-0.4,1.5-1.1,2.9-1.6,4.2c-1,0.2-2.1,0.2-3.1,0.5c-1.5,0.8-1.5,3-0.4,4.1c1,0.7,2.3,0.5,3.5,0.7c0.7,1.6,1.5,3.3,2.3,4.9
				c-0.7,0.9-1.8,1.8-1.8,2.9c0.4,1.2,1.6,1.7,2.5,2.3c0.8-0.8,1.7-1.6,2.5-2.4c1.2,0.5,2.3,0.9,3.5,1.4c0.1,1.1,0.2,2.2,0.4,3.2
				c1.1,1.2,3,0.8,4.3,0.1c0.4-1,0.4-2.2,0.5-3.3c1.6-0.6,3.1-1.3,4.7-1.9c0.8,0.6,1.5,1.3,2.4,1.8c1.3,0.3,2.2-0.8,2.8-1.8
				c-0.1-1.3-1.1-2.4-1.7-3.6c0.5-1.3,1.1-2.6,1.6-3.9c1.6-0.2,4.1,0,4.2-2.2c0.4-2.4-2.2-3.2-4.1-3c-0.5-1.2-1.1-2.5-1.6-3.7
				c0.8-1,1.9-1.8,2.1-3c-0.3-1.3-1.6-1.9-2.6-2.5c-0.8,0.7-1.7,1.4-2.5,2.1c-1.6-1-3.4-1.8-5.2-2.4c-0.2-1-0.2-2.1-0.6-3.1
				C537.1,245.6,535.6,245.6,534.6,246.1z"/>
		</g>
		<path fill="#AEA79F" d="M532.3,224c3.3-1.2,7.3,1.8,7,5.3c0,3.9-5.1,6.6-8.3,4.2C527.4,231.3,528.1,225.1,532.3,224z"/>
		<path fill="#AEA79F" d="M565.9,232c5-1.5,10.4,3,9.8,8.2c-0.2,4.4-4.6,8-8.9,7.3c-3.8-0.5-7.1-4-6.9-8
			C559.9,236.1,562.5,232.8,565.9,232z"/>
		<path fill="#AEA79F" d="M533.5,255.6c4.1-2.1,9.4,1.3,9.3,5.8c0.4,5-5.8,8.7-10,5.9C528.4,265,528.7,257.5,533.5,255.6z"/>
	</g>
	<g>
		<g>
			<path fill="#FFFFFF" d="M351.5,386.1c32.7-18.9,65.5-37.8,98.2-56.7c32.7,18.9,65.4,37.8,98.1,56.7c0,37.9,0,75.7,0,113.6
				c-30.4,17.6-60.9,35.1-91.3,52.7c-2.2,1.3-4.5,2.4-6.4,4h-0.8c-0.7-0.6-1.5-1.2-2.2-1.6c-31.9-18.3-63.7-36.8-95.5-55.1
				C351.5,461.8,351.5,423.9,351.5,386.1z"/>
		</g>
		<g>
			<path fill="#E95420" d="M351.5,386.1c32.7-18.9,65.5-37.8,98.2-56.7c32.7,18.9,65.4,37.8,98.1,56.7c0,37.9,0,75.7,0,113.6
				c-30.4,17.5-60.9,35.1-91.3,52.7c-2.2,1.3-4.5,2.4-6.4,4h-0.8c-0.7-0.6-1.5-1.2-2.2-1.6c-31.9-18.3-63.7-36.8-95.5-55.1
				C351.5,461.8,351.5,423.9,351.5,386.1z M362.4,392.5c0.1,33.6,0,67.1,0,100.7c29.1,16.9,58.2,33.6,87.3,50.4
				c29.1-16.8,58.2-33.6,87.3-50.4c-0.1-33.6,0.1-67.2-0.1-100.9c-29.1-16.7-58.1-33.6-87.2-50.3
				C420.6,358.9,391.5,375.6,362.4,392.5z"/>
		</g>
		<g>
			<path fill="#E95420" d="M440.3,375.4c14.4-1.8,29.5,1.3,42.1,8.7c8.3,4.9,15.6,11.6,21.1,19.6c8,11.6,12.2,25.7,11.8,39.8
				c-0.4,21.5-12.1,42.5-30.2,54.1c-18.6,12.3-43.5,14.4-63.8,5.2c-18-7.8-32-24-37.2-42.9c-4.5-15.9-2.9-33.4,4.6-48.2
				C398.4,392,418.5,377.9,440.3,375.4z M442.1,388c-10,1.2-19.5,5.1-27.3,11.3c-10.2,8-17.3,19.8-19.7,32.5
				c-2.1,10.7-0.6,22,3.8,32c4.6,10.4,12.6,19.2,22.5,24.9c10.3,6,22.6,8.4,34.4,6.7c10.3-1.4,20-5.8,27.9-12.6
				c9.6-8.2,16.1-19.8,18.2-32.2c1.9-11.2,0.1-23-5-33.1c-4.7-9.5-12.3-17.5-21.5-22.8C465.3,389.1,453.5,386.6,442.1,388z"/>
		</g>
		<g>
			<path fill="#E95420" d="M439.7,391.1c12.4-2.2,25.7,0.5,36.4,7.3c9.4,5.9,16.8,15.1,20.6,25.5c6.7,17.7,2.7,38.8-10.3,52.6
				c-7.8,8.6-18.5,14.3-29.9,16c-10.5,1.6-21.5-0.1-31-4.8c-9-4.5-16.6-11.7-21.5-20.3c-6.2-10.6-8.3-23.4-5.9-35.4
				c1.7-9.2,6-17.8,12.3-24.8C418,398.9,428.4,393.1,439.7,391.1z M457.5,405.8c-1.4-1.3-3.2-3.3-5.4-2.5c-3,0.7-3.9,5.1-1.5,7
				c2.4,2.1,6.6,0.5,6.7-2.7c0.9,1.3,1.6,3,3.3,3.5c1.5,0.3,2.9-0.5,4.2-1c0.3,1,0.5,2.2,1.2,3.1c0.9,1.2,2.4,1.4,3.6,1.9
				c-0.5,1.8-1,4,0.6,5.4c1.5,1.6,3.7,1.1,5.5,0.5c0,1.5,0.1,3.1,1.2,4.2c1,1.2,2.7,1.3,4.2,1.5c-0.5,2.4,0.4,4.7,2.4,6
				c-2.1,0.8-3.3,2.7-3.7,4.9c-1.6-1-3.3-1.3-5.1-1c0.3-1.8,0.5-3.8-1-5.1c-1.4-1.5-3.5-1-5.3-0.5c0.3-2.8-1.8-5.9-4.9-5.4
				c-3.4,0.4-4,5-2.1,7.2c1.4,1.3,3.4,0.8,5.1,0.5c0.2,1.5,0.4,3.3,1.6,4.2c1.2,1.2,2.9,1.1,4.4,0.9c0,1.5-0.4,3.1,0.6,4.4
				c1.2,1.9,4,2.4,5.7,1c1.2-0.8,1.5-2.4,2-3.8c1.2,0.5,2.4,1.2,3.8,1c1.9-0.2,3.3-1.9,3.5-3.7c0-1.9-1.4-3.3-2.8-4.4
				c2.1-0.7,4.2-2.8,3.4-5.2c-0.5-2.4-3.2-3.2-5.4-3.2c0.4-1.8,0.4-4.1-1.3-5.3c-1.4-1.4-3.4-0.6-5-0.2c-0.2-1.3-0.1-2.9-1.1-3.9
				c-0.8-1.1-2.3-1.4-3.5-1.8c0.4-1.8,0.9-4.1-0.7-5.5c-1.6-1.8-4.2-1.1-6,0.1c-0.4-2-1.3-4.5-3.6-4.7
				C460.2,402.5,458.7,404.4,457.5,405.8z M431.2,411.5c-3.3,1-5.8,3.5-7.8,6.2c-4.3,6-6.9,13.7-5.2,21c-1.8,1.9-4,3.6-4.6,6.3
				c-0.5,2.7,0.3,5.5-0.4,8.1c-0.4,1.5-1.5,2.7-2.3,3.9c0.6,0.4,1.2,0.8,1.8,1.2c2.3-1,3.5-3.6,3.5-6.1c0.1-3.5-0.5-7.6,2.5-10
				c-0.4,1.9-1.2,3.7-0.9,5.6c0.2,1.9,1,3.6,1.3,5.5c0.2,2-0.6,3.9-1.3,5.8c0.7,0.3,1.4,1.1,2.2,0.5c1.5-0.9,1.8-2.9,2-4.4
				c-0.1-3.8-2.1-7.3-1.3-11.1c0.5,1.6,0.8,3.2,1.4,4.8c1.2,2.5,3.7,4.1,4.7,6.8c0.4,1.5,0.3,3,0.4,4.6c0.8-0.4,2.5-0.2,2.6-1.4
				c1-4-2.2-7.2-4.6-10.1c-1.5-1.7-0.9-4.1-0.8-6.2c5.6-2.5,9.4-7.7,11.5-13.3c1.6-4.3,2.7-9.2,1.4-13.7
				C436.6,412.8,433.9,410.7,431.2,411.5z M451.9,429.6c-0.6,2.1,1,3.7,2.1,5.2c-1.8,1.2-3.9,3.1-2.9,5.5c0.8,2.7,4.2,3.5,6.5,2.1
				c-0.1,1.9,0.1,4.2,1.9,5.3c2.5,1.7,6.3-0.5,6.2-3.5c0.1-1.8-1.3-3.5-3-3.9c-1.2-0.4-2.4,0.2-3.6,0.4c0.1-2.1-0.7-4.1-2.3-5.5
				c1.3-1.2,2.4-2.4,3.4-3.8c-0.5-1.2-0.8-2.5-1.6-3.6C456.7,425.6,452.5,426.6,451.9,429.6z M441.3,453.3c-1.7,1.3-1.6,3.6-2.1,5.5
				c-0.5,3.6-5,4.9-5.6,8.4c-0.6,4.3,3.6,9.6,8.2,7.8c3.2-1.1,6.8-0.9,9.6,0.8c1.8,1,2.9,2.6,4.3,4c3.3,2.9,9,1.7,11.1-2
				c1.2-3.1-1-6.9,1.3-9.6c1.3-1.9,3.8-1.6,5.8-1.5c1.9,0,3.2,1.7,4.8,2.6c0.4-1,1.2-2.1,0.3-3c-2-2.9-6.1-2.3-9.1-2.7
				c2.2-2.4,5.5-4,8.9-3.3c1.9,0.4,2-2.1,0.4-2.6c-3.5-1.5-7,0.9-10,2.4c-1.1-0.5-2.1-1.2-3.3-1.5c-1.8-0.4-3.3,0.7-4.9,1.2
				c-2,0.7-4.3,0.1-6-1.2c-1.7-1.4-2.1-3.8-3.9-5.1C448.5,451.3,444.1,451.1,441.3,453.3z"/>
		</g>
		<path fill="#E95420" d="M426.7,428.4c2.9-0.6,5.8,2.5,4.9,5.3c-0.6,3-4.9,4.2-7,2.1C422,433.7,423.3,428.9,426.7,428.4z"/>
		<path fill="#E95420" d="M445.1,458.4c3-1.2,6.5,2.1,5.5,5.2c-0.7,3-5,4.2-7.2,2.1C441.1,463.5,442.1,459.2,445.1,458.4z"/>
	</g>
</g>
</svg>
