<?xml version="1.0" encoding="utf-8"?>
<!-- Generator: Adobe Illustrator 18.1.1, SVG Export Plug-In . SVG Version: 6.00 Build 0)  -->
<svg version="1.2" baseProfile="tiny" id="Layer_1" xmlns="http://www.w3.org/2000/svg" xmlns:xlink="http://www.w3.org/1999/xlink"
	 x="0px" y="0px" viewBox="0 0 900 650" xml:space="preserve">
<rect fill="#007AFF" width="900" height="650"/>
<circle fill="#3395FF" cx="450" cy="325" r="260"/>
<g>
	<g id="head">
		<g>
			<path fill="#FFFFFF" d="M249.9,209.8c32.5-18.7,64.9-37.5,97.4-56.2c32.4,18.8,64.9,37.5,97.4,56.2c0,37.5,0,75.1,0,112.6
				c-32.1,18.5-64.2,37.1-96.3,55.6c-0.9,0.8-2,0.1-2.8-0.4c-31.8-18.5-63.8-36.8-95.6-55.3C249.9,284.8,249.9,247.3,249.9,209.8z"
				/>
		</g>
		<g>
			<path fill="#005A51" d="M249.9,209.8c32.5-18.7,64.9-37.5,97.4-56.2c32.4,18.8,64.9,37.5,97.4,56.2c0,37.5,0,75.1,0,112.6
				c-32.1,18.5-64.2,37.1-96.3,55.6c-0.9,0.8-2,0.1-2.8-0.4c-31.8-18.5-63.8-36.8-95.6-55.3C249.9,284.8,249.9,247.3,249.9,209.8z
				 M261.2,216.4c0,33.1,0,66.3,0,99.4c28.7,16.5,57.4,33.1,86.1,49.7c28.7-16.5,57.3-33.1,86-49.7c0-33.1,0-66.3,0-99.4
				c-28.7-16.5-57.4-33.1-86-49.7C318.6,183.2,289.9,199.8,261.2,216.4z"/>
		</g>
		<g>
			<path fill="#005A51" d="M317.6,209.1c9.8-6.6,21.8-9.5,33.6-8.7c12.3,0.5,25.1,4.1,34.2,12.8c7.9,7.4,11.8,18.1,12.3,28.8
				c0.2,4.7,0.6,9.7,3.4,13.6c2.5,4.4,7.5,7.1,8.9,12.2c0.7,1.8-0.4,3.7-2,4.5c-2.3,1.3-4.6,2.8-6.7,4.5c1,1.9,2.1,3.7,3.3,5.5
				c-1.9,1.1-3.9,2.1-5.8,3.3c1.8,1.5,3.2,3.3,4.2,5.4c-1.3,1.5-2.7,2.9-3.7,4.6c-1,3.6,2.7,6.8,1.6,10.5c-1,3.2-4.1,5.6-7.4,6
				c-8.1,0.9-16.2-0.5-24.2-1.1c-1.7,0-4.7-0.2-4.7,2.1c-0.4,4.5-0.1,9.1-0.3,13.7c-16.8,0.2-33.7,0.2-50.5,0.3
				c1.1-9.5,2.7-19,3.6-28.6c-1.6-10.1-8.2-18.2-13.7-26.4c-3.7-4.8-6.3-10.5-6.7-16.6c-0.4-6.8-0.5-13.8,1.3-20.4
				C301.3,224.5,308.5,215.2,317.6,209.1z M328.3,215.3c-0.2,0.8-0.3,1.6-0.5,2.4c-1.1,0.5-2.3,1-3.4,1.5c-0.7-0.6-1.5-1.2-2.2-1.8
				c-0.8,0.7-1.4,1.6-2,2.5c0.4,0.4,1.3,1.3,1.8,1.7c-0.5,1.1-1,2.3-1.4,3.5c-1,0.3-2,0.3-2.8,0.9c-0.2,0.9-0.2,1.8-0.2,2.8
				c1,0.1,1.9,0.2,2.9,0.4c0.6,1.4,1.3,2.8,2,4.2c-0.6,0.7-1.2,1.4-1.8,2.1c0.7,0.8,1.6,1.6,2.5,2.2c0.6-0.7,1.2-1.3,1.8-2
				c1,0.4,2,0.8,3.1,1.1c0.1,0.9,0.2,1.8,0.3,2.6c1,0.1,2.1,0.2,3.1,0.1c0.3-0.9,0.5-1.8,0.6-2.7c1.2-0.5,2.4-1,3.5-1.5
				c0.8,0.6,1.5,1.2,2.3,1.8c2.1-0.9,2.1-3.1,0.4-4.4c0.5-1.2,1-2.4,1.5-3.6c0.7,0,2-0.1,2.7-0.1c0.1-0.8,0.4-1.6,0.3-2.5
				c-0.5-1.3-2.1-1-3.2-1.4c-0.3-1-0.9-2-0.8-3c0.5-0.7,1.1-1.5,1.7-2.2c-0.6-0.7-1.2-1.3-1.9-1.8c-0.9,0.4-1.7,0.9-2.4,1.5
				c-1.4-0.6-2.7-1.2-4.1-1.8c-0.2-1-0.3-1.9-0.5-2.9C330.3,214.9,329.3,214.8,328.3,215.3z M354.7,221.1c-1.6,1.3,0,3.2,0.4,4.8
				c-1.4,1.4-2.7,2.8-4,4.3c-1.9-0.9-5-1.6-5.5,1.3c-0.9,2.4,1.8,3.1,3.5,3.9c0,2,0.1,4,0.2,5.9c-1.3,0.8-3.2,1.2-3.5,2.9
				c0.2,1,0.4,2.1,1.3,2.7c1.4,1.3,3-0.3,4.5-0.6c1.6,1.6,3.3,3.2,5.2,4.5c-0.3,1.1-0.6,2.1-0.8,3.2c0.2,1.9,3,3,4.4,1.7
				c0.8-1,1.1-2.2,1.7-3.3c1.6-0.1,3.3-0.2,4.9-0.3c0.8,1.7,2,4.5,4.4,3.1c2.6-0.8,1.5-3.7,0.7-5.4c1.4-1.4,2.8-2.8,4-4.3
				c1.3,0.3,2.5,1,3.8,0.8c1.3-0.7,1.8-2.2,1.8-3.5c-0.6-1.5-2.4-1.8-3.6-2.5c0-2,0-3.9-0.2-5.9c1.1-0.6,2.3-1.1,3.2-2
				c0.5-1.2,0.1-2.6-0.8-3.4c-1.3-1.5-3.2,0-4.7,0.4c-1.1-1.1-2.3-2.3-3.4-3.4c0.5-1.8,1.8-4.6-0.7-5.5c-2.4-1.4-3.8,1.2-4.4,3.1
				c-2.3-0.2-4.6-0.2-6.9,0c-0.7-1.1-1.1-2.5-2.2-3.3C356.8,220,355.5,220.3,354.7,221.1z M329.7,244.6c-0.2,1-0.3,2-0.4,3
				c-1.4,0.6-2.8,1.3-4.1,1.9c-1.1-1.3-3.1-2.9-4.3-0.8c-1.4,1.5,0.5,2.9,1.4,4c-0.6,1.4-1.2,2.9-1.8,4.3c-1.6,0.2-4.2,0.2-4.2,2.4
				c-0.3,2.5,2.4,3,4.2,2.9c0.7,1.6,1.5,3.3,2.3,4.9c-0.7,0.9-1.4,1.8-2.1,2.7c0.7,0.7,1.1,1.7,2,2.1c1.5,0.5,2.4-1.1,3.4-1.9
				c1.1,0.5,2.3,1,3.4,1.4c0.1,1.1,0.1,2.3,0.2,3.4c1.4,0.4,3.2,0.8,4.5-0.2c0.4-1,0.4-2.2,0.5-3.3c1.5-0.6,3-1.2,4.6-1.8
				c1.2,1.1,3.1,2.8,4.5,1c1.6-1.4-0.2-3.2-0.9-4.5c0.5-1.3,1.1-2.6,1.6-3.9c1.8-0.1,4.6-0.3,4.2-2.8c-0.1-2.3-2.6-2.3-4.3-2.5
				c-0.5-1.2-1-2.4-1.4-3.6c0.7-1,1.9-1.7,2.1-3c-0.2-1.3-1.6-1.8-2.5-2.5c-0.9,0.7-1.7,1.4-2.5,2.1c-1.7-1-3.4-1.8-5.2-2.4
				c-0.3-1.2,0.2-3.1-1.4-3.5C332,243.8,330.7,243.7,329.7,244.6z"/>
		</g>
		<path fill="#005A51" d="M328,222.5c3.4-1.7,7.8,1.5,7.3,5.3c-0.2,3.9-5.3,6.3-8.4,3.8C323.7,229.3,324.3,223.8,328,222.5z"/>
		<path fill="#005A51" d="M361.3,230.4c5.5-1.9,11.4,3.8,9.8,9.3c-1.1,5.4-8.5,7.9-12.6,4.1C353.8,240.2,355.5,231.7,361.3,230.4z"
			/>
		<path fill="#005A51" d="M329.6,253.6c3.8-1.9,8.9,0.9,9.2,5.1c0.7,4-3.3,8-7.3,7.3c-3.2-0.3-5.8-3.4-5.7-6.6
			C325.8,257,327.4,254.6,329.6,253.6z"/>
	</g>
	<g id="pill">
		<g>
			<path fill="#FFFFFF" d="M352.5,387.6c32.5-18.7,64.9-37.5,97.4-56.2c32.4,18.8,64.9,37.5,97.3,56.2c0,37.5,0.1,75.1,0,112.6
				c-32.5,18.6-64.9,37.4-97.3,56.1c-32.5-18.7-64.9-37.5-97.4-56.2C352.5,462.7,352.5,425.2,352.5,387.6z"/>
		</g>
		<g>
			<path fill="#DC3546" d="M352.5,387.6c32.5-18.7,64.9-37.5,97.4-56.2c32.4,18.8,64.9,37.5,97.3,56.2c0,37.5,0.1,75.1,0,112.6
				c-32.5,18.6-64.9,37.4-97.3,56.1c-32.5-18.7-64.9-37.5-97.4-56.2C352.5,462.7,352.5,425.2,352.5,387.6z M363.9,394.2
				c0,33.1,0,66.2,0,99.3c28.7,16.7,57.4,33.2,86.1,49.7c28.7-16.6,57.3-33.1,86-49.6c0-33.2,0.1-66.3,0-99.5
				c-28.7-16.5-57.3-33.1-86-49.6C421.2,361.1,392.5,377.7,363.9,394.2z"/>
		</g>
		<g>
			<path fill="#DC3546" d="M454.2,391.1c11.9-3.4,25.4,2.5,31.2,13.2c4.4,7.8,4.6,17.8,0.4,25.8c-1.6,3-3.8,5.6-6,8.3
				c-15.3,18.2-30.5,36.4-45.8,54.6c-7.9,9.2-22.1,11.6-32.7,6c-6.7-3.5-11.9-9.6-14-16.9c-2.5-8.4-0.6-18,5-24.8
				c15.9-19,31.9-38,47.8-57C443.8,395.9,448.7,392.6,454.2,391.1z M444,406.4c-15.4,18.3-30.8,36.7-46.2,55
				c-4.6,5.4-6.1,13.2-3.6,19.8c2.9,8.6,12,14.7,21.1,13.9c5.5-0.4,10.7-3.2,14.2-7.5c7.9-9.4,15.8-18.8,23.7-28.3
				c-9.5-7.8-18.9-15.8-28.3-23.7c7.3-9.1,14.9-17.9,22.4-26.9c5.8-6.8,15-9.5,23.7-8.9C461.7,396.5,450.5,398.8,444,406.4z"/>
		</g>
		<g>
			<path fill="#DC3546" d="M444.9,485.8c11.1-12.9,21.9-26.1,32.9-39.1c8,3.1,14.5,10.1,16.6,18.5c2.9,10.7-1.5,22.9-10.7,29.1
				c-9.9,7.1-24.5,6.3-33.5-2C448,490.6,446.3,488.3,444.9,485.8z M476.2,460.6c-8.2,10-16.8,19.6-24.7,29.8
				c2.6-2.7,4.9-5.7,7.3-8.5c8.2-9.9,16.6-19.5,24.6-29.5C480.8,454.9,478.6,457.8,476.2,460.6z M484.9,454
				c-10.5,12.3-21,24.7-31.2,37.3c4.7-5,8.9-10.5,13.4-15.7C473,468.3,479.3,461.4,484.9,454z M492.9,471.9
				c-0.7,3.1-1.3,6.3-2.7,9.2c-3.4,7.2-9.9,12.8-17.6,15.1c6.1-1,11.8-4.6,15.4-9.6C491.2,482.4,492.6,477.1,492.9,471.9z"/>
		</g>
		<path fill="#DC3546" d="M423.4,483.1c6.8-7.8,13.3-15.7,19.9-23.6c1,0.8,2.1,1.7,3.1,2.6c-6.4,7.8-12.9,15.5-19.4,23.2
			c-5.7,6.5-15.8,8.4-23.6,4.6C410.6,490.3,418.4,488.7,423.4,483.1z"/>
	</g>
	<g id="тet">
		<g id="net_1_">
			<path fill="#FFFFFF" d="M455.3,209.9c32.4-18.8,64.9-37.5,97.3-56.2c32.4,18.7,64.8,37.4,97.2,56.1c0,37.4,0,74.8,0,112.2
				c-32.4,18.7-64.8,37.4-97.2,56.1c-31.8-18.3-63.6-36.7-95.3-55c-0.7-0.4-1.3-0.9-2-1.3V209.9z"/>
		</g>
		<g id="net">
			<path fill="#1995DC" d="M455.3,209.9c32.4-18.8,64.9-37.5,97.3-56.2c32.4,18.7,64.8,37.4,97.2,56.1c0,37.4,0,74.8,0,112.2
				c-32.4,18.7-64.8,37.4-97.2,56.1c-31.8-18.3-63.6-36.7-95.3-55c-0.7-0.4-1.3-0.9-2-1.3V209.9z M466.3,216.1c0,33.2,0,66.5,0,99.7
				c28.8,16.6,57.5,33.2,86.3,49.8c28.8-16.6,57.6-33.2,86.4-49.9c-0.1-33.2,0-66.4-0.1-99.7c-28.8-16.5-57.6-33.2-86.4-49.8
				C523.9,182.9,495.1,199.5,466.3,216.1z"/>
		</g>
		<g>
			<g>
				<path fill="#1995DC" d="M528,193.1c4.1-1.8,8.6-2.3,13-1.7c0.6,0,1.2,0.1,1.8,0.3c4.2,0.9,8.2,2.9,11.5,5.8
					c3.7,3.3,6.3,7.7,7.3,12.6c0.6,2.8,0.6,5.8,0.3,8.7c-0.4,2.9-1.3,5.8-2.6,8.5c-0.1,0.2-0.3,0.6,0,0.7
					c9.3,6.6,18.5,13.3,27.8,19.8c3.5-3.9,8.2-6.7,13.3-7.7c5.2-1.1,10.8-0.5,15.6,1.9c6.1,2.9,11,8.5,12.9,15.1
					c1.1,3.5,1.3,7.1,0.8,10.7c-0.1,1.2-0.4,2.4-0.7,3.5c-1.7,5.5-5.3,10.5-10.2,13.6c-2,1.2-4.1,2.3-6.4,2.9
					c-4.5,1.3-9.5,1.3-14-0.1c-3.1-1-6.1-2.5-8.6-4.6c-2.5-2.1-4.6-4.6-6.1-7.4c-2.1,0.7-4.1,1.6-6.1,2.4c-5.7,2.2-11.3,4.4-17,6.7
					c0.7,2.4,1.2,4.8,1.4,7.2c0.4,4.7,0.1,9.4-1.3,13.9c-0.1,0.5-0.3,0.9-0.4,1.4c-0.4,1.2-0.9,2.4-1.4,3.5
					c-0.6,1.2-1.2,2.4-1.9,3.5c-0.5,0.9-1.1,1.8-1.7,2.7c-2.3,3.2-5.1,6.1-8.4,8.4c-0.8,0.6-1.7,1.2-2.6,1.7
					c-0.2,0.1-0.5,0.3-0.7,0.4c-1.6,1-3.3,1.7-5,2.4c-0.4,0.1-0.8,0.3-1.2,0.4c-0.4,0.1-0.7,0.3-1.1,0.4l0,0c-0.5,0.1-1,0.3-1.5,0.4
					c-0.7,0.2-1.4,0.3-2,0.5c0,0.1,0,0.2,0,0.3l-0.1-0.2c-1.6,0.3-3.2,0.5-4.8,0.6c-0.2,0.1-0.4,0.1-0.7,0.1c-1,0-2,0-3,0
					c-0.3,0-0.6,0-0.8-0.1c-1,0-1.9-0.1-2.9-0.3c-0.8-0.1-1.6-0.2-2.4-0.4c-0.6-0.1-1.2-0.3-1.8-0.4c-0.5-0.1-0.9-0.3-1.4-0.4
					c-0.4-0.2-0.9-0.3-1.4-0.4l0,0c-0.4-0.1-0.7-0.2-1.1-0.4c-0.3-0.1-0.7-0.3-1-0.4c-1.4-0.6-2.8-1.3-4.2-2.1
					c-0.2-0.1-0.5-0.3-0.7-0.4c-0.4-0.3-0.9-0.6-1.3-0.8c-0.6-0.3-1.1-0.8-1.7-1.1c-3.8-2.8-7.1-6.4-9.5-10.4
					c-2.8-4.7-4.6-10-5.1-15.4c-0.6-6,0.2-12.1,2.5-17.6c3.3-8.1,9.6-14.9,17.3-18.8c5.3-2.7,11.3-4.1,17.3-4c0.7,0,1.5,0.1,2.2,0.1
					c0.9-6.6,2-13.1,2.9-19.6c-3.3-0.9-6.5-2.5-9.2-4.7c-2.7-2.2-5-5-6.5-8.2c-3.8-7.7-3.2-17.3,1.6-24.4
					C519.8,198.1,523.6,194.9,528,193.1z M537,201.2c-1.2,0.2-2.4,0.6-3.5,1.3c-1.7,1.2-2.8,3.2-3,5.2c-0.4,3.6,2.5,7.2,6.1,7.7
					c1.7,0.3,3.5-0.1,5-1.1c1.7-1.1,2.9-2.9,3.2-4.8c0.3-1.8-0.1-3.7-1.1-5.2c-0.9-1.4-2.4-2.4-4-2.9
					C538.8,201.2,537.9,201,537,201.2z M535.5,225.6c-4.7,0.8-8.7,4.7-9.6,9.4c3.7,2.2,7.9,3.4,12.2,3.3c3.9-0.1,7.8-1.2,11.2-3.2
					c-0.7-3.4-2.9-6.5-6-8.2C541,225.7,538.2,225.1,535.5,225.6z M553.2,234.6c-1.9,1.6-4.1,2.8-6.3,3.7c-3.2,1.3-6.8,1.9-10.3,1.8
					c-0.9,6.6-2,13.1-2.9,19.6c6.5,1.4,12.6,4.8,17.4,9.4c3.2,3,5.7,6.6,7.7,10.6c7.7-3.1,15.4-6,23.1-9.2c-1.3-5.3-1-11,1.1-16.1
					c0.3-0.8,0.8-1.5,1.1-2.3c-1.1-0.7-2.1-1.5-3.2-2.2c-8.3-6-16.6-11.9-25-17.8C555,233,554.2,233.9,553.2,234.6z M604.5,249.8
					c-0.4,0.1-0.9,0.2-1.3,0.3c-3,1-5.1,4.1-4.8,7.3c0.2,2.6,1.8,5,4.1,6c0.9,0.5,2,0.6,3,0.8c2.3-0.1,4.6-1.2,6-3.2
					c1.2-1.6,1.6-3.7,1.1-5.7c-0.4-1.6-1.3-3-2.5-4C608.5,250.1,606.4,249.4,604.5,249.8z M524,271.6c-2.2,0.3-4.3,1.3-6.1,2.7
					c-2.1,1.7-3.6,4.2-4.2,6.9c-0.9,4.2,0.8,8.9,4.1,11.6c2.1,1.8,4.8,2.7,7.6,2.9c3.1-0.1,6.2-1.2,8.4-3.4c2.3-2.2,3.7-5.2,3.7-8.4
					c0.2-4.8-2.9-9.5-7.3-11.3C528.3,271.7,526.1,271.2,524,271.6z M602,274.4c-4,1.3-7.3,4.7-8.1,8.9c0.6,0.3,1.1,0.7,1.7,1
					c1,0.4,1.9,1,3,1.2c2,0.6,4.1,1.1,6.2,1c0.8,0,1.6,0,2.3,0c2-0.1,4-0.7,6-1.3c1.4-0.6,2.8-1.2,4-2c-1.1-4.6-5.1-8.5-9.9-9
					C605.5,274,603.7,273.8,602,274.4z M512.6,309.8c-3.9,2.9-6.9,7.1-8.1,11.9c0.1,0.1,0.2,0.2,0.3,0.3c0.1,0.1,0.3,0.2,0.4,0.3
					c0.1,0,0.2,0.1,0.2,0.1c0.1,0,0.2,0.1,0.2,0.2c0.4,0.3,0.8,0.7,1.2,1c1.1,0.7,2.2,1.4,3.4,2c1.2,0.5,2.4,1.1,3.5,1.6
					c0.6,0.2,1.3,0.5,1.9,0.6c1.3,0.4,2.5,0.8,3.9,1c0.9,0.2,1.8,0.3,2.8,0.4c0.4,0.2,0.8,0.1,1.2,0.1c1.4,0,2.7,0,4.1,0
					c0.5,0,0.9,0.1,1.3-0.1c0.9-0.1,1.8-0.2,2.6-0.4c0.4,0,0.9-0.1,1.3-0.2c0.9-0.3,1.7-0.4,2.6-0.7c0.5-0.1,1-0.2,1.4-0.4
					c0.8-0.2,1.6-0.7,2.4-1c0.7-0.3,1.3-0.6,2-0.9c1.3-0.9,2.9-1.5,4-2.7c0.4-0.3,0.8-0.5,1.2-0.8c0-0.1-0.1-0.3-0.1-0.4
					c-1.1-4.2-3.6-7.9-6.9-10.8c-3.2-2.8-7.3-4.6-11.5-5.1C522.7,305,517,306.5,512.6,309.8z"/>
			</g>
		</g>
	</g>
</g>
</svg>
