<?xml version="1.0" encoding="utf-8"?>
<!-- Generator: Adobe Illustrator 18.1.1, SVG Export Plug-In . SVG Version: 6.00 Build 0)  -->
<svg version="1.2" baseProfile="tiny" id="Layer_1" xmlns="http://www.w3.org/2000/svg" xmlns:xlink="http://www.w3.org/1999/xlink"
	 x="0px" y="0px" viewBox="0 0 900 650" xml:space="preserve">
<rect fill="#00CC99" width="900" height="650"/>
<circle fill="#33D6AD" cx="450" cy="325" r="260"/>
<g>
	<g>
		<path fill="#FFFFFF" d="M440.3,142.9c3.3-1.7,6.4-4.5,10.2-5c4.4,1.7,8.3,4.6,12.5,6.9c51.1,29.4,102,59.1,153.2,88.3
			c0.1,64.1,0.1,128.2,0,192.4c-54.8,31.6-109.6,63.2-164.3,94.9c-1.1,0.8-2.5,0.9-3.6,0c-54.8-31.7-109.6-63.3-164.4-94.9
			c0-64.1-0.2-128.3,0.1-192.4C336.2,203.2,388.2,173,440.3,142.9z"/>
	</g>
	<g>
		<g>
			<path fill="#40BA92" d="M410.2,210.9c19.3-6.8,40.4-8.4,60.5-4.9c17.7,3,34.7,10.1,49.4,20.6c20.4,14.4,36.1,35.3,44.2,59
				c7,20.3,8.5,42.4,4.2,63.4c-3.3,16.5-10.1,32.2-19.8,45.9c-10.1,14.3-23.4,26.4-38.7,35.1c-17.6,10.1-37.8,15.6-58,15.9h-3.9
				c-20.2-0.4-40.3-5.7-57.8-15.8c-25.4-14.4-45.3-38.3-54.7-66c-4.1-11.9-6.2-24.5-6.5-37.2V323c0.2-8.1,1.1-16.3,2.9-24.2
				c4.3-19.5,13.5-37.8,26.6-52.9C372.4,230,390.3,217.7,410.2,210.9z M444.1,212.7c-19.4,1-38.5,7.1-54.8,17.6
				c1.1,2.4,2.5,4.8,3,7.4c0.2,2.5-2.1,4.2-2.4,6.6c0.8,1.9,2.3,3.4,3,5.3c0.9,2.3,1.8,5.3,0.2,7.5c-1.2-0.5-2.5-1.3-3.9-1.2
				c-2.6,0.2-4.5,2.5-7.1,2.6c-2.1,0.2-4.6,0.2-5.8,2.2c-1.5,2.8-0.4,6.1-1.5,9c-0.5,1.6-1.9,2.9-3.6,3.1c-3.4,0.3-7,0.1-10.3,0.9
				c-2.2,1.2-2.5,4-4.1,5.7c-2.8,1.9-6.6,1.8-9.2,4c-1.4,1.2-3,2.5-3.7,4.3c-4.8,13.8-6.9,28.5-6.1,43.1c0.2,2,0.6,3.9,1.1,5.8
				c0.8,3,3.8,5.2,6.9,4.9c2-0.2,3.9,0.6,4.9,2.3c1.6,1.9,0.1,4.6,1.4,6.6c0.8,1.7,2.6,2.5,4,3.6c1.3,1.8,2.2,4.2,4.5,4.9
				c2.1,0.5,4-1.1,6.1-1.3c1.5,0.4,2.7,1.4,4.1,2.1c2.7,1.7,5.7,3.7,6.6,6.9c1.8,6-0.6,12.3,0,18.4c0.2,2.3,1.4,4.4,2.1,6.6
				c0.4,1.4-0.5,2.8-1.4,3.8c-1.2,1.4-2.1,3-3,4.6c-0.7,1.3-1.5,2.9-0.8,4.4c0.7,1.9,2.8,2.6,4.2,3.9c0.5,1,0.2,2.1,0.2,3.1
				c8.9,7.3,18.9,13.3,29.6,17.6c22.4,9,47.7,10.5,71,4.3c17.4-4.6,33.6-13.6,46.9-25.7c0.1-1.9,0.2-3.8,0.9-5.6
				c0.7-1.9,1.9-3.5,2.5-5.4c0.4-1.3,0.2-2.7,0.9-3.9c0.9-1,2.3-0.9,3.4-1.3c2.4-0.4,4.6-1.5,6.3-3.2c1.8-1.9,4.5-3,5.4-5.6
				c1-3.4,0-7,0.3-10.4c0.1-3.4,1.7-6.9,4.6-8.7c1.3-0.8,2.9-0.3,4.2-1c1.1-1.2,1.1-3.3,2.7-4.1c4.1-12.6,5.7-26,5-39.3
				c-0.9,1.2-2.3,2.2-2.3,3.9c-0.2,1.8-1,3.4-1.1,5.2c-0.1,2.3,1.1,4.4,1.2,6.6c0,2.3-1.5,4.2-2.9,5.9c-1-0.6-2.3-1.1-2.6-2.4
				c-0.2-1.5,0.4-3,0.1-4.5c-1.4-1.4-3.4-2.3-4.1-4.3c-0.6-2-0.1-4.1-0.1-6.2c0.3-4-0.9-8.2-3.2-11.5c-1.3-1.9-3.8-1.8-5.8-2.2
				c-2-0.2-3.9-1.1-5.7-2.1c-2,3.3-2.6,7.2-3.6,10.9c-1.1,4.3-5.3,7-9.3,8.3c-3.2,0.8-6.7,0.6-9.8,1.7c-1.4-3.2-3.3-6.4-6.2-8.4
				c-3.9-2.9-5.4-7.8-6.1-12.3c-0.4-1.2-0.2-2.9-1.4-3.7c-0.6,5-1,10.3,0.8,15.1c1,3,3.4,5.3,4.1,8.4c0.7,2.9,3.9,3.6,6.4,4.2
				c4,1.2,8.3-0.9,12.3,0.7c1.3,0.5,2.4,1.7,2.3,3.2c-0.2,1.4-1.4,2.4-1.7,3.7c0.4,1.5,2.2,2.5,1.5,4.2c-1.5,4.6-6.6,6.5-9.4,10.1
				c-2.4,2.6-3.2,6.4-6.2,8.4c-1.6,1.1-3.8,1.4-4.7,3.3c-1.8,3.4-1.7,7.5-1,11.1c2.5,1.5,5.5,2.5,8.5,2.2c1.5,0,3.2-0.6,4.7,0
				c0.8,1.8-0.3,3.9-0.6,5.7c-1,3.2-0.7,6.9-2.7,9.7c-1.5,1-3.6,0.4-5.2,1.5c-0.9,0.6-1.3,1.6-1.7,2.5c-2.3,0.2-5.1,0.3-6.8-1.5
				c-1.9-2.2-2.5-5.1-4.6-7.2c-0.5,5.2-3.6,9.4-6.4,13.7c-2.4,3.5-6.1,6.1-10.3,7c-2.8,0.6-5.9,0.5-8.4,2.2c-1.8,1.1-2.3,3.3-3,5.1
				c-4.8-1.5-8.1-5.9-10-10.5c-1.5-3.5-0.8-7.5-2.1-11.1c-0.7-2.3-2.1-4.4-2.3-6.9c0.3-2.6,1.2-5,1.3-7.6c0.5-4.2-0.9-8.3-2.8-12
				c-0.9-1.9-2.8-2.8-4.2-4.3c-1.9-1.8-3.1-4.1-3.9-6.5c-1.4-4.1-3.1-8.2-5.9-11.6c-1.5-1.9-4.2-2.5-6.5-2c-2.8,0.6-5.6,1.6-8.5,1.8
				c-5.8,0.4-11.5-1.3-17-2.6c-2.9-0.6-5.7-2.1-7.7-4.4c-0.9-1.1-1.8-2.4-1.8-3.8c0.4-1.6,2-2.6,2.1-4.3c0.1-2.7-1.5-5.4-0.5-8.1
				c0.8-2.3-0.5-4.7-0.1-7.1c0.2-1.6,1.2-2.8,1.8-4.2c0.8-2.5,0.6-5.2,1.8-7.6c1-2.2,3.7-3,4.9-5.1c1.3-1.9,1.5-4.6,3.5-6
				c2.7-0.6,5.8-0.9,8-2.9c0.9-0.8,1.3-2.2,0.4-3.1c-1.8-1.7-4.7-1.3-6.7-2.8c0.3-2.4,1.1-4.7,1-7.1c0.1-2.1-0.5-4.2,0.3-6.2
				c0.5-1.2,1.9-0.8,2.9-0.6c2,0.4,4.4,1.3,6.2-0.3c1.8-1.6,3.3-3.4,4.8-5.2c-1.8-0.6-3.8-1.1-5.2-2.5c-0.9-0.7-1.6-2.1-3-2
				c-1.6,0.2-3.2,0.7-4.8,0.9c0.4-3.2,0.7-6.6,2.8-9.3c3-3.8,7.4-6,11.6-8.2c1.3,2.3,2.8,4.7,3.2,7.4c0.2,1,0.2,2.1,0.9,2.8
				c2,2.2,4.5,3.7,6.8,5.5c1.5-3.8,3.3-7.4,5.1-11.1c1.2-2.4,1.8-5.2,1-7.8c-1.9-6.4,3.5-13.2,9.8-14.3c2.7,0.5,4.9,2.4,7.6,2.7
				c4.9-1,9.2-4.1,14.2-5.1c1.4-0.2,3-0.5,4.2,0.4c0.5,1.7-0.4,3.5,0.4,5.1c1.1,2.3,3.4,3.5,5.6,4.4c2.3,1,4.6,2.3,7.2,1.9
				c4.7-0.6,8.5-3.6,12-6.5c-5-4.7-11-8.2-17.2-11.1C474.4,214.1,459.2,211.9,444.1,212.7z M506.6,235.9c-2,1.2-4,2.5-6.2,3.2
				c0.6,3.1-2.3,5.2-3.8,7.6c2.8-2.3,5.9-4.3,9.5-5.2c4.3-1.3,8.9-0.9,13.3-0.2c-2.5-1.7-5-3.3-7.6-4.9
				C510.2,235.5,508.2,234.8,506.6,235.9z M457.2,238.9c0.9,1.9,2.2,4.2,1.1,6.3c-1.8,3.4-5.8,4.7-9.2,6c0,0.1-0.1,0.3-0.2,0.3
				c2.5-0.7,5-1.5,7.6-1.8c0.8-0.2,1.7,0,2.4,0.5c2.3-0.7,4.7-1.2,6.9-2.3c1.5-0.7,1.4-2.6,1.3-4
				C463.7,242.4,460.7,240.1,457.2,238.9z M444.8,276.6c-2.4,0.7-4.9,0.8-7.4,0.5c-1,1-2,2.1-2.9,3.2c2.5,1.4,5.3,2.4,8.2,2.1
				c2.6-0.2,5.5-0.2,7.5,1.7c2.1,2.4,3.2,5.5,5.7,7.6c1,0.9,2.4,1.5,3.8,1.2c4.2-0.9,8.5-2.4,12.9-2.1c2.1,0.1,4.3,1,5.2,3
				c1.4,2.7,3.1,5.5,5.9,6.9c1.7,0.9,4,0.7,5.4-0.7c2.1-2,2.8-5.1,3.2-7.9c-2-1.6-4-3.3-6.4-4.3c-2.3-1-4.7-1.2-7.1-1.6
				c-3.2-0.5-6.3-1.1-9.4-2c-2-0.6-4-1.6-6.1-2c-1.3-0.3-2.6,0.3-3.9,0.4c-1.6-1.6-2.5-3.9-4.5-5c-1.7-0.9-3.5-1.4-5.1-2.3
				C447.9,274.3,446.3,276,444.8,276.6z"/>
		</g>
	</g>
	<g>
		<path fill="#40BA92" d="M439.8,128.6c3.5-1.8,6.7-4.7,10.7-5.2c4.7,1.8,8.8,4.9,13.2,7.2c53.8,31,107.4,62.2,161.2,93
			c0.1,67.5,0.1,135,0,202.5c-57.7,33.3-115.3,66.6-173,99.9c-1.2,0.9-2.7,1-3.8,0c-57.7-33.3-115.4-66.6-173.1-99.9
			c0-67.5-0.2-135,0.1-202.5C330.2,192.1,384.9,160.2,439.8,128.6z M441,151.5c-48.5,28.1-97.1,56-145.6,84.1
			c-0.1,59.5,0,119.1,0,178.6c50.1,29,100.3,57.9,150.5,86.9c1.9,1.1,4.4,2.7,6.5,1c50.8-29.3,101.6-58.6,152.3-87.9
			c0-59.5,0-119.1,0-178.6c-48.8-28.2-97.6-56.3-146.4-84.5c-2.8-1.5-5.4-3.6-8.5-4.4C446.7,148,443.9,149.8,441,151.5z"/>
	</g>
</g>
</svg>
