<?xml version="1.0" encoding="utf-8"?>
<!-- Generator: Adobe Illustrator 18.1.1, SVG Export Plug-In . SVG Version: 6.00 Build 0)  -->
<svg version="1.2" baseProfile="tiny" id="Layer_1" xmlns="http://www.w3.org/2000/svg" xmlns:xlink="http://www.w3.org/1999/xlink"
	 x="0px" y="0px" viewBox="0 0 900 650" xml:space="preserve">
<rect fill="#EDE2C4" width="900" height="650"/>
<circle fill="#E8ECD0" cx="450" cy="325" r="260"/>
<g>
	<path fill="#FFFFFF" d="M283.8,229.1c55.4-31.9,110.8-63.9,166.2-95.9c55.5,31.9,110.8,64,166.3,95.9c0,64,0,128,0,191.9
		c-55.5,31.9-110.8,64-166.3,95.9c-55.4-32-110.7-64-166.2-95.9C283.7,357,283.7,293,283.8,229.1z"/>
	<g>
		<path fill="#F16824" d="M275,224c58.3-33.6,116.6-67.2,174.9-101c58.4,33.6,116.6,67.4,175,100.9c0.1,67.3,0,134.7,0,202
			c-58.4,33.6-116.6,67.4-175,100.9C391.6,493.3,333.4,459.6,275,426C275,358.7,275,291.3,275,224z M295.5,235.8
			c0.1,59.5-0.1,119,0.1,178.5c51.5,29.7,103,59.3,154.4,89.2c51.7-29.4,102.9-59.6,154.5-88.9c0.2-59.7,0.1-119.3,0.1-179
			C553,206,501.7,176.1,450.1,146.5C398.6,176.3,347,206,295.5,235.8z"/>
	</g>
	<path fill="#F16824" d="M407.7,226.8h84.5c30.9,0,55.9,25,55.9,55.9v84.5c0,30.9-25,55.9-55.9,55.9h-84.5
		c-30.9,0-55.9-25-55.9-55.9v-84.5C351.8,251.9,376.9,226.8,407.7,226.8z"/>
	<path fill="#FFFFFF" d="M414.1,241.5h71.9c26.3,0,47.5,21.3,47.5,47.5v71.9c0,26.3-21.3,47.5-47.5,47.5h-71.9
		c-26.3,0-47.5-21.3-47.5-47.5v-71.9C366.5,262.8,387.8,241.5,414.1,241.5z"/>
	<path fill="#F16824" d="M491.7,260.6c-12.6,0-22.8,10.2-22.8,22.8c0,12.6,10.2,22.8,22.8,22.8c12.6,0,22.8-10.2,22.8-22.8
		C514.4,270.8,504.2,260.6,491.7,260.6z"/>
	<circle fill="#F16824" cx="450" cy="325" r="22.8"/>
	<path fill="#F16824" d="M408.3,343.9c-12.6,0-22.8,10.2-22.8,22.8c0,12.6,10.2,22.8,22.8,22.8c12.6,0,22.8-10.2,22.8-22.8l0,0
		C431.1,354.1,420.9,343.9,408.3,343.9z"/>
</g>
</svg>
