<?xml version="1.0" encoding="utf-8"?>
<!-- Generator: Adobe Illustrator 18.1.1, SVG Export Plug-In . SVG Version: 6.00 Build 0)  -->
<svg version="1.2" baseProfile="tiny" id="Layer_1" xmlns="http://www.w3.org/2000/svg" xmlns:xlink="http://www.w3.org/1999/xlink"
	 x="0px" y="0px" viewBox="0 0 900 650" xml:space="preserve">
<rect fill="#C1972D" width="900" height="650"/>
<circle fill="#CDAC57" cx="450" cy="325" r="260"/>
<g>
	<g>
		<g>
			<path fill="#FFFFFF" d="M444.8,334.4c2-1,3.7-2.7,6-2.9c2.6,1,4.9,2.7,7.4,4c30,17.3,60,34.7,90,51.9c0.1,37.7,0,75.4,0,113.1
				c-32.2,18.6-64.4,37.2-96.6,55.8c-0.7,0.5-1.5,0.5-2.1,0c-32.2-18.6-64.4-37.2-96.7-55.8c0-37.7-0.1-75.4,0.1-113.1
				C383.6,369.8,414.1,352,444.8,334.4z"/>
		</g>
		<g>
			<path fill="#EEB422" d="M444.8,334.4c2-1,3.7-2.7,6-2.9c2.6,1,4.9,2.7,7.4,4c30,17.3,60,34.7,90,51.9c0.1,37.7,0,75.4,0,113.1
				c-32.2,18.6-64.4,37.2-96.6,55.8c-0.7,0.5-1.5,0.5-2.1,0c-32.2-18.6-64.4-37.2-96.7-55.8c0-37.7-0.1-75.4,0.1-113.1
				C383.6,369.8,414.1,352,444.8,334.4z M445.5,347.1c-27.1,15.7-54.2,31.3-81.3,47c0,33.2,0,66.5,0,99.7c28,16.2,56,32.3,84,48.6
				c1.1,0.6,2.4,1.5,3.6,0.6c28.4-16.4,56.7-32.7,85.1-49.1c0-33.2,0-66.5,0-99.7c-27.3-15.7-54.5-31.5-81.8-47.2
				c-1.6-0.9-3-2-4.7-2.5C448.6,345.2,447.1,346.2,445.5,347.1z"/>
		</g>
		<g>
			<path fill="#EEB422" d="M439.1,377.4c14.2-2.2,29.2,0.4,41.8,7.3c12.8,6.9,23.2,18.3,29,31.6c5.7,13,7.1,27.8,3.8,41.6
				c-3.2,14.2-11.4,27.3-22.7,36.4c-11.6,9.5-26.7,14.9-41.7,14.8c-14.9,0.2-29.8-5-41.4-14.4c-11.2-8.9-19.4-21.5-22.9-35.3
				c-3.8-14.7-2.3-30.7,4-44.5C398.1,395.1,417.6,380.6,439.1,377.4z M442.9,389.5c-13.8,1.7-26.8,8.8-35.4,19.7
				c-7.6,9.4-12,21.4-11.9,33.6c-0.2,12.9,4.7,25.6,13.1,35.3c8.5,9.9,20.7,16.5,33.7,18.1c12.2,1.7,24.9-1.2,35.3-7.7
				c9.7-6.1,17.4-15.3,21.6-26c4.7-12,4.9-25.7,0.5-37.8c-3.6-9.9-10.1-18.7-18.7-25C470.3,391.6,456.3,387.9,442.9,389.5z"/>
		</g>
		<g>
			<path fill="#EEB422" d="M441.4,392.5c12-1.9,24.7,0.7,35,7.2c10,6.2,17.6,16,21.2,27.2c3.6,10.7,3.4,22.6-0.5,33.2
				c-3.7,10.6-11.1,19.7-20.6,25.7c-10.2,6.5-22.7,9.3-34.6,7.4c-11.3-1.6-22.1-7.2-29.9-15.6c-9-9.5-14.1-22.7-13.8-35.8
				c0.3-10,3.3-20.1,9.2-28.3C415.4,402.4,427.9,394.6,441.4,392.5z M451.1,411.5c1.6,1.8,4,1.2,5.9,0.4c0.4-0.8,0.7-1.6,1.1-2.4
				c1.1,1.3,2.1,3.2,4.1,3.2c1.1-0.2,2.2-0.6,3.2-1c0.5,2.5,2.2,4.3,4.7,4.8c0,1.8-0.8,4.1,0.8,5.4c1.3,1.6,3.5,0.8,5.3,0.7
				c-0.1,3.1,2.2,5.5,5.3,5.5c-0.2,2.3,0.6,4.4,2.4,5.9c-1.7,1.1-3,2.6-3.5,4.6c-1.5-0.6-3.2-0.9-4.8-1c-0.1-1.8,0.3-4.1-1.5-5.2
				c-1.4-1.2-3.2-0.5-4.7-0.3c-0.1-2.6-1.8-5.8-4.8-5.3c-3.7,0.3-4.6,6-1.5,7.7c1.4,0.6,2.9,0.2,4.3,0.2c0.4,1.3,0.3,2.9,1.4,3.9
				c1.2,1.2,3,1.1,4.5,1.4c-0.3,2.6,0.9,6,4,5.8c2.5,0.2,3.7-2.4,4.4-4.3c1.1,0.3,2.1,0.7,3.2,0.9c2.4,0.1,4.6-2.5,3.9-4.9
				c-0.5-1.3-1.5-2.2-2.3-3.3c2.1-0.9,4.2-3.3,2.9-5.7c-0.7-2.1-3.1-2.4-5-2.7c0.1-1.8,0.2-4-1.4-5.3c-1.5-1.2-3.4-0.6-5-0.3
				c0.2-3-1.9-5.1-4.6-5.8c0.4-1.8,0.8-4.1-0.9-5.4c-1.6-1.6-4-0.8-5.8,0c-0.6-1.9-1.3-4.3-3.7-4.6c-2.1-0.5-3.4,1.4-4.7,2.6
				c-1.5-1.1-3.1-3-5.2-2.4C450.2,405.3,448.8,409.3,451.1,411.5z M425.6,417.4c-3.7,4.6-6.4,10.3-6.8,16.2c-0.2,2.2,0.4,4.4,0,6.5
				c-1.3,1.7-3.1,3-3.9,5c-1.2,3.5,0.6,7.5-1.6,10.7c-0.4,0.9-1.6,2.1-0.4,3c2.2,0.5,3.6-2.1,4.1-3.9c0.6-4-0.7-8.7,2.5-11.8
				c-0.3,1.6-0.7,3.2-0.8,4.8c0.1,2.4,1.2,4.5,1.4,6.8c-0.2,1.7-0.8,3.4-1,5.1c0.4,0.9,1.6,0.4,2.3,0.6c3.5-4.8-0.5-10.2,0.2-15.4
				c0.5,1.6,0.8,3.2,1.5,4.7c1.2,2.3,3.3,3.9,4.4,6.2c0.5,1.6,0.4,3.3,0.6,4.9c0.8-0.6,2.7-0.3,2.6-1.6c0.8-3.9-2.1-6.9-4.3-9.6
				c-1.7-1.7-1-4.2-0.9-6.3c3.5-1.7,6.5-4.4,8.5-7.7c3.4-5.4,5.6-11.9,4.4-18.3c-0.4-2.6-2.7-5.2-5.5-4.7
				C429.9,413.2,427.5,415.2,425.6,417.4z M452.6,431.3c-0.3,1.8,1.2,3.1,2,4.5c-1.7,1.3-3.7,3.3-2.6,5.7c0.9,2.6,3.9,2.7,6.2,2.1
				c0.3,1.9,0.4,4.5,2.6,5.2c3.2,1.5,7-2.2,5.4-5.4c-1-2.5-4-2.6-6.2-2c-0.1-2-0.9-3.8-2.1-5.4c1.2-1.2,2.2-2.4,3.2-3.7
				c-0.7-1.4-1-3.4-2.6-4.2C456.2,427,452.7,428.6,452.6,431.3z M441.4,455.2c-1.3,1.9-0.9,4.5-2,6.5c-1.5,2.1-4,3.5-4.8,6
				c-0.7,3.7,1.9,7.9,5.6,8.6c3-0.3,5.9-1.9,8.9-0.9c3,0.6,5.2,2.8,7.2,5c3.5,3.9,12.2,1.4,11.6-4.3c0.1-2.3-0.7-5,0.9-7
				c1.4-2,4.1-1.8,6.2-1.5c1.8,0.2,2.9,2.6,4.8,1.9c0.3-1,0.3-2.2-0.6-3c-2.2-2.3-5.8-1.7-8.7-2.2c1.5-1.1,2.9-2.4,4.7-2.9
				c1.8-0.4,3.7-0.1,5.5-0.1c-0.2-0.8,0.4-2.1-0.6-2.5c-3.4-1.8-6.8,0.7-9.9,1.9c-1.7,0.1-3.3-1.5-5.1-1.1c-2.5,0.6-5.2,2.3-7.7,0.9
				c-3.2-1.1-3.5-5.1-6.4-6.6C448.1,452.1,443.7,452.4,441.4,455.2z"/>
		</g>
		<path fill="#EEB422" d="M426.8,430c2.7-1.4,6.2,1.3,5.8,4.3c0,3.6-5.3,5.2-7.4,2.4C423.4,434.6,424.3,431,426.8,430z"/>
		<path fill="#EEB422" d="M445.1,459.7c2.8-1.9,7,0.9,6.3,4.3c-0.2,3.2-4.7,4.6-7,2.6C442.3,464.8,442.7,461.1,445.1,459.7z"/>
	</g>
	<g>
		<g>
			<path fill="#FFFFFF" d="M250.5,209.7c32.5-18.8,65.1-37.6,97.6-56.4c32.5,18.8,65.1,37.6,97.6,56.3c0,37.5,0,75.1,0,112.6
				c-32.5,18.8-65,37.6-97.6,56.3c-31.9-18.4-63.8-36.8-95.7-55.2c-0.7-0.4-1.3-0.9-2-1.3V209.7z"/>
		</g>
		<g>
			<path fill="#3677A2" d="M250.5,209.7c32.5-18.8,65.1-37.6,97.6-56.4c32.5,18.8,65.1,37.6,97.6,56.3c0,37.5,0,75.1,0,112.6
				c-32.5,18.8-65,37.6-97.6,56.3c-31.9-18.4-63.8-36.8-95.7-55.2c-0.7-0.4-1.3-0.9-2-1.3V209.7z M261.5,216c0,33.4,0,66.7,0,100.1
				c28.9,16.6,57.7,33.4,86.6,50c28.9-16.7,57.9-33.4,86.7-50.1c-0.1-33.3,0-66.7-0.1-100c-29-16.6-57.8-33.3-86.7-50
				C319.3,182.6,290.4,199.3,261.5,216z"/>
		</g>
		<g>
			<path fill="#3677A2" d="M329.7,197.5c10-1.1,20.3,0.9,29.2,5.7c10.4,5.6,18.6,14.9,22.8,25.9c4.2,10.7,4.4,22.8,0.8,33.7
				c-3.1,9.4-9.2,17.9-17.1,23.9c-7.7,5.9-17.2,9.4-26.9,10c-13.3,1-26.9-3.8-36.7-12.8c-7.5-6.9-12.9-16-15.1-25.9
				c-2.5-11.1-1.1-23.1,4-33.3C298,209.8,313.2,199.2,329.7,197.5z M328.5,204.6c-11.5,1.8-22.2,8.6-28.7,18.3
				c-5.4,7.9-8.1,17.6-7.3,27.2c0.7,10.3,5.3,20.2,12.7,27.4c8.1,8.1,19.5,12.6,30.9,12.4c8.1-0.2,16.2-2.7,22.9-7.2
				c8.5-5.6,14.8-14.3,17.5-24.1c2.9-10,1.9-21.1-2.8-30.4c-4.1-8.5-11.1-15.5-19.6-19.6C346.3,204.6,337.2,203.2,328.5,204.6z"/>
		</g>
		<path fill="#3677A2" d="M344,212.9c0.2-1.2,0-2.3,0.2-3.5c3.1,0.7,6.1,1.9,9,3.3c0,9.9-4.9,20-13.4,25.3c-2.9-1.5-5.7-3.3-8.5-4.9
			c5.6-3.8,10.9-8.9,12.2-15.7c-8.1-0.1-16.2,0.1-24.2-0.1c-2.4-0.2-2.4-4.3,0-4.4C327.5,212.8,335.7,212.9,344,212.9z"/>
		<path fill="#3677A2" d="M304.3,223.8c1.7-2.2,3.6-4.2,5.7-6.1c0.6,1.3,1,2.7,1.5,4c7,0.2,14,0,21,0.1c1-0.1,1.8,0.6,2.5,1.1
			c-0.1,1.3-0.3,3.3-2,3.3c-6.1,0.2-12.2-0.2-18.3,0.3c5.7,6.7,14,10.1,21.3,14.6c6.8,4,13.4,9.4,15.8,17.3c2.2,7.6,1.7,16.3-2.6,23
			c-0.7,1.1-1.5,2.3-2.9,2.6c-4.9,1.5-10.1,1.9-15.1,1.4c3.6-2.5,7.3-4.9,9.8-8.6c1.6-2.2,2.5-4.8,2.9-7.4c-7.9-0.1-15.7,0-23.6-0.1
			c-1.4,0.2-2.7-1-2.6-2.4c0-1.4,1.4-2.5,2.7-2.3c7.8,0,15.7,0,23.5,0c-0.8-6.3-5.4-11.1-10.5-14.4c-7.7-5.1-16.5-8.7-23.3-15.1
			c-2.7-2.7-5.3-5.7-6.7-9.2C303,225.1,304,224.5,304.3,223.8z"/>
		<path fill="#3677A2" d="M300.7,264c0.3-8.5,6-16,13-20.3c2.8,1.8,5.7,3.4,8.5,5.1c-3,2-6,4-8.3,6.7c5.8,0.4,11.5,0.2,17.3,0.2
			c1.2,0,2.8-0.3,3.7,0.9c1.2,1.4,0.1,3.9-1.8,3.8c-7.4,0.2-14.9,0-22.3,0.1c-1.6,4.2-1.6,8.9,0,13.1c7.7,0.1,15.3-0.1,23,0.1
			c2.5,0.1,2.9,4,0.5,4.5c-4.6,0.2-9.1,0-13.7,0.1c-2.4,0.1-4.9-0.3-7.1,0.6C308,275.1,303.2,270.1,300.7,264z"/>
		<path fill="#3677A2" d="M374.3,280.6c1.7-1.5,4.4,0.7,3.5,2.7c-1,1.8-2.7,3-4.1,4.5c-1,0.8-1.9,2.2-3.3,2
			c-1.8-0.1-2.8-2.5-1.5-3.8C370.6,284.1,372.4,282.3,374.3,280.6z"/>
		<path fill="#3677A2" d="M379.7,286c2.8-0.8,6,0.1,8,2.2c7.1,7.1,14.3,14.3,21.4,21.4c2.1,2,3.2,5.1,2.3,8c-0.9,3.9-5.1,6.5-9,5.7
			c-1.9-0.3-3.5-1.4-4.8-2.8c-7.2-7.3-14.5-14.4-21.6-21.7C372,294.8,374.2,287.2,379.7,286z"/>
		<path fill="#3677A2" d="M307.5,301.7c1.7-2,3.6-3.7,5.6-5.3c3.6,1.4,7.2,2.7,11,3.5c-6,3.8-12,8.9-13.8,16.1
			c7.7,0.1,15.4-0.1,23.1,0.1c2.6,0.3,2.2,4.6-0.3,4.5c-7.8,0.2-15.6,0-23.4,0.1c0,0.9-0.1,1.8-0.1,2.7c-3,0.1-6,0.2-9,0.2
			C300.1,315.8,302.3,307.7,307.5,301.7z"/>
		<path fill="#3677A2" d="M331.2,301c3.7,0,7.4,0.2,11-0.4c0.9-0.1,1.9-0.3,2.8-0.1c6,6,8.5,14.7,8.1,23.1c-3,0-6-0.1-9-0.2
			c-0.1-3.7-0.6-7.4-2-10.8c-7.2-0.7-14.5,0-21.7-0.4c-1.8,0-2.6-2.7-1.3-3.8c0.6-0.8,1.7-0.7,2.5-0.8c5.7,0,11.4,0.1,17.1,0
			C336.7,304.9,333.8,303,331.2,301z"/>
	</g>
	<g>
		<g>
			<path fill="#FFFFFF" d="M547.1,156.3c2-1,3.7-2.7,6-2.9c2.6,1,4.9,2.7,7.4,4c30,17.3,60,34.7,90,51.9c0.1,37.7,0,75.4,0,113.1
				c-32.2,18.6-64.4,37.2-96.6,55.8c-0.7,0.5-1.5,0.5-2.1,0c-32.2-18.6-64.4-37.2-96.7-55.8c0-37.7-0.1-75.4,0.1-113.1
				C485.9,191.8,516.4,174,547.1,156.3z"/>
		</g>
		<g>
			<g>
				<path fill="#00CC99" d="M530.6,202.3c10.8-3.8,22.5-4.7,33.8-2.8c9.9,1.7,19.4,5.7,27.6,11.5c11.4,8.1,20.1,19.7,24.7,32.9
					c3.9,11.3,4.7,23.7,2.4,35.4c-1.8,9.2-5.6,18-11.1,25.6c-5.7,8-13.1,14.7-21.6,19.6c-9.8,5.7-21.1,8.7-32.4,8.9h-2.2
					c-11.3-0.2-22.5-3.2-32.3-8.8c-14.2-8-25.3-21.4-30.5-36.9c-2.3-6.7-3.5-13.7-3.6-20.8v-2.2c0.1-4.5,0.6-9.1,1.6-13.5
					c2.4-10.9,7.6-21.1,14.9-29.5C509.4,212.9,519.4,206.1,530.6,202.3z M549.5,203.3c-10.8,0.5-21.5,4-30.6,9.8
					c0.6,1.4,1.4,2.7,1.7,4.1c0.1,1.4-1.2,2.4-1.4,3.7c0.5,1.1,1.3,1.9,1.7,3c0.5,1.3,1,2.9,0.1,4.2c-0.7-0.3-1.4-0.7-2.2-0.7
					c-1.4,0.1-2.5,1.4-4,1.4c-1.2,0.1-2.6,0.1-3.3,1.2c-0.8,1.5-0.3,3.4-0.9,5c-0.3,0.9-1.1,1.6-2,1.7c-1.9,0.1-3.9,0.1-5.8,0.5
					c-1.2,0.7-1.4,2.3-2.3,3.2c-1.6,1-3.7,1-5.1,2.3c-0.8,0.7-1.7,1.4-2,2.4c-2.7,7.7-3.8,15.9-3.4,24.1c0.1,1.1,0.3,2.2,0.6,3.3
					c0.4,1.7,2.1,2.9,3.8,2.7c1.1-0.1,2.2,0.3,2.7,1.3c0.9,1,0,2.6,0.8,3.7c0.5,0.9,1.5,1.4,2.2,2c0.7,1,1.2,2.3,2.5,2.7
					c1.2,0.3,2.2-0.6,3.4-0.7c0.8,0.2,1.5,0.8,2.3,1.2c1.5,0.9,3.2,2,3.7,3.9c1,3.4-0.3,6.9,0,10.3c0.1,1.3,0.8,2.5,1.1,3.7
					c0.2,0.8-0.3,1.5-0.8,2.1c-0.7,0.8-1.1,1.7-1.7,2.6c-0.4,0.7-0.8,1.6-0.5,2.4c0.4,1.1,1.6,1.4,2.3,2.2c0.3,0.5,0.1,1.2,0.1,1.8
					c5,4.1,10.6,7.4,16.6,9.8c12.5,5.1,26.6,5.9,39.7,2.4c9.7-2.6,18.8-7.6,26.2-14.4c0.1-1,0.1-2.1,0.5-3.1c0.4-1.1,1.1-2,1.4-3
					c0.2-0.7,0.1-1.5,0.5-2.2c0.5-0.5,1.3-0.5,1.9-0.7c1.3-0.2,2.6-0.8,3.5-1.8c1-1,2.5-1.7,3-3.1c0.6-1.9,0-3.9,0.2-5.8
					c0.1-1.9,0.9-3.8,2.6-4.9c0.7-0.5,1.6-0.2,2.3-0.6c0.6-0.7,0.6-1.8,1.5-2.3c2.3-7.1,3.2-14.5,2.8-21.9c-0.5,0.7-1.3,1.2-1.3,2.2
					c-0.1,1-0.5,1.9-0.6,2.9c-0.1,1.3,0.6,2.4,0.7,3.7c0,1.3-0.9,2.3-1.6,3.3c-0.6-0.3-1.3-0.6-1.4-1.3c-0.1-0.8,0.2-1.7,0.1-2.5
					c-0.8-0.8-1.9-1.3-2.3-2.4c-0.3-1.1-0.1-2.3,0-3.4c0.2-2.3-0.5-4.6-1.8-6.4c-0.7-1-2.1-1-3.2-1.2c-1.1-0.1-2.2-0.6-3.2-1.2
					c-1.1,1.9-1.5,4-2,6.1c-0.6,2.4-2.9,3.9-5.2,4.7c-1.8,0.4-3.7,0.3-5.5,0.9c-0.8-1.8-1.8-3.5-3.5-4.7c-2.2-1.6-3-4.3-3.4-6.9
					c-0.2-0.7-0.1-1.6-0.8-2c-0.4,2.8-0.5,5.7,0.4,8.5c0.6,1.7,1.9,3,2.3,4.7c0.4,1.6,2.2,2,3.6,2.3c2.3,0.7,4.7-0.5,6.9,0.4
					c0.7,0.3,1.3,1,1.3,1.8c-0.1,0.8-0.8,1.3-1,2.1c0.2,0.8,1.2,1.4,0.8,2.4c-0.9,2.6-3.7,3.6-5.3,5.7c-1.3,1.5-1.8,3.6-3.5,4.7
					c-0.9,0.6-2.1,0.8-2.6,1.8c-1,1.9-0.9,4.2-0.6,6.2c1.4,0.8,3.1,1.4,4.7,1.2c0.9,0,1.8-0.4,2.6,0c0.5,1-0.1,2.2-0.3,3.2
					c-0.6,1.8-0.4,3.8-1.5,5.4c-0.8,0.6-2,0.2-2.9,0.8c-0.5,0.3-0.7,0.9-1,1.4c-1.3,0.1-2.8,0.2-3.8-0.9c-1-1.2-1.4-2.9-2.5-4
					c-0.3,2.9-2,5.3-3.6,7.7c-1.3,2-3.4,3.4-5.7,3.9c-1.6,0.3-3.3,0.3-4.7,1.2c-1,0.6-1.3,1.8-1.7,2.8c-2.7-0.9-4.5-3.3-5.6-5.8
					c-0.9-2-0.4-4.2-1.2-6.2c-0.4-1.3-1.2-2.5-1.3-3.8c0.1-1.4,0.7-2.8,0.7-4.2c0.3-2.3-0.5-4.6-1.5-6.7c-0.5-1-1.6-1.6-2.4-2.4
					c-1-1-1.7-2.3-2.2-3.6c-0.8-2.3-1.7-4.6-3.3-6.5c-0.9-1.1-2.4-1.4-3.7-1.1c-1.6,0.3-3.1,0.9-4.7,1c-3.2,0.2-6.4-0.7-9.5-1.4
					c-1.6-0.3-3.2-1.2-4.3-2.5c-0.5-0.6-1-1.3-1-2.1c0.2-0.9,1.1-1.4,1.2-2.4c0-1.5-0.8-3-0.3-4.5c0.5-1.3-0.3-2.6,0-3.9
					c0.1-0.9,0.7-1.6,1-2.3c0.4-1.4,0.4-2.9,1-4.2c0.6-1.2,2.1-1.7,2.7-2.9c0.7-1.1,0.9-2.5,1.9-3.3c1.5-0.3,3.2-0.5,4.4-1.6
					c0.5-0.4,0.7-1.2,0.2-1.7c-1-1-2.6-0.7-3.7-1.6c0.2-1.3,0.6-2.6,0.6-3.9c0-1.2-0.3-2.4,0.1-3.5c0.3-0.7,1.1-0.5,1.6-0.4
					c1.1,0.2,2.5,0.7,3.4-0.1c1-0.9,1.9-1.9,2.7-2.9c-1-0.4-2.1-0.6-2.9-1.4c-0.5-0.4-0.9-1.1-1.7-1.1c-0.9,0.1-1.8,0.4-2.7,0.5
					c0.3-1.8,0.4-3.7,1.6-5.2c1.7-2.1,4.1-3.4,6.5-4.6c0.7,1.3,1.6,2.6,1.8,4.1c0.1,0.5,0.1,1.2,0.5,1.6c1.1,1.2,2.5,2.1,3.8,3.1
					c0.8-2.1,1.9-4.2,2.9-6.2c0.7-1.4,1-2.9,0.6-4.4c-1.1-3.6,2-7.4,5.5-8c1.5,0.3,2.7,1.4,4.2,1.5c2.8-0.6,5.1-2.3,7.9-2.8
					c0.8-0.1,1.7-0.3,2.3,0.3c0.3,0.9-0.2,2,0.2,2.9c0.6,1.3,1.9,1.9,3.1,2.5c1.3,0.5,2.6,1.3,4,1.1c2.6-0.4,4.7-2,6.7-3.6
					c-2.8-2.6-6.1-4.6-9.6-6.2C566.4,204.1,557.9,202.8,549.5,203.3z M584.4,216.2c-1.1,0.7-2.2,1.4-3.5,1.8
					c0.3,1.7-1.3,2.9-2.1,4.2c1.6-1.3,3.3-2.4,5.3-2.9c2.4-0.7,5-0.5,7.4-0.1c-1.4-0.9-2.8-1.9-4.3-2.7
					C586.4,216,585.3,215.6,584.4,216.2z M556.8,217.9c0.5,1.1,1.2,2.3,0.6,3.5c-1,1.9-3.2,2.6-5.1,3.4c0,0.1-0.1,0.1-0.1,0.2
					c1.4-0.4,2.8-0.8,4.2-1c0.5-0.1,0.9,0,1.3,0.3c1.3-0.4,2.6-0.7,3.8-1.3c0.8-0.4,0.8-1.4,0.7-2.2
					C560.4,219.9,558.7,218.6,556.8,217.9z M549.9,239c-1.3,0.4-2.8,0.4-4.1,0.3c-0.6,0.6-1.1,1.2-1.6,1.8c1.4,0.8,3,1.3,4.6,1.2
					c1.4-0.1,3.1-0.1,4.2,1c1.2,1.3,1.8,3.1,3.2,4.2c0.6,0.5,1.4,0.8,2.1,0.7c2.4-0.5,4.7-1.3,7.2-1.2c1.1,0.1,2.4,0.6,2.9,1.7
					c0.8,1.5,1.7,3.1,3.3,3.9c1,0.5,2.2,0.4,3-0.4c1.2-1.1,1.5-2.8,1.8-4.4c-1.1-0.9-2.3-1.8-3.6-2.4c-1.3-0.5-2.6-0.7-4-0.9
					c-1.8-0.3-3.5-0.6-5.3-1.1c-1.1-0.3-2.2-0.9-3.4-1.1c-0.7-0.2-1.4,0.1-2.2,0.2c-0.9-0.9-1.4-2.2-2.5-2.8
					c-0.9-0.5-1.9-0.8-2.9-1.3C551.6,237.7,550.7,238.6,549.9,239z"/>
			</g>
		</g>
		<g>
			<path fill="#00CC99" d="M547.1,156.3c2-1,3.7-2.7,6-2.9c2.6,1,4.9,2.7,7.4,4c30,17.3,60,34.7,90,51.9c0.1,37.7,0,75.4,0,113.1
				c-32.2,18.6-64.4,37.2-96.6,55.8c-0.7,0.5-1.5,0.5-2.1,0c-32.2-18.6-64.4-37.2-96.7-55.8c0-37.7-0.1-75.4,0.1-113.1
				C485.8,191.8,516.4,174,547.1,156.3z M547.8,169.1c-27.1,15.7-54.2,31.3-81.3,47c0,33.2,0,66.5,0,99.7c28,16.2,56,32.3,84,48.6
				c1.1,0.6,2.4,1.5,3.6,0.6c28.4-16.4,56.7-32.7,85.1-49.1c0-33.2,0-66.5,0-99.7c-27.3-15.7-54.5-31.5-81.8-47.2
				c-1.6-0.9-3-2-4.7-2.5C550.9,167.1,549.4,168.2,547.8,169.1z"/>
		</g>
	</g>
</g>
</svg>
