<?xml version="1.0" encoding="utf-8"?>
<!-- Generator: Adobe Illustrator 18.1.1, SVG Export Plug-In . SVG Version: 6.00 Build 0)  -->
<svg version="1.1" id="Layer_1" xmlns="http://www.w3.org/2000/svg" xmlns:xlink="http://www.w3.org/1999/xlink" x="0px" y="0px"
	 viewBox="0 0 603.5 608" enable-background="new 0 0 603.5 608" xml:space="preserve">
<g>
	<g>
		<path fill="#FFFFFF" d="M295.5,272.9c2.6-1.3,4.9-3.5,7.9-3.8c3.5,1.3,6.5,3.6,9.7,5.3c39.6,22.8,79.2,45.8,118.9,68.5
			c0.1,49.8,0.1,99.5,0,149.3c-42.5,24.5-85,49.1-127.5,73.6c-0.9,0.6-2,0.7-2.8,0c-42.5-24.6-85.1-49.1-127.6-73.7
			c0-49.8-0.1-99.5,0.1-149.3C214.6,319.8,255,296.3,295.5,272.9z"/>
	</g>
	<g>
		<path fill="#EEB422" d="M295.5,272.9c2.6-1.3,4.9-3.5,7.9-3.9c3.5,1.4,6.5,3.6,9.7,5.3c39.6,22.8,79.2,45.8,118.9,68.5
			c0.1,49.8,0.1,99.5,0,149.3c-42.5,24.5-85,49.1-127.5,73.6c-0.9,0.7-2,0.7-2.8,0c-42.5-24.6-85.1-49.1-127.6-73.7
			c0-49.8-0.1-99.6,0.1-149.3C214.6,319.8,255,296.3,295.5,272.9z M296.4,289.8c-35.8,20.7-71.6,41.3-107.4,62
			c0,43.9,0,87.8,0,131.7c37,21.4,74,42.7,110.9,64.1c1.4,0.8,3.2,2,4.8,0.7c37.4-21.6,74.9-43.2,112.3-64.8c0-43.9,0-87.8,0-131.6
			C381,331,345,310.3,309,289.5c-2.1-1.1-4-2.6-6.3-3.2C300.5,287.2,298.5,288.6,296.4,289.8z"/>
	</g>
	<g>
		<path fill="#EEB422" d="M288,329.7c18.8-2.9,38.5,0.5,55.2,9.6c16.9,9.2,30.6,24.1,38.3,41.7c7.5,17.1,9.4,36.7,5.1,54.9
			c-4.3,18.8-15,36-30,48.1c-15.4,12.6-35.2,19.7-55.1,19.6c-19.7,0.2-39.3-6.6-54.7-19c-14.8-11.7-25.6-28.4-30.2-46.7
			c-5.1-19.4-3.1-40.5,5.3-58.7C233.9,353.1,259.6,334,288,329.7z M293,345.8c-18.2,2.2-35.3,11.7-46.8,25.9
			c-10,12.4-15.9,28.3-15.6,44.3c-0.3,17,6.2,33.8,17.3,46.6c11.2,13.1,27.4,21.8,44.5,23.9c16.1,2.2,32.8-1.6,46.5-10.2
			c12.8-8,23-20.2,28.5-34.3c6.3-15.8,6.5-34,0.7-49.9c-4.8-13.1-13.4-24.8-24.6-33C329.1,348.5,310.7,343.6,293,345.8z"/>
	</g>
	<g>
		<path fill="#EEB422" d="M291,349.7c15.9-2.5,32.6,1,46.2,9.6c13.2,8.2,23.2,21.1,28,35.8c4.8,14.1,4.5,29.9-0.6,43.9
			c-4.9,13.9-14.7,26.1-27.2,33.9c-13.4,8.6-30,12.2-45.7,9.8c-15-2.1-29.1-9.5-39.4-20.6c-11.9-12.6-18.6-29.9-18.2-47.2
			c0.4-13.3,4.4-26.5,12.1-37.4C256.6,362.8,273.1,352.5,291,349.7z M303.7,374.7c2.1,2.4,5.3,1.6,7.9,0.5c0.5-1.1,1-2.1,1.4-3.2
			c1.5,1.8,2.8,4.2,5.4,4.2c1.4-0.3,2.9-0.8,4.3-1.3c0.7,3.3,2.9,5.7,6.2,6.4c-0.1,2.4-1.1,5.4,1,7.2c1.8,2.1,4.7,1.1,7,0.9
			c-0.2,4.1,3,7.3,7.1,7.3c-0.2,3,0.8,5.8,3.1,7.7c-2.2,1.5-3.9,3.5-4.6,6.1c-2-0.8-4.2-1.2-6.4-1.3c-0.1-2.4,0.4-5.4-2-6.9
			c-1.8-1.5-4.2-0.6-6.2-0.4c-0.1-3.5-2.4-7.6-6.4-7c-4.9,0.4-6,7.9-2,10.2c1.8,0.7,3.8,0.3,5.7,0.2c0.5,1.7,0.4,3.8,1.8,5.1
			c1.5,1.6,4,1.4,6,1.8c-0.5,3.4,1.2,7.9,5.3,7.6c3.4,0.3,4.8-3.1,5.8-5.7c1.4,0.4,2.8,0.9,4.2,1.2c3.2,0.1,6-3.3,5.2-6.5
			c-0.7-1.7-2-3-3.1-4.3c2.8-1.2,5.5-4.3,3.8-7.5c-1-2.8-4.1-3.2-6.6-3.5c0.1-2.4,0.3-5.3-1.8-6.9c-1.9-1.6-4.4-0.8-6.6-0.4
			c0.3-3.9-2.5-6.7-6.1-7.7c0.6-2.4,1.1-5.4-1.2-7.1c-2.2-2.1-5.3-1-7.7,0c-0.8-2.5-1.8-5.7-4.9-6c-2.7-0.7-4.5,1.8-6.3,3.4
			c-2-1.5-4.1-4-6.9-3.1C302.6,366.6,300.8,371.9,303.7,374.7z M270.1,382.6c-5,6.1-8.4,13.6-9,21.5c-0.3,2.9,0.5,5.8,0,8.6
			c-1.7,2.2-4.1,4-5.1,6.6c-1.6,4.6,0.8,9.9-2.1,14.2c-0.6,1.2-2.1,2.7-0.5,3.9c2.9,0.6,4.7-2.8,5.4-5.2c0.8-5.3-0.9-11.4,3.3-15.6
			c-0.4,2.1-0.9,4.2-1,6.4c0.1,3.1,1.6,6,1.9,9c-0.2,2.3-1.1,4.5-1.3,6.8c0.5,1.2,2.1,0.5,3,0.8c4.6-6.3-0.7-13.5,0.3-20.3
			c0.7,2.1,1.1,4.2,1.9,6.2c1.6,3,4.4,5.1,5.8,8.3c0.7,2.1,0.6,4.3,0.8,6.5c1.1-0.8,3.5-0.3,3.5-2.1c1.1-5.1-2.8-9.1-5.7-12.7
			c-2.2-2.3-1.4-5.6-1.2-8.4c4.6-2.3,8.6-5.8,11.3-10.2c4.5-7.1,7.3-15.8,5.8-24.2c-0.5-3.4-3.6-6.8-7.3-6.2
			C275.8,377.1,272.6,379.7,270.1,382.6z M305.7,401c-0.3,2.4,1.6,4.1,2.7,6c-2.3,1.8-4.8,4.4-3.4,7.6c1.1,3.5,5.2,3.6,8.1,2.8
			c0.4,2.5,0.5,5.9,3.4,6.9c4.2,2,9.2-3,7.1-7.2c-1.3-3.3-5.2-3.5-8.1-2.6c-0.1-2.7-1.2-5.1-2.8-7.1c1.5-1.5,3-3.2,4.3-4.9
			c-1-1.9-1.3-4.5-3.4-5.5C310.5,395.2,305.9,397.3,305.7,401z M291,432.4c-1.7,2.6-1.2,5.9-2.6,8.6c-2,2.7-5.2,4.6-6.3,8
			c-1,4.9,2.5,10.4,7.4,11.4c3.9-0.4,7.8-2.5,11.8-1.1c4,0.8,6.8,3.7,9.5,6.5c4.6,5.2,16.1,1.8,15.3-5.7c0.1-3.1-0.9-6.6,1.3-9.2
			c1.9-2.6,5.5-2.3,8.3-2c2.4,0.3,3.9,3.5,6.3,2.6c0.4-1.4,0.4-2.9-0.8-3.9c-3-3-7.6-2.2-11.4-3c2-1.5,3.9-3.2,6.3-3.9
			c2.4-0.5,4.8-0.2,7.2-0.1c-0.3-1.1,0.5-2.8-0.8-3.3c-4.4-2.4-9,0.9-13.1,2.5c-2.3,0.1-4.3-2-6.7-1.4c-3.3,0.8-6.8,3-10.2,1.1
			c-4.2-1.4-4.6-6.8-8.4-8.7C299.8,428.4,294,428.8,291,432.4z"/>
	</g>
	<path fill="#EEB422" d="M271.7,399.1c3.6-1.8,8.2,1.7,7.6,5.6c0,4.8-7,6.8-9.8,3.1C267.2,405.2,268.4,400.5,271.7,399.1z"/>
	<path fill="#EEB422" d="M295.8,438.5c3.7-2.5,9.3,1.3,8.3,5.6c-0.3,4.3-6.2,6.1-9.2,3.4C292.2,445.1,292.7,440.2,295.8,438.5z"/>
</g>
<g>
	<g>
		<path fill="#FFFFFF" d="M39,108.4C81.9,83.6,124.9,58.8,167.9,34c42.9,24.8,85.9,49.6,128.8,74.4c0,49.6,0,99.1,0,148.7
			c-42.9,24.8-85.9,49.6-128.8,74.4c-42.1-24.3-84.2-48.6-126.3-72.9c-0.9-0.5-1.8-1.1-2.6-1.7V108.4z"/>
	</g>
	<g>
		<path fill="#3677A2" d="M39,108.4C81.9,83.6,124.9,58.8,167.9,34c42.9,24.8,85.9,49.6,128.8,74.4c0,49.6,0,99.1,0,148.7
			c-42.9,24.8-85.9,49.6-128.8,74.4c-42.1-24.3-84.2-48.6-126.3-72.9c-0.9-0.5-1.8-1.1-2.6-1.7V108.4z M53.5,116.7
			c0,44-0.1,88.1,0,132.1c38.1,22,76.2,44,114.4,66c38.2-22.1,76.4-44,114.5-66.1c-0.1-44,0.1-88-0.1-132
			c-38.2-21.9-76.3-44-114.4-66C129.8,72.6,91.7,94.6,53.5,116.7z"/>
	</g>
	<g>
		<path fill="#3677A2" d="M143.6,92.3c13.2-1.5,26.9,1.1,38.5,7.5c13.7,7.3,24.6,19.7,30.1,34.2c5.5,14.1,5.8,30.1,1,44.5
			c-4.1,12.5-12.1,23.6-22.6,31.5c-10.2,7.8-22.7,12.4-35.5,13.2c-17.6,1.3-35.5-5.1-48.5-16.9c-9.9-9-17-21.1-19.9-34.2
			c-3.3-14.7-1.4-30.5,5.3-44C101.7,108.5,121.8,94.5,143.6,92.3z M141.9,101.7c-15.2,2.4-29.3,11.3-37.9,24.1
			c-7.1,10.4-10.6,23.3-9.7,35.9c1,13.5,7,26.7,16.7,36.1c10.6,10.7,25.8,16.7,40.8,16.4c10.7-0.3,21.3-3.6,30.2-9.5
			c11.2-7.4,19.5-18.9,23.1-31.8c3.8-13.2,2.5-27.9-3.6-40.2c-5.4-11.2-14.7-20.5-25.9-25.9C165.4,101.6,153.4,99.8,141.9,101.7z"/>
	</g>
	<path fill="#3677A2" d="M162.4,112.6c0.2-1.5,0-3.1,0.3-4.6c4.1,1,8.1,2.5,11.8,4.4c0,13.1-6.4,26.4-17.7,33.4
		c-3.9-1.9-7.5-4.3-11.2-6.4c7.4-5,14.3-11.7,16.1-20.8c-10.7-0.2-21.3,0.1-32-0.1c-3.2-0.2-3.2-5.7,0-5.8
		C140.6,112.5,151.5,112.7,162.4,112.6z"/>
	<path fill="#3677A2" d="M110,127c2.2-2.9,4.8-5.6,7.5-8c0.7,1.7,1.4,3.5,2,5.3c9.2,0.3,18.5,0,27.7,0.1c1.3-0.1,2.3,0.8,3.3,1.5
		c-0.2,1.7-0.3,4.3-2.6,4.4c-8,0.3-16.1-0.3-24.2,0.4c7.5,8.9,18.5,13.3,28.1,19.3c8.9,5.3,17.7,12.5,20.9,22.8
		c2.9,10,2.2,21.5-3.4,30.4c-0.9,1.4-2,3-3.8,3.4c-6.4,1.9-13.3,2.5-20,1.9c4.7-3.3,9.6-6.5,12.9-11.4c2.1-2.9,3.3-6.3,3.8-9.8
		c-10.4-0.2-20.7,0-31.1-0.1c-1.8,0.3-3.6-1.3-3.5-3.1c0-1.8,1.8-3.2,3.6-3c10.3,0,20.7,0.1,31,0c-1-8.3-7.1-14.6-13.8-19
		c-10.2-6.8-21.8-11.5-30.8-20c-3.6-3.5-7-7.5-8.9-12.2C108.3,128.7,109.6,127.9,110,127z"/>
	<path fill="#3677A2" d="M105.2,180.1c0.4-11.2,7.9-21.1,17.2-26.8c3.7,2.4,7.5,4.5,11.3,6.8c-3.9,2.6-7.9,5.3-11,8.9
		c7.6,0.5,15.2,0.3,22.9,0.2c1.6,0.1,3.7-0.4,4.8,1.2c1.6,1.8,0.1,5.2-2.4,5c-9.8,0.3-19.6,0-29.4,0.1c-2.1,5.5-2.2,11.7-0.1,17.3
		c10.1,0.1,20.2-0.2,30.3,0.1c3.2,0.1,3.8,5.3,0.6,6c-6,0.3-12.1,0-18.1,0.1c-3.1,0.1-6.4-0.4-9.4,0.8
		C114.9,194.7,108.6,188.1,105.2,180.1z"/>
	<path fill="#3677A2" d="M202.4,201.9c2.2-1.9,5.8,0.9,4.6,3.5c-1.4,2.3-3.6,4-5.4,6c-1.3,1.1-2.5,2.8-4.4,2.6c-2.4-0.1-3.7-3.3-2-5
		C197.6,206.6,199.9,204.2,202.4,201.9z"/>
	<path fill="#3677A2" d="M209.6,209.1c3.7-1.1,7.9,0.2,10.5,3c9.4,9.4,18.8,18.8,28.2,28.2c2.8,2.6,4.2,6.8,3.1,10.5
		c-1.2,5.1-6.8,8.6-11.9,7.5c-2.5-0.4-4.7-1.8-6.4-3.6c-9.5-9.6-19.1-19-28.5-28.6C199.4,220.8,202.3,210.8,209.6,209.1z"/>
	<path fill="#3677A2" d="M114.3,229.9c2.2-2.6,4.7-4.9,7.4-6.9c4.7,1.9,9.5,3.6,14.5,4.6c-8,5.1-15.8,11.7-18.2,21.3
		c10.2,0.2,20.3-0.1,30.5,0.1c3.4,0.4,2.9,6-0.5,6c-10.3,0.2-20.6,0-30.9,0.1c0,1.2-0.1,2.3-0.2,3.5c-3.9,0.1-7.9,0.3-11.8,0.3
		C104.5,248.4,107.3,237.7,114.3,229.9z"/>
	<path fill="#3677A2" d="M145.4,228.9c4.9,0,9.7,0.3,14.5-0.5c1.2-0.1,2.5-0.5,3.7-0.1c7.9,7.9,11.3,19.4,10.7,30.5
		c-4,0-7.9-0.1-11.9-0.3c-0.1-4.8-0.8-9.7-2.7-14.2c-9.5-1-19.1,0-28.7-0.5c-2.4,0-3.5-3.5-1.7-5c0.8-1,2.2-1,3.3-1
		c7.5,0,15,0.1,22.6,0C152.8,234,149,231.6,145.4,228.9z"/>
</g>
<g>
	<g>
		<path fill="#FFFFFF" d="M430.5,37.9c2.6-1.3,4.9-3.5,7.9-3.8c3.4,1.3,6.5,3.6,9.7,5.3c39.6,22.8,79.2,45.8,118.9,68.5
			c0.1,49.8,0.1,99.5,0,149.3c-42.5,24.5-85,49.1-127.5,73.6c-0.9,0.6-2,0.7-2.8,0c-42.5-24.6-85.1-49.1-127.6-73.7
			c0-49.8-0.1-99.5,0.1-149.3C349.7,84.7,390,61.2,430.5,37.9z"/>
	</g>
	<g>
		<g>
			<path fill="#00CC99" d="M408.7,98.6c14.2-5,29.7-6.2,44.6-3.6c13.1,2.2,25.6,7.5,36.4,15.2c15,10.6,26.6,26.1,32.6,43.5
				c5.2,14.9,6.2,31.3,3.1,46.8c-2.4,12.1-7.4,23.7-14.6,33.8c-7.5,10.6-17.3,19.5-28.5,25.9c-13,7.5-27.8,11.5-42.8,11.7h-2.9
				c-14.9-0.3-29.7-4.2-42.6-11.6c-18.8-10.6-33.4-28.2-40.3-48.6c-3-8.8-4.6-18.1-4.8-27.4v-2.9c0.2-6,0.8-12,2.1-17.9
				c3.1-14.4,10-27.9,19.6-39C380.8,112.7,394,103.6,408.7,98.6z M433.7,99.9c-14.3,0.7-28.4,5.2-40.4,13c0.8,1.8,1.8,3.5,2.2,5.5
				c0.2,1.8-1.5,3.1-1.8,4.9c0.6,1.4,1.7,2.5,2.2,3.9c0.7,1.7,1.3,3.9,0.2,5.5c-0.9-0.4-1.8-1-2.9-0.9c-1.9,0.2-3.3,1.8-5.2,1.9
				c-1.5,0.1-3.4,0.2-4.3,1.6c-1.1,2-0.3,4.5-1.1,6.6c-0.4,1.1-1.4,2.2-2.6,2.3c-2.5,0.2-5.1,0.1-7.6,0.7c-1.6,0.9-1.8,3-3,4.2
				c-2.1,1.4-4.8,1.3-6.8,3c-1,0.9-2.2,1.9-2.7,3.2c-3.6,10.2-5.1,21-4.5,31.8c0.1,1.5,0.4,2.9,0.8,4.3c0.6,2.2,2.8,3.8,5.1,3.6
				c1.4-0.2,2.9,0.5,3.6,1.7c1.2,1.4,0,3.4,1,4.8c0.6,1.2,1.9,1.8,2.9,2.7c1,1.3,1.6,3.1,3.3,3.6c1.6,0.4,2.9-0.8,4.5-1
				c1.1,0.3,2,1,3,1.6c2,1.2,4.2,2.7,4.9,5.1c1.3,4.5-0.4,9.1,0,13.6c0.1,1.7,1.1,3.2,1.5,4.9c0.3,1.1-0.4,2-1,2.8
				c-0.9,1-1.5,2.2-2.2,3.4c-0.5,0.9-1.1,2.1-0.6,3.2c0.5,1.4,2.1,1.9,3.1,2.9c0.3,0.7,0.1,1.5,0.1,2.3c6.6,5.4,14,9.8,21.9,13
				c16.5,6.7,35.2,7.8,52.4,3.1c12.8-3.4,24.8-10,34.6-19c0.1-1.4,0.1-2.8,0.7-4.1c0.5-1.4,1.4-2.6,1.8-4c0.3-0.9,0.2-2,0.7-2.8
				c0.6-0.7,1.7-0.7,2.5-0.9c1.8-0.3,3.4-1.1,4.7-2.4c1.3-1.4,3.3-2.2,4-4.1c0.8-2.5,0-5.1,0.2-7.7c0.1-2.5,1.2-5.1,3.4-6.4
				c0.9-0.6,2.2-0.2,3.1-0.8c0.8-0.9,0.8-2.4,2-3c3-9.3,4.2-19.2,3.7-29c-0.7,0.9-1.7,1.6-1.7,2.9c-0.1,1.3-0.7,2.5-0.8,3.8
				c-0.1,1.7,0.8,3.2,0.9,4.9c0,1.7-1.1,3.1-2.1,4.4c-0.7-0.4-1.7-0.8-1.9-1.8c-0.2-1.1,0.3-2.2,0.1-3.3c-1-1-2.5-1.7-3-3.2
				c-0.4-1.5-0.1-3-0.1-4.5c0.2-3-0.7-6-2.4-8.5c-1-1.4-2.8-1.4-4.3-1.6c-1.5-0.2-2.9-0.8-4.2-1.6c-1.5,2.4-1.9,5.3-2.6,8
				c-0.8,3.2-3.9,5.2-6.8,6.1c-2.4,0.6-4.9,0.4-7.3,1.2c-1-2.4-2.4-4.7-4.6-6.2c-2.9-2.1-3.9-5.7-4.5-9.1c-0.3-0.9-0.1-2.1-1-2.7
				c-0.5,3.7-0.7,7.6,0.6,11.2c0.7,2.2,2.5,3.9,3,6.2c0.5,2.1,2.9,2.6,4.7,3.1c3,0.9,6.1-0.6,9.1,0.5c1,0.3,1.8,1.3,1.7,2.4
				c-0.1,1-1,1.8-1.3,2.8c0.3,1.1,1.6,1.9,1.1,3.1c-1.1,3.4-4.8,4.8-7,7.5c-1.7,1.9-2.4,4.7-4.6,6.2c-1.1,0.8-2.8,1.1-3.5,2.4
				c-1.4,2.5-1.2,5.5-0.7,8.2c1.9,1.1,4,1.9,6.2,1.6c1.1,0,2.3-0.5,3.4,0c0.6,1.4-0.2,2.8-0.4,4.2c-0.7,2.4-0.5,5.1-2,7.2
				c-1.1,0.8-2.7,0.3-3.8,1.1c-0.7,0.4-0.9,1.2-1.3,1.9c-1.7,0.1-3.8,0.3-5-1.1c-1.4-1.6-1.8-3.8-3.4-5.3c-0.4,3.8-2.7,7-4.7,10.1
				c-1.8,2.6-4.5,4.5-7.6,5.1c-2.1,0.5-4.4,0.4-6.2,1.6c-1.3,0.8-1.7,2.4-2.2,3.8c-3.6-1.1-6-4.4-7.3-7.7c-1.1-2.6-0.6-5.6-1.6-8.2
				c-0.5-1.7-1.5-3.3-1.7-5.1c0.2-1.9,0.9-3.7,1-5.6c0.3-3.1-0.7-6.1-2-8.8c-0.7-1.4-2.1-2.1-3.1-3.2c-1.4-1.3-2.3-3-2.9-4.8
				c-1-3-2.3-6.1-4.3-8.6c-1.1-1.4-3.1-1.8-4.8-1.5c-2.1,0.4-4.1,1.2-6.3,1.3c-4.3,0.3-8.4-0.9-12.6-1.9c-2.2-0.4-4.2-1.5-5.6-3.3
				c-0.7-0.8-1.3-1.8-1.3-2.8c0.3-1.2,1.5-1.9,1.6-3.1c0.1-2-1.1-4-0.4-5.9c0.6-1.7-0.4-3.5-0.1-5.2c0.2-1.1,0.9-2.1,1.4-3.1
				c0.6-1.8,0.5-3.9,1.3-5.6c0.8-1.6,2.7-2.2,3.6-3.8c1-1.4,1.1-3.4,2.6-4.4c2-0.4,4.3-0.7,5.9-2.1c0.6-0.6,1-1.6,0.3-2.3
				c-1.3-1.3-3.5-1-4.9-2.1c0.2-1.7,0.8-3.4,0.8-5.2c0.1-1.5-0.3-3.1,0.2-4.6c0.4-0.9,1.4-0.6,2.2-0.5c1.5,0.3,3.3,0.9,4.5-0.2
				c1.3-1.2,2.5-2.5,3.6-3.8c-1.3-0.5-2.8-0.8-3.8-1.8c-0.7-0.6-1.2-1.5-2.2-1.5c-1.2,0.1-2.4,0.5-3.6,0.6c0.3-2.4,0.5-4.9,2.1-6.8
				c2.2-2.8,5.4-4.5,8.5-6.1c1,1.7,2.1,3.4,2.4,5.4c0.1,0.7,0.1,1.5,0.7,2.1c1.5,1.6,3.3,2.7,5,4c1.1-2.8,2.5-5.5,3.8-8.2
				c0.9-1.8,1.3-3.8,0.7-5.8c-1.4-4.7,2.6-9.8,7.2-10.6c2,0.3,3.6,1.8,5.6,2c3.6-0.7,6.8-3,10.4-3.7c1-0.2,2.2-0.4,3.1,0.3
				c0.3,1.2-0.3,2.6,0.3,3.8c0.8,1.7,2.5,2.5,4.2,3.2c1.7,0.7,3.4,1.7,5.3,1.4c3.4-0.5,6.3-2.6,8.9-4.8c-3.7-3.4-8.1-6.1-12.7-8.2
				C456,101,444.8,99.3,433.7,99.9z M479.7,117c-1.5,0.9-2.9,1.8-4.6,2.4c0.4,2.3-1.7,3.9-2.8,5.6c2.1-1.7,4.4-3.1,7-3.9
				c3.2-1,6.6-0.7,9.8-0.2c-1.8-1.2-3.7-2.5-5.6-3.6C482.4,116.7,480.9,116.2,479.7,117z M443.3,119.2c0.6,1.4,1.6,3.1,0.8,4.7
				c-1.3,2.5-4.3,3.4-6.8,4.5c0,0.1-0.1,0.2-0.1,0.3c1.8-0.5,3.7-1.1,5.6-1.4c0.6-0.2,1.2,0,1.7,0.4c1.7-0.5,3.5-0.9,5.1-1.7
				c1.1-0.5,1-1.9,0.9-2.9C448.1,121.8,445.9,120.1,443.3,119.2z M434.2,147c-1.8,0.5-3.6,0.6-5.5,0.3c-0.7,0.8-1.5,1.6-2.1,2.4
				c1.8,1,3.9,1.7,6,1.6c1.9-0.1,4-0.1,5.5,1.3c1.6,1.7,2.4,4.1,4.2,5.6c0.7,0.7,1.8,1.1,2.8,0.9c3.1-0.7,6.2-1.8,9.5-1.5
				c1.5,0.1,3.2,0.8,3.8,2.2c1,2,2.3,4.1,4.3,5.1c1.3,0.7,2.9,0.5,4-0.6c1.6-1.5,2-3.7,2.3-5.8c-1.5-1.2-3-2.4-4.8-3.2
				c-1.7-0.7-3.5-0.9-5.2-1.2c-2.3-0.3-4.7-0.8-6.9-1.5c-1.5-0.4-2.9-1.2-4.5-1.5c-1-0.2-1.9,0.2-2.9,0.3c-1.2-1.2-1.8-2.9-3.3-3.7
				c-1.2-0.6-2.6-1-3.8-1.7C436.5,145.3,435.3,146.6,434.2,147z"/>
		</g>
	</g>
	<g>
		<path fill="#00CC99" d="M430.5,37.9c2.6-1.3,4.9-3.5,7.9-3.8c3.5,1.3,6.5,3.6,9.7,5.3c39.6,22.8,79.2,45.8,118.9,68.5
			c0.1,49.8,0.1,99.5,0,149.3c-42.5,24.5-85,49.1-127.5,73.6c-0.9,0.6-2,0.7-2.8,0c-42.5-24.6-85.1-49.1-127.6-73.7
			c0-49.8-0.1-99.5,0.1-149.3C349.7,84.7,390,61.2,430.5,37.9z M431.4,54.8c-35.8,20.7-71.6,41.3-107.4,62c0,43.9,0,87.8,0,131.6
			c37,21.4,74,42.7,110.9,64.1c1.4,0.8,3.2,2,4.8,0.7c37.4-21.6,74.9-43.2,112.3-64.8c0-43.9,0-87.8,0-131.6
			C516,96,480,75.2,444.1,54.5c-2.1-1.1-4-2.6-6.3-3.2C435.5,52.2,433.5,53.6,431.4,54.8z"/>
	</g>
</g>
</svg>
